<svg width="38" height="38" viewBox="0 0 38 38" fill="none" xmlns="http://www.w3.org/2000/svg">
<g id="&#60;Group&#62;">
<g id="&#60;Group&#62;_2">
<path id="&#60;Path&#62;" d="M19.0236 37.2187C9.08934 37.2187 1 29.1767 1 19.2424C1 9.30811 9.08934 1.21875 19.0236 1.21875C28.9579 1.21875 37 9.30811 37 19.2424C37 29.1767 28.9579 37.2187 19.0236 37.2187Z" stroke="#B3C9D0"/>
</g>
<g id="&#60;Group&#62;_3">
<path id="&#60;Path&#62;_2" d="M17.0556 19.2087H15.4268V16.5278H17.0556C17.0556 16.5278 17.0556 16.1545 17.0556 14.4238C17.0556 12.4556 18.1076 11.4375 20.4492 11.4375C20.8225 11.4375 22.621 11.4375 22.621 11.4375V14.1523C22.621 14.1523 21.3994 14.1523 20.9243 14.1523C20.3134 14.1523 20.1777 14.4238 20.1777 15.0346C20.1777 15.5437 20.1777 16.5278 20.1777 16.5278H22.621L22.3835 19.1748H20.1777V27.0478H17.0556V19.2087Z" fill="#5C7F8A"/>
</g>
</g>
</svg>
