<svg width="38" height="38" viewBox="0 0 38 38" fill="none" xmlns="http://www.w3.org/2000/svg">
<g id="&#60;Group&#62;">
<g id="&#60;Group&#62;_2">
<path id="&#60;Path&#62;" d="M18.9763 37.2187C9.04205 37.2187 1 29.1294 1 19.1951C1 9.2608 9.04205 1.21875 18.9763 1.21875C28.9579 1.21875 37 9.2608 37 19.1951C37 29.1294 28.9579 37.2187 18.9763 37.2187Z" stroke="#B3C9D0"/>
</g>
<g id="&#60;Group&#62;_3">
<path id="&#60;Path&#62;_2" d="M18.4447 21.363L17.8378 20.2167L17.5182 21.4737L18.0028 21.5969L17.5182 21.4738L17.5181 21.4738L17.5181 21.4741L17.5178 21.4752L17.5167 21.4796L17.5123 21.4969L17.4956 21.5627L17.4351 21.8007L17.2444 22.5514C17.1034 23.107 16.9493 23.7148 16.8946 23.9335C16.6792 24.6632 16.2592 25.3907 15.9069 25.9248C15.8545 25.2847 15.8406 24.4188 16.0215 23.6591C16.1082 23.2946 16.4036 22.0612 16.6773 20.9184L17.0428 19.3929L17.1594 18.9065L17.1916 18.7718L17.2001 18.7365L17.2023 18.7275L17.2028 18.7252L17.203 18.7246L17.203 18.7245L16.7168 18.6079L17.203 18.7244L17.2487 18.5337L17.1541 18.3654L17.1495 18.3565C17.1444 18.3465 17.1357 18.3287 17.1245 18.3036C17.1021 18.2534 17.07 18.1745 17.0372 18.0706C16.9714 17.8625 16.904 17.5574 16.904 17.1829C16.904 16.0095 17.5927 15.3542 18.1765 15.3542C18.4325 15.3542 18.5931 15.4481 18.6988 15.5763C18.8141 15.7161 18.893 15.9347 18.893 16.2097C18.893 16.5402 18.779 16.9829 18.6066 17.5444C18.5747 17.6481 18.5411 17.7554 18.5066 17.8654C18.3649 18.3167 18.2091 18.8131 18.1063 19.2951C17.9513 19.9264 18.0958 20.5245 18.4685 20.9644C18.8382 21.4007 19.4007 21.6451 20.0187 21.6451C21.1141 21.6451 21.9652 20.936 22.5163 19.9727C23.0687 19.0072 23.3687 17.7178 23.3687 16.3487C23.3687 15.2455 22.9989 14.2403 22.2541 13.5108C21.5088 12.7808 20.4355 12.373 19.115 12.373C16.075 12.373 14.1661 14.666 14.1661 17.2176C14.1661 18.1036 14.453 18.765 14.8607 19.2951L14.8805 19.3208L14.9034 19.3438C14.9061 19.3464 14.9087 19.349 14.9112 19.3515L14.9057 19.3787C14.8832 19.4915 14.8262 19.7264 14.7819 19.9055C13.8806 19.4393 13.3936 18.3553 13.3936 16.9743C13.3936 14.7095 15.3631 11.8438 19.3583 11.8438C22.5399 11.8438 24.5584 14.139 24.5584 16.5225C24.5584 18.2081 24.0953 19.6408 23.3244 20.6398C22.5603 21.63 21.4858 22.2092 20.1924 22.2092C19.7928 22.2092 19.4032 22.1014 19.0834 21.9325C18.7574 21.7603 18.5411 21.5451 18.4447 21.363ZM17.1542 18.3657C17.1545 18.3662 17.1545 18.3662 17.1542 18.3657L17.1542 18.3657Z" fill="#5C7F8A" stroke="#5C7F8A"/>
</g>
</g>
</svg>
