<svg width="38" height="38" viewBox="0 0 38 38" fill="none" xmlns="http://www.w3.org/2000/svg">
<g id="&#60;Group&#62;">
<path id="&#60;Path&#62;" d="M18.9763 37.2187C9.04205 37.2187 1 29.1767 1 19.2424C1 9.30811 9.04205 1.21875 18.9763 1.21875C28.9579 1.21875 37 9.30811 37 19.2424C37 29.1767 28.9579 37.2187 18.9763 37.2187Z" stroke="#B3C9D0"/>
<g id="&#60;Group&#62;_2">
<g id="&#60;Group&#62;_3">
<g id="&#60;Group&#62;_4">
<path id="&#60;Compound Path&#62;" d="M22.1877 11.9277L22.1887 11.9277C22.9959 11.9628 23.5059 12.1011 23.946 12.2703L23.9459 12.2705L23.9573 12.2745C24.4074 12.4353 24.7584 12.6556 25.1612 13.0584C25.564 13.4612 25.7843 13.8122 25.9451 14.2623L25.945 14.2624L25.9493 14.2737C26.1186 14.7137 26.2569 15.2238 26.2919 16.0309L26.292 16.0319C26.3289 16.8446 26.329 17.0956 26.329 19.2385C26.329 21.3427 26.3289 21.595 26.292 22.4455C26.257 23.2137 26.1192 23.724 25.9493 24.1657L25.9492 24.1656L25.9451 24.177C25.7795 24.6408 25.557 25.0175 25.1769 25.3659L25.1689 25.3733L25.1612 25.3809C24.7584 25.7837 24.4074 26.004 23.9573 26.1648L23.9362 26.1723L23.9159 26.1817C23.5107 26.3687 23.0201 26.4755 22.1887 26.5116L22.1877 26.5117C21.3751 26.5486 21.124 26.5487 18.9812 26.5487C16.8769 26.5487 16.6247 26.5486 15.7741 26.5117C14.9818 26.4756 14.4904 26.3693 14.084 26.1817L14.0637 26.1723L14.0426 26.1648C13.5788 25.9992 13.2021 25.7767 12.8537 25.3966L12.839 25.3806L12.823 25.3659C12.443 25.0176 12.2205 24.6408 12.0548 24.177L12.055 24.177L12.0506 24.1657C11.8808 23.724 11.7429 23.2137 11.708 22.4455C11.671 21.5949 11.6709 21.3427 11.6709 19.2385C11.6709 17.0956 11.671 16.8446 11.7079 16.0319L11.708 16.0309C11.7431 15.2238 11.8814 14.7137 12.0506 14.2737L12.0508 14.2737L12.0548 14.2623C12.2156 13.8122 12.4359 13.4612 12.8387 13.0584L12.8464 13.0507L12.8537 13.0427C13.2021 12.6627 13.5788 12.4402 14.0426 12.2745L14.0427 12.2747L14.054 12.2703C14.4956 12.1005 15.0059 11.9626 15.7741 11.9277C16.6247 11.8907 16.8769 11.8906 18.9812 11.8906C21.124 11.8906 21.3751 11.8907 22.1877 11.9277ZM15.8043 12.3556L15.8043 12.3556L15.8021 12.3557C15.0044 12.3956 14.54 12.5174 14.187 12.6497L14.1731 12.6549L14.1595 12.661C13.7848 12.8275 13.4644 13.0086 13.1079 13.3651C12.784 13.689 12.6019 14.0154 12.4362 14.4285C12.3031 14.7403 12.1369 15.2166 12.1353 16.0351C12.1288 16.1786 12.1222 16.3055 12.1158 16.4287C12.0859 17.0069 12.0602 17.5023 12.0602 19.2385C12.0602 20.9392 12.0858 21.4312 12.1156 22.0063C12.122 22.1307 12.1287 22.259 12.1353 22.4042C12.1369 23.2306 12.3066 23.7036 12.43 24.0326L12.4299 24.0326L12.4339 24.0427C12.6087 24.4796 12.792 24.7524 13.0851 25.0875L13.1071 25.1125L13.1322 25.1345C13.4498 25.4124 13.7694 25.6489 14.1953 25.7927C14.5219 25.915 14.9875 26.0805 15.8021 26.1212L15.8043 26.1213C16.6418 26.1594 16.917 26.1594 18.9667 26.1594H18.9812H18.9962C21.0829 26.1594 21.3581 26.1594 22.1956 26.1213L22.1979 26.1212C22.9943 26.0814 23.4618 25.9224 23.7713 25.7919C24.2324 25.6481 24.557 25.4092 24.8545 25.1118C25.2003 24.766 25.3894 24.4842 25.566 24.0427L25.5661 24.0428L25.5699 24.0326C25.7023 23.6796 25.8241 23.2153 25.864 22.4176L25.8641 22.4153C25.9021 21.5781 25.9021 21.3028 25.9021 19.2546V19.2385V19.2217C25.9021 17.1366 25.9021 16.8613 25.8641 16.024L25.864 16.0218C25.8246 15.2351 25.7052 14.7608 25.5638 14.4287C25.4005 14.0217 25.217 13.6886 24.8551 13.3645C24.531 13.0026 24.198 12.8191 23.7909 12.6558C23.4588 12.5144 22.9846 12.395 22.1979 12.3557L22.1956 12.3556C21.3581 12.3175 21.0829 12.3175 18.9961 12.3175H18.9812H18.9668C16.917 12.3175 16.6418 12.3175 15.8043 12.3556Z" fill="#5C7F8A" stroke="#5C7F8A"/>
</g>
</g>
<g id="&#60;Group&#62;_5">
<g id="&#60;Group&#62;_6">
<path id="&#60;Compound Path&#62;_2" d="M22.536 19.2365C22.536 21.1728 20.9605 22.7543 18.9807 22.7543C17.0414 22.7543 15.4629 21.1758 15.4629 19.2365C15.4629 17.2973 17.0414 15.7188 18.9807 15.7188C20.9605 15.7188 22.536 17.3003 22.536 19.2365ZM22.1091 19.2365C22.1091 17.496 20.7213 16.1081 18.9807 16.1081C17.273 16.1081 15.8898 17.5007 15.8898 19.2365C15.8898 20.9396 17.2777 22.3275 18.9807 22.3275C20.7166 22.3275 22.1091 20.9442 22.1091 19.2365Z" fill="#5C7F8A" stroke="#5C7F8A"/>
</g>
</g>
<g id="&#60;Group&#62;_7">
<path id="&#60;Path&#62;_2" d="M23.6255 15.0286C23.6255 15.2781 23.4363 15.4673 23.1868 15.4673C22.9372 15.4673 22.748 15.2781 22.748 15.0286C22.748 14.779 22.9372 14.5898 23.1868 14.5898C23.4363 14.5898 23.6255 14.779 23.6255 15.0286Z" fill="#5C7F8A" stroke="#5C7F8A"/>
</g>
</g>
</g>
</svg>
