<svg width="38" height="38" viewBox="0 0 38 38" fill="none" xmlns="http://www.w3.org/2000/svg">
<g id="&#60;Group&#62;">
<g id="&#60;Group&#62;_2">
<path id="&#60;Path&#62;" d="M19.0236 37.2188C9.08935 37.2188 1 29.1767 1 19.2424C1 9.3081 9.08935 1.21875 19.0236 1.21875C28.9579 1.21875 37 9.3081 37 19.2424C37 29.1767 28.9579 37.2188 19.0236 37.2188Z" stroke="#B3C9D0"/>
</g>
<g id="&#60;Group&#62;_3">
<g id="&#60;Group&#62;_4">
<g id="&#60;Group&#62;_5">
<path id="&#60;Compound Path&#62;" fill-rule="evenodd" clip-rule="evenodd" d="M26.8354 19.0215C26.8354 23.2454 23.3965 26.6469 19.1727 26.6469C17.827 26.6469 16.5561 26.3104 15.4721 25.675L11.2109 27.058L12.594 22.9463C11.8838 21.825 11.51 20.4793 11.51 19.0215C11.51 18.9219 11.51 18.8097 11.51 18.6851C11.6969 14.6482 15.0236 11.4336 19.1727 11.4336C23.3217 11.4336 26.7232 14.723 26.8354 18.8346C26.8354 18.9094 26.8354 18.9717 26.8354 19.0215ZM25.6019 19.0215C25.6019 18.872 25.5894 18.71 25.5645 18.5356C25.3028 15.2463 22.5368 12.6297 19.1727 12.6297C15.8086 12.6297 13.0799 15.1715 12.7435 18.4235C12.7185 18.6228 12.7061 18.8222 12.7061 19.0215C12.7061 20.4419 13.1546 21.7128 13.9396 22.7968L13.1547 25.1517L15.6217 24.3667C16.6309 25.0396 17.8644 25.4133 19.1727 25.4133C22.7237 25.4133 25.6019 22.5726 25.6019 19.0215Z" fill="#5C7F8A"/>
</g>
</g>
<g id="&#60;Group&#62;_6">
<path id="&#60;Path&#62;_2" d="M23.0235 20.776C23.0609 20.8508 23.0609 21.2246 22.9114 21.6731C22.7618 22.1217 22.0142 22.5329 21.6405 22.5702C21.304 22.5702 21.304 22.8319 19.3977 22.0843C17.4914 21.3367 16.2953 19.393 16.1831 19.2809C16.1084 19.1687 15.6972 18.6454 15.5103 17.9726C15.4729 17.7857 15.4355 17.5614 15.4355 17.3372C15.4355 16.4401 15.9215 15.9915 16.071 15.8046C16.2579 15.6177 16.4448 15.543 16.5943 15.543C16.7064 15.543 16.8186 15.5804 16.9307 15.5804C17.0428 15.5804 17.1924 15.5056 17.3793 15.8794C17.5288 16.2532 17.9026 17.1876 17.9399 17.2624C17.9773 17.3745 18.0147 17.4867 17.9399 17.5988C17.9026 17.6736 17.8652 17.7483 17.8278 17.8231C17.8029 17.848 17.778 17.8729 17.7531 17.8979C17.6783 18.01 17.5662 18.1595 17.4914 18.2343C17.3793 18.3464 17.3045 18.4212 17.4166 18.6081C17.5288 18.7949 17.9026 19.4304 18.4632 19.9163C19.1734 20.5518 19.7715 20.7387 19.9584 20.8134C20.1453 20.9256 20.2574 20.9256 20.3696 20.776C20.4817 20.6639 20.8555 20.2527 20.9676 20.0658C21.0798 19.8789 21.2293 19.8789 21.3788 19.9537C21.5657 20.0285 22.4628 20.477 22.6871 20.5518C22.874 20.6639 22.9861 20.7013 23.0235 20.776Z" fill="#5C7F8A"/>
</g>
</g>
</g>
</svg>
