<svg width="24" height="25" viewBox="0 0 24 25" fill="none" xmlns="http://www.w3.org/2000/svg">
<g id="location-svgrepo-com 1">
<g id="style=stroke">
<g id="location">
<path id="ellipse (Stroke)" fill-rule="evenodd" clip-rule="evenodd" d="M12 8.46484C11.0335 8.46484 10.25 9.24834 10.25 10.2148C10.25 11.1813 11.0335 11.9648 12 11.9648C12.9665 11.9648 13.75 11.1813 13.75 10.2148C13.75 9.24834 12.9665 8.46484 12 8.46484ZM8.75 10.2148C8.75 8.41991 10.2051 6.96484 12 6.96484C13.7949 6.96484 15.25 8.41991 15.25 10.2148C15.25 12.0097 13.7949 13.4648 12 13.4648C10.2051 13.4648 8.75 12.0097 8.75 10.2148Z" fill="#5C7F8A"/>
<path id="vector (Stroke)" fill-rule="evenodd" clip-rule="evenodd" d="M19.5738 9.379C17.8063 1.49922 6.20322 1.49091 4.42654 9.36937C3.92795 11.592 4.53618 13.6825 5.64605 15.586C6.76034 17.4971 8.34569 19.1591 9.70318 20.4896C9.70348 20.4899 9.70379 20.4902 9.70409 20.4905L9.98845 20.7673C9.98914 20.768 9.98983 20.7687 9.99052 20.7693C10.953 21.6912 11.5458 21.9651 12.0126 21.9597C12.4844 21.9543 13.0843 21.6616 14.0538 20.7175L14.0552 20.7162C15.4249 19.389 17.0791 17.707 18.256 15.7551C19.4282 13.8108 20.0869 11.6658 19.5738 9.379ZM8.94634 21.8462L8.89153 21.7934L8.89059 21.7925C8.81297 21.717 8.7341 21.6401 8.65418 21.5618C7.28264 20.2176 5.57246 18.4378 4.35023 16.3415C3.12338 14.2374 2.35406 11.7547 2.963 9.04065C5.09158 -0.400457 18.9199 -0.389388 21.0374 9.05069C21.6641 11.8439 20.8312 14.3888 19.5405 16.5295C18.2547 18.6623 16.4749 20.4602 15.0994 21.793C14.0958 22.7702 13.1261 23.447 12.0298 23.4596C10.9285 23.4723 9.95486 22.8127 8.95063 21.8504L8.94634 21.8462Z" fill="#5C7F8A"/>
</g>
</g>
</g>
</svg>
