<svg width="37" height="36" viewBox="0 0 37 36" fill="none" xmlns="http://www.w3.org/2000/svg">
<g id="arrow-right-svgrepo-com 2">
<path id="Vector" d="M7.95985 17.055L15.6098 9.27C15.9698 8.91 16.5548 8.91 16.9598 9.27C17.3198 9.63 17.3198 10.215 16.9598 10.62L10.8398 16.74H29.0648C29.5598 16.74 29.9648 17.145 29.9648 17.685C29.9648 18.225 29.5598 18.63 29.0198 18.63H10.7948L16.9598 24.75C17.3198 25.11 17.3198 25.695 16.9598 26.1C16.7798 26.28 16.5548 26.37 16.2848 26.37C16.0598 26.37 15.7898 26.28 15.6098 26.1L7.86985 18.36C7.86985 18.36 7.23985 17.775 7.95985 17.055Z" fill="#182D41"/>
</g>
</svg>
