<svg width="25" height="24" viewBox="0 0 25 24" fill="none" xmlns="http://www.w3.org/2000/svg">
<g id="arrow-right-svgrepo-com 3">
<path id="Vector" d="M19.3428 11.5809L14.2429 6.39094C14.0029 6.15094 13.6129 6.15094 13.3429 6.39094C13.1029 6.63094 13.1029 7.02094 13.3429 7.29094L17.4229 11.3709H5.27285C4.94285 11.3709 4.67285 11.6409 4.67285 12.0009C4.67285 12.3609 4.94285 12.6309 5.30285 12.6309H17.4529L13.3429 16.7109C13.1029 16.9509 13.1029 17.3409 13.3429 17.6109C13.4629 17.7309 13.6129 17.7909 13.7929 17.7909C13.9429 17.7909 14.1229 17.7309 14.2429 17.6109L19.4029 12.4509C19.4029 12.4509 19.8229 12.0609 19.3428 11.5809Z" fill="url(#paint0_linear_1012_3737)"/>
</g>
<defs>
<linearGradient id="paint0_linear_1012_3737" x1="4.67285" y1="6.21094" x2="15.8944" y2="20.6498" gradientUnits="userSpaceOnUse">
<stop stop-color="#2868A3"/>
<stop offset="0.390625" stop-color="#3F91BD"/>
<stop offset="1" stop-color="#61CEE6"/>
</linearGradient>
</defs>
</svg>
