<svg width="25" height="24" viewBox="0 0 25 24" fill="none" xmlns="http://www.w3.org/2000/svg">
<g id="cart-lines-1-svgrepo-com 2">
<path id="Vector" d="M19.2078 23C18.4298 23 17.8114 22.38 17.8114 21.6C17.8114 20.82 18.4298 20.2 19.2078 20.2C19.9858 20.2 20.6042 20.82 20.6042 21.6C20.6042 22.38 19.9658 23 19.2078 23ZM8.03691 23C7.25894 23 6.64055 22.38 6.64055 21.6C6.64055 20.82 7.25894 20.2 8.03691 20.2C8.81489 20.2 9.43327 20.82 9.43327 21.6C9.43327 22.38 8.79494 23 8.03691 23ZM7.81748 19C6.76024 19 5.84263 18.16 5.72294 17.1L4.36648 7.54L3.5885 3.08C3.52866 2.6 3.10975 2.2 2.65095 2.2H1.6336C1.29448 2.2 1.03516 1.94 1.03516 1.6C1.03516 1.26 1.29448 1 1.6336 1H2.65095C3.70819 1 4.64575 1.84 4.78538 2.9L5.56336 7.36L6.91982 16.94C6.95972 17.4 7.37863 17.8 7.81748 17.8H20.7837C21.1228 17.8 21.3821 18.06 21.3821 18.4C21.3821 18.74 21.1228 19 20.7837 19H7.81748ZM8.81489 15.8C8.49572 15.8 8.23639 15.56 8.21645 15.24C8.1965 15.08 8.25634 14.92 8.35608 14.8C8.45582 14.68 8.61541 14.6 8.75504 14.6L19.5868 13.8C20.0656 13.8 20.4845 13.42 20.5443 12.96L21.8011 5.76C21.8409 5.42 21.7412 5.06 21.5417 4.84C21.4021 4.68 21.2226 4.6 21.0031 4.6H7.21904C6.87993 4.6 6.6206 4.34 6.6206 4C6.6206 3.66 6.87993 3.4 7.21904 3.4H21.043C21.6016 3.4 22.1003 3.64 22.4793 4.04C22.8982 4.52 23.0977 5.22 23.0179 5.92L21.7612 13.12C21.6415 14.16 20.7039 14.98 19.6666 14.98L8.89468 15.78C8.85478 15.8 8.83483 15.8 8.81489 15.8Z" fill="url(#paint0_linear_537_18318)"/>
</g>
<defs>
<linearGradient id="paint0_linear_537_18318" x1="1.03516" y1="1" x2="23.0352" y2="23" gradientUnits="userSpaceOnUse">
<stop stop-color="#2868A3"/>
<stop offset="0.390625" stop-color="#3F91BD"/>
<stop offset="1" stop-color="#61CEE6"/>
</linearGradient>
</defs>
</svg>
