<svg width="36" height="37" viewBox="0 0 36 37" fill="none" xmlns="http://www.w3.org/2000/svg">
<g id="boxes-box-svgrepo-com 1" clip-path="url(#clip0_492_14290)">
<g id="Group">
<g id="Group_2">
<g id="Group_3">
<path id="Vector" d="M31.2 6.17966C32.22 6.17966 33 5.39969 33 4.37966V1.97969C33 0.959664 32.22 0.179688 31.2 0.179688H4.8C3.77998 0.179688 3 0.959664 3 1.97969V4.37966C3 5.39969 3.77998 6.17966 4.8 6.17966V16.9797C4.8 17.1917 4.83417 17.3932 4.89675 17.5796H4.8C3.77998 17.5796 3 18.3596 3 19.3796V21.7797C3 22.7997 3.77998 23.5797 4.8 23.5797V34.3797C4.8 35.3997 5.57998 36.1797 6.6 36.1797H29.4C30.42 36.1797 31.2 35.3997 31.2 34.3797V23.5797C32.22 23.5797 33 22.7997 33 21.7797V19.3797C33 18.3597 32.22 17.5797 31.2 17.5797H31.1033C31.1659 17.3932 31.2 17.1918 31.2 16.9797V6.17966H31.2ZM4.19995 4.37966V1.97969C4.19995 1.61969 4.43993 1.37971 4.79993 1.37971H31.2C31.56 1.37971 31.7999 1.61969 31.7999 1.97969V4.37966C31.7999 4.73966 31.56 4.97964 31.2 4.97964H30.6H5.39998H4.8C4.44 4.97971 4.19995 4.73966 4.19995 4.37966ZM30 34.3797C30 34.7397 29.76 34.9797 29.4 34.9797H6.6C6.24 34.9797 6.00002 34.7397 6.00002 34.3797V23.5797H30V34.3797ZM31.8 19.3797V21.7797C31.8 22.1397 31.56 22.3797 31.2 22.3797H30.6H5.39998H4.8C4.44 22.3797 4.20002 22.1397 4.20002 21.7797V19.3797C4.20002 19.0197 4.44 18.7797 4.8 18.7797H6.6H29.4H31.2C31.56 18.7797 31.8 19.0197 31.8 19.3797ZM6.6 17.5797C6.24 17.5797 6.00002 17.3397 6.00002 16.9797V6.17973H30V16.9797C30 17.3397 29.76 17.5797 29.4 17.5797H6.6Z" fill="#5C7F8A"/>
<path id="Vector_2" d="M19.6206 7.37891H16.4406C15.4206 7.37891 14.6406 8.15888 14.6406 9.17891C14.6406 10.1989 15.4206 10.9789 16.4406 10.9789H19.6206C20.5806 10.9789 21.4206 10.1989 21.4206 9.17891C21.4206 8.15888 20.6407 7.37891 19.6206 7.37891ZM19.5607 9.77888H16.3806C16.0206 9.77888 15.7807 9.53891 15.7807 9.17891C15.7807 8.81891 16.0206 8.57893 16.3806 8.57893H19.5607C19.9207 8.57893 20.1606 8.81891 20.1606 9.17891C20.1606 9.53891 19.9207 9.77888 19.5607 9.77888Z" fill="#5C7F8A"/>
<path id="Vector_3" d="M16.4406 28.3812H19.6206C20.5806 28.3812 21.4206 27.6013 21.4206 26.5813C21.4206 25.5612 20.6407 24.7812 19.6206 24.7812H16.4406C15.4206 24.7812 14.6406 25.5612 14.6406 26.5813C14.6406 27.6012 15.4207 28.3812 16.4406 28.3812ZM16.3806 25.9812H19.5607C19.9207 25.9812 20.1606 26.2212 20.1606 26.5812C20.1606 26.9412 19.9207 27.1812 19.5607 27.1812H16.3806C16.0206 27.1812 15.7807 26.9413 15.7807 26.5813C15.7807 26.2213 16.0206 25.9812 16.3806 25.9812Z" fill="#5C7F8A"/>
<path id="Vector_4" d="M10.8031 12.1797H7.8031C7.4431 12.1797 7.20312 12.4197 7.20312 12.7797C7.20312 13.1397 7.4431 13.3796 7.8031 13.3796H10.8031C11.1631 13.3796 11.4031 13.1397 11.4031 12.7797C11.4031 12.4197 11.1631 12.1797 10.8031 12.1797Z" fill="#5C7F8A"/>
<path id="Vector_5" d="M9.6031 14.5781H7.8031C7.4431 14.5781 7.20312 14.8181 7.20312 15.1781C7.20312 15.5381 7.4431 15.7781 7.8031 15.7781H9.6031C9.9631 15.7781 10.2031 15.5381 10.2031 15.1781C10.2031 14.8181 9.9631 14.5781 9.6031 14.5781Z" fill="#5C7F8A"/>
<path id="Vector_6" d="M7.8031 30.7781H10.8031C11.1631 30.7781 11.4031 30.5381 11.4031 30.1781C11.4031 29.8181 11.1631 29.5781 10.8031 29.5781H7.8031C7.4431 29.5781 7.20312 29.8181 7.20312 30.1781C7.20312 30.5381 7.4431 30.7781 7.8031 30.7781Z" fill="#5C7F8A"/>
<path id="Vector_7" d="M7.8031 33.1804H9.6031C9.9631 33.1804 10.2031 32.9404 10.2031 32.5804C10.2031 32.2204 9.9631 31.9805 9.6031 31.9805H7.8031C7.4431 31.9805 7.20312 32.2204 7.20312 32.5804C7.20312 32.9404 7.4431 33.1804 7.8031 33.1804Z" fill="#5C7F8A"/>
</g>
</g>
</g>
</g>
<defs>
<clipPath id="clip0_492_14290">
<rect width="36" height="36" fill="white" transform="translate(0 0.179688)"/>
</clipPath>
</defs>
</svg>
