<svg width="24" height="24" viewBox="0 0 24 24" fill="none" xmlns="http://www.w3.org/2000/svg">
<g id="building-svgrepo-com 2">
<path id="Vector" d="M12.4988 22.0003H4.07875C2.91875 22.0003 1.96875 21.0703 1.96875 19.9303V5.09036C1.96875 2.47036 3.91875 1.28035 6.30875 2.45035L10.7488 4.63036C11.7088 5.10036 12.4988 6.35035 12.4988 7.41035V22.0003Z" stroke="#5C7F8A" stroke-width="1.5" stroke-linecap="round" stroke-linejoin="round"/>
<path id="Vector_2" d="M21.97 15.0619V18.8419C21.97 21.0019 20.97 22.0019 18.81 22.0019H12.5V10.4219L12.97 10.5219L17.47 11.5319L19.5 11.9819C20.82 12.2719 21.9 12.9519 21.96 14.8719C21.97 14.9319 21.97 14.9919 21.97 15.0619Z" stroke="#5C7F8A" stroke-width="1.5" stroke-linecap="round" stroke-linejoin="round"/>
<path id="Vector_3" d="M5.5 9H8.97" stroke="#5C7F8A" stroke-width="1.5" stroke-linecap="round" stroke-linejoin="round"/>
<path id="Vector_4" d="M5.5 13H8.97" stroke="#5C7F8A" stroke-width="1.5" stroke-linecap="round" stroke-linejoin="round"/>
<path id="Vector_5" d="M17.4687 11.5295V14.7495C17.4687 15.9895 16.4588 16.9995 15.2188 16.9995C13.9787 16.9995 12.9688 15.9895 12.9688 14.7495V10.5195L17.4687 11.5295Z" stroke="#5C7F8A" stroke-width="1.5" stroke-linecap="round" stroke-linejoin="round"/>
<path id="Vector_6" d="M21.9587 14.8712C21.8987 16.0512 20.9188 17.0012 19.7188 17.0012C18.4787 17.0012 17.4688 15.9913 17.4688 14.7513V11.5312L19.4988 11.9812C20.8188 12.2712 21.8987 12.9513 21.9587 14.8712Z" stroke="#5C7F8A" stroke-width="1.5" stroke-linecap="round" stroke-linejoin="round"/>
</g>
</svg>
