<svg width="24" height="25" viewBox="0 0 24 25" fill="none" xmlns="http://www.w3.org/2000/svg">
<g id="cake-svgrepo-com 1" clip-path="url(#clip0_194_4863)">
<path id="Vector" d="M12 10.7222V7.48658M12 7.48658C13.1914 7.48658 14.1571 6.52083 14.1571 5.32953C14.1571 4.13822 12.5393 1.55469 12 1.55469C11.4608 1.55469 9.84298 4.13822 9.84298 5.32953C9.84298 6.52083 10.8087 7.48658 12 7.48658ZM20.6282 16.1148L20.1621 16.8095C19.3716 17.9875 17.6242 17.9429 16.8948 16.726L16.8525 16.6554C16.1203 15.4338 14.3501 15.4335 13.6174 16.6548C12.8849 17.8757 11.115 17.8754 10.3825 16.6544C9.64968 15.433 7.87945 15.4327 7.14667 16.654L7.10358 16.7259C6.37203 17.9451 4.61985 17.9868 3.83112 16.8037L3.37183 16.1148M20.6282 22.5859V15.0363C20.6282 12.6537 18.6967 10.7222 16.3141 10.7222H7.68593C5.30331 10.7222 3.37183 12.6537 3.37183 15.0363V22.5859H20.6282Z" stroke="#5C7F8A" stroke-width="1.5" stroke-linecap="round" stroke-linejoin="round"/>
</g>
<defs>
<clipPath id="clip0_194_4863">
<rect width="24" height="24" fill="white" transform="translate(0 0.820312)"/>
</clipPath>
</defs>
</svg>
