<svg width="25" height="25" viewBox="0 0 25 25" fill="none" xmlns="http://www.w3.org/2000/svg">
<g id="call-calling-svgrepo-com 1">
<path id="Vector" d="M22.303 19.1503C22.303 19.5103 22.223 19.8803 22.053 20.2403C21.883 20.6003 21.663 20.9403 21.373 21.2603C20.883 21.8003 20.343 22.1903 19.733 22.4403C19.133 22.6903 18.483 22.8203 17.783 22.8203C16.763 22.8203 15.673 22.5803 14.523 22.0903C13.373 21.6003 12.223 20.9403 11.083 20.1103C9.93301 19.2703 8.84301 18.3403 7.80301 17.3103C6.77301 16.2703 5.84301 15.1803 5.01301 14.0403C4.19301 12.9003 3.53301 11.7603 3.05301 10.6303C2.57301 9.49031 2.33301 8.40031 2.33301 7.36031C2.33301 6.68031 2.45301 6.03031 2.69301 5.43031C2.93301 4.82031 3.31301 4.26031 3.84301 3.76031C4.48301 3.13031 5.18301 2.82031 5.92301 2.82031C6.20301 2.82031 6.48301 2.88031 6.73301 3.00031C6.99301 3.12031 7.22301 3.30031 7.40301 3.56031L9.72301 6.83031C9.90301 7.08031 10.033 7.31031 10.123 7.53031C10.213 7.74031 10.263 7.95031 10.263 8.14031C10.263 8.38031 10.193 8.62031 10.053 8.85031C9.92301 9.08031 9.73301 9.32031 9.49301 9.56031L8.73301 10.3503C8.62301 10.4603 8.57301 10.5903 8.57301 10.7503C8.57301 10.8303 8.58301 10.9003 8.60301 10.9803C8.63301 11.0603 8.66301 11.1203 8.68301 11.1803C8.86301 11.5103 9.17301 11.9403 9.61301 12.4603C10.063 12.9803 10.543 13.5103 11.063 14.0403C11.603 14.5703 12.123 15.0603 12.653 15.5103C13.173 15.9503 13.603 16.2503 13.943 16.4303C13.993 16.4503 14.053 16.4803 14.123 16.5103C14.203 16.5403 14.283 16.5503 14.373 16.5503C14.543 16.5503 14.673 16.4903 14.783 16.3803L15.543 15.6303C15.793 15.3803 16.033 15.1903 16.263 15.0703C16.493 14.9303 16.723 14.8603 16.973 14.8603C17.163 14.8603 17.363 14.9003 17.583 14.9903C17.803 15.0803 18.033 15.2103 18.283 15.3803L21.593 17.7303C21.853 17.9103 22.033 18.1203 22.143 18.3703C22.243 18.6203 22.303 18.8703 22.303 19.1503Z" stroke="#182D41" stroke-miterlimit="10"/>
<path id="Vector_2" d="M18.833 9.82031C18.833 9.22031 18.363 8.30031 17.663 7.55031C17.023 6.86031 16.173 6.32031 15.333 6.32031" stroke="#182D41" stroke-linecap="round" stroke-linejoin="round"/>
<path id="Vector_3" d="M22.333 9.82031C22.333 5.95031 19.203 2.82031 15.333 2.82031" stroke="#182D41" stroke-linecap="round" stroke-linejoin="round"/>
</g>
</svg>
