<svg width="36" height="26" viewBox="0 0 36 26" fill="none" xmlns="http://www.w3.org/2000/svg">
<g id="Group">
<g id="Group_2">
<path id="Vector" d="M36 2.02366V24.1907C36 24.8219 35.4811 25.3408 34.8499 25.3408H1.15003C0.518836 25.3408 0 24.8219 0 24.1907V2.02366C0 1.39247 0.518836 0.878906 1.15003 0.878906H34.8499C35.4811 0.878906 36 1.39247 36 2.02366Z" fill="url(#paint0_linear_1180_5835)"/>
<g id="Group_3" opacity="0.2">
<path id="Vector_2" d="M21.0501 8.13829C20.9722 8.05075 20.9237 7.97298 20.8264 8.01672C20.7292 8.06045 20.7292 8.12366 20.627 8.0459C20.5249 7.96813 20.5686 7.87567 20.3401 7.79305C20.1115 7.71037 20.0629 7.66178 19.8148 7.62775C19.5668 7.59372 19.3869 7.55969 19.3723 7.55969C19.3577 7.55969 19.4258 7.60342 19.3285 7.65208C19.2313 7.70073 19.1535 7.71044 19.0562 7.64723C18.959 7.58401 18.9638 7.56454 18.7985 7.57916C18.6332 7.59379 18.5359 7.63267 18.463 7.64237C18.3901 7.65208 18.463 7.63752 18.3511 7.55969C18.2393 7.48185 18.3171 7.43812 18.1225 7.45267C17.9281 7.4673 17.8454 7.4763 17.7967 7.44986C17.7481 7.42349 17.8064 7.2873 17.6168 7.22894C17.4272 7.17058 17.3882 7.21438 17.291 7.19976C17.1937 7.1852 17.1986 7.16087 16.9214 7.1414C16.6442 7.12192 16.6588 7.16573 16.4691 7.22408C16.2795 7.28244 16.2309 7.28244 16.0558 7.27274C15.8807 7.26304 15.9245 7.36998 15.8175 7.38461C15.7105 7.39916 15.5403 7.29222 15.5208 7.22901C15.5014 7.1658 15.6667 7.09773 15.5208 7.03937C15.3749 6.98101 15.1026 6.86915 15.0491 6.88862C14.9956 6.9081 15.0248 6.99564 14.9275 7.0199C14.8303 7.04423 14.7039 7.04423 14.5531 6.97616C14.4024 6.9081 14.344 6.87442 14.1836 6.88637C14.0231 6.89833 13.9356 6.94698 13.7994 6.95669C13.6632 6.96639 13.5806 6.90803 13.673 6.8643C13.7653 6.82056 13.8821 6.68922 13.8821 6.62601C13.8821 6.5628 13.9501 6.4266 13.7945 6.41205C13.6389 6.39749 13.6097 6.50444 13.4638 6.41205C13.3179 6.31966 13.1283 6.3148 13.0748 6.34398C13.0213 6.37316 13.0213 6.42182 12.9289 6.43637C12.8365 6.45093 12.8706 6.53362 12.7587 6.5628C12.6468 6.59198 12.6614 6.50444 12.4037 6.52876C12.1459 6.55309 11.8979 6.58712 11.8347 6.66004C11.7715 6.73295 11.8493 6.81564 11.7131 6.87885C11.5769 6.94206 11.2657 6.89341 11.2269 6.94691C11.188 7.00042 11.3971 7.1852 11.256 7.26789C11.115 7.35058 11.0274 7.20953 10.7017 7.26789C10.3759 7.32625 10.4147 7.31655 10.2932 7.38946C10.1717 7.46237 10.1473 7.41379 10.0744 7.51588C10.0015 7.61798 9.78264 7.71044 9.63189 7.71044C9.48114 7.71044 9.41793 7.61805 9.22337 7.69588C9.02889 7.77372 9.05807 7.82716 8.75164 7.8029C8.44529 7.77857 8.31887 7.78342 8.26051 7.82237C8.20215 7.86126 8.20215 7.95857 8.0514 8.0023C7.90065 8.04604 7.66721 8.12387 7.60886 8.10932C7.5505 8.09476 7.35116 8.19201 7.21496 8.20656C7.07877 8.22119 7.001 8.21141 6.95727 8.15791C6.91347 8.1044 6.86488 8.01201 6.93294 8.04119C7.001 8.07037 7.05936 8.10925 7.18093 8.1044C7.3025 8.09955 7.4387 8.0023 7.40952 7.9488C7.38034 7.89529 7.40467 7.81752 7.16638 7.75916C6.92809 7.7008 6.826 7.71051 6.64607 7.57923C6.46614 7.44796 6.71413 7.36042 6.24247 7.40901C5.77075 7.45766 5.64432 7.50625 5.45469 7.6473C5.26506 7.78834 5.2261 7.90991 5.03162 8.08007C4.83714 8.2503 4.9052 8.29888 4.66206 8.42045C4.41892 8.54202 4.38003 8.48366 4.30705 8.66844C4.23407 8.85323 4.18548 9.06719 4.33623 9.10614C4.48698 9.14502 4.64258 9.07696 4.72042 9.04778C4.79825 9.0186 4.85661 9.07211 4.86632 9.15965C4.87602 9.24719 4.88087 9.39309 4.97818 9.41249C5.07543 9.43197 5.27968 9.29577 5.26998 9.1548C5.26028 9.01375 5.22625 8.91651 5.32349 8.77546C5.42073 8.63441 5.48394 8.53232 5.58611 8.48366C5.6882 8.43501 5.82925 8.34754 5.77574 8.45933C5.72223 8.5712 5.62499 8.70248 5.69305 8.81434C5.76111 8.92621 5.91671 8.84837 5.95567 8.96024C5.99455 9.07211 5.90216 9.17905 5.87783 9.21801C5.8535 9.25689 5.93619 9.30555 5.82432 9.38338C5.71246 9.46115 5.63954 9.54383 5.51797 9.63623C5.3964 9.72862 5.03654 9.79183 4.95385 9.77242C4.87117 9.75294 4.73504 9.77242 4.72527 9.66055C4.71557 9.54869 4.84684 9.42712 4.71071 9.37361C4.57452 9.3201 4.42377 9.39309 4.38003 9.58272C4.33623 9.77235 4.26817 9.80638 4.15637 9.89877C4.0445 9.99116 4.13689 10.2732 3.81114 10.3267C3.48531 10.3802 3.30053 10.3024 3.32485 10.4191C3.34918 10.5358 3.55344 10.4628 3.55829 10.6574C3.56314 10.8519 3.6118 10.92 3.47075 10.9589C3.32971 10.9978 3.29568 10.9248 3.10604 10.9881C2.91641 11.0513 2.92611 11.2896 2.88723 11.3916C2.84835 11.4937 2.82887 11.5861 2.95529 11.6299C3.08171 11.6737 3.28597 11.7515 3.43672 11.6883C3.58747 11.6251 3.67501 11.6154 3.69449 11.4987C3.71396 11.3819 3.76255 11.309 3.86471 11.2896C3.96681 11.2701 4.03494 11.1534 4.09323 11.0853C4.15159 11.0172 4.09323 11.0416 4.24398 11.0464C4.39473 11.0513 4.53578 10.8908 4.58921 10.9345C4.64272 10.9783 4.80318 11.0707 4.90527 11.168C5.00736 11.2652 5.14841 11.2944 5.12408 11.4403C5.09975 11.5862 5.09005 11.7554 5.18729 11.7121C5.28453 11.6689 5.2505 11.5375 5.31371 11.4743C5.37693 11.4111 5.45961 11.4695 5.44991 11.3576C5.44021 11.2457 5.27483 11.2166 5.18729 11.1145C5.09975 11.0124 5.03169 10.9005 5.13864 10.9345C5.24558 10.9686 5.44984 11.061 5.46932 11.1388C5.48879 11.2166 5.66872 11.3771 5.68813 11.5278C5.7076 11.6786 5.81455 11.8148 5.86321 11.737C5.91186 11.6591 5.86806 11.6008 5.97507 11.5814C6.08202 11.5619 6.04314 11.4841 6.1015 11.3819C6.15986 11.2799 6.32031 11.4306 6.37867 11.2409C6.43703 11.0513 6.30575 10.9859 6.45158 10.8824C6.59748 10.7789 6.66069 10.7109 6.70443 10.8033C6.74816 10.8957 6.86003 10.9929 6.91354 10.8957C6.96704 10.7984 6.81629 10.7692 6.94271 10.6963C7.06914 10.6233 7.181 10.5358 7.14697 10.6622C7.11294 10.7886 7.06428 10.8713 7.15182 10.9589C7.23936 11.0464 7.49706 11.0999 7.35608 11.1777C7.21503 11.2555 7.01085 11.2117 6.82114 11.2944C6.63151 11.3771 6.60233 11.3381 6.55368 11.4938C6.50502 11.6494 6.50017 11.6981 6.66062 11.6981C6.82107 11.6981 6.89406 11.5862 6.93779 11.7272C6.98153 11.8683 6.97182 12.1844 6.90376 12.2135C6.8357 12.2427 6.80652 12.199 6.50502 12.233C6.20352 12.267 6.21807 12.34 5.97493 12.2184C5.73179 12.0968 5.67343 11.9461 5.58589 12.0968C5.49836 12.2476 5.56157 12.3243 5.37193 12.286C5.1823 12.2476 5.31843 12.1649 5.06558 12.1017C4.81274 12.0385 4.76408 12.058 4.76408 11.9461C4.76408 11.8343 4.79811 11.6884 4.59871 11.6738C4.3993 11.6593 4.04921 11.7419 3.76227 11.8246C3.47532 11.9072 3.53368 11.8051 3.203 11.9218C2.87232 12.0385 2.66807 12.0774 2.63403 12.2573C2.6 12.4373 2.48814 12.5394 2.41522 12.6367C2.34231 12.7339 2.30336 13.1619 2.28395 13.4245C2.26447 13.6871 2.33261 13.5655 2.25962 13.76C2.18664 13.9545 2.39089 14.2609 2.47358 14.3435C2.55627 14.4262 2.82374 14.6887 2.99389 14.7082C3.16412 14.7277 3.1495 14.645 3.41211 14.6839C3.67473 14.7228 3.66988 14.572 3.93735 14.6402C4.20482 14.7082 4.30206 14.7569 4.45766 14.8396C4.61326 14.9222 4.62789 14.9903 4.62789 15.1897C4.62789 15.3891 4.63759 15.2384 4.77864 15.5204C4.91968 15.8024 5.16768 16.065 5.02178 16.3082C4.87588 16.5513 4.81267 16.5951 4.90506 16.8236C4.99745 17.0522 5.25521 17.5142 5.28439 17.7476C5.31357 17.9811 5.24066 17.9956 5.26984 18.1367C5.29902 18.2777 5.56164 18.4333 5.79993 18.3361C6.03821 18.2388 6.11113 18.234 6.30568 18.054C6.50017 17.8741 6.69472 18.0103 6.84062 17.6358C6.98652 17.2614 6.93786 17.2176 7.00107 17.0669C7.06429 16.9161 7.44362 16.6973 7.45818 16.425C7.47273 16.1526 7.37549 15.9484 7.40952 15.6858C7.44355 15.4232 7.46788 15.1947 7.72072 14.9856C7.97357 14.7765 8.03193 14.9807 8.207 14.5869C8.38208 14.193 8.59119 14.0957 8.39664 14.1006C8.20208 14.1054 7.82282 14.261 7.66236 14.1735C7.50191 14.086 7.23929 13.6872 7.18579 13.5024C7.13228 13.3176 7.15175 13.41 7.05936 13.1474C6.96697 12.8848 6.87943 12.7487 6.84055 12.6465C6.80167 12.5444 6.77734 12.3645 6.89406 12.5104C7.01078 12.6563 7.12264 12.8751 7.27825 13.2106C7.43385 13.5462 7.52624 13.8039 7.66243 13.8574C7.79863 13.9109 7.84236 13.9742 8.04662 13.8915C8.25088 13.8088 8.32379 13.7991 8.51835 13.6921C8.71283 13.585 8.82955 13.5656 8.9706 13.4246C9.11164 13.2835 9.43255 13.2252 9.07761 13.0891C8.72261 12.9529 8.60103 13.0307 8.49894 12.8751C8.39685 12.7195 8.23147 12.5639 8.38222 12.5882C8.53297 12.6126 8.47461 12.6563 8.64484 12.6903C8.81507 12.7244 8.93664 12.6477 9.02903 12.7711C9.12142 12.8946 9.27702 12.9821 9.42292 12.914C9.56882 12.8459 9.62718 12.807 9.78278 12.8945C9.93838 12.982 9.83628 13.23 10.0697 13.2981C10.3032 13.3662 10.342 13.1133 10.3907 13.4343C10.4394 13.7553 10.5317 14.0519 10.6144 14.1151C10.6971 14.1783 10.5706 14.4701 10.8332 14.3923C11.0958 14.3145 11.1736 14.3242 11.1736 14.0519C11.1736 13.7796 11.1639 13.7115 11.3048 13.6142C11.4459 13.517 11.6404 13.4197 11.7279 13.3176C11.8154 13.2155 11.7619 13.1522 11.937 13.1717C12.1121 13.1912 12.5449 13.6774 12.5254 13.7795C12.5059 13.8816 12.4865 13.9206 12.5691 13.9838C12.6518 14.047 12.647 14.0665 12.7102 14.295C12.7734 14.5236 12.7588 14.4895 12.9582 14.7035C13.1576 14.9175 13.4396 15.0682 13.4153 14.9126C13.3909 14.757 13.2937 14.7764 13.2062 14.5284C13.1186 14.2804 13.0165 14.0567 13.1332 14.12C13.25 14.1832 13.2159 14.2756 13.3375 14.2951C13.4591 14.3145 13.4785 14.1735 13.5709 14.1297C13.6633 14.086 13.8287 13.7309 13.6974 13.5753C13.5661 13.4197 13.4299 13.3127 13.5661 13.2641C13.7023 13.2155 13.639 13.2496 13.7995 13.2787C13.96 13.3079 13.9114 13.23 14.1059 13.1766C14.3004 13.1231 14.5824 13.0356 14.7332 12.8411C14.8839 12.6466 15.0493 12.5882 15.0055 12.3305C14.9618 12.0728 14.9034 11.9609 14.811 11.8928C14.7186 11.8247 14.7138 11.776 14.7964 11.7469C14.8791 11.7177 15.0931 11.7128 14.9715 11.6496C14.8499 11.5864 14.9083 11.6204 14.7672 11.5864C14.6262 11.5524 14.4754 11.6204 14.6019 11.5037C14.7283 11.387 14.8255 11.2898 14.8255 11.2898C14.8255 11.2898 14.7915 11.3141 14.8742 11.4016C14.9569 11.4892 15.0104 11.4503 15.0493 11.4308C15.0881 11.4113 15.2049 11.3287 15.2195 11.4211C15.2341 11.5135 15.0687 11.5816 15.166 11.6156C15.2632 11.6496 15.3508 11.5621 15.3119 11.7372C15.273 11.9122 15.3508 12.0727 15.4334 11.9852C15.5161 11.8976 15.6377 11.6399 15.6134 11.5329C15.589 11.426 15.5064 11.4794 15.6182 11.2849C15.7301 11.0904 15.7301 10.9542 15.8808 10.9786C16.0316 11.0029 16.1775 10.857 16.2358 10.7986C16.2942 10.7403 16.5422 10.6041 16.5811 10.4388C16.62 10.2734 16.6006 10.2491 16.654 10.0594C16.7075 9.8698 16.8242 9.8698 16.6783 9.78226C16.5324 9.69473 16.4206 9.7142 16.3963 9.61689C16.372 9.51965 16.7853 9.04792 16.9653 8.97501C17.1452 8.90209 17.2716 8.93612 17.3932 8.98956C17.5148 9.04307 17.5536 9.09651 17.6655 9.02844C17.7774 8.96038 17.8503 8.92143 17.9135 8.91658C17.9767 8.91173 18.1518 8.78038 18.2247 8.83874C18.2976 8.8971 18.3074 8.96031 18.3949 8.92143C18.4825 8.88255 18.5992 8.67829 18.6381 8.7512C18.677 8.82412 18.6673 8.91166 18.5602 9.0527C18.4532 9.19375 18.3608 9.21808 18.2247 9.32987C18.0885 9.44174 18.0351 9.55846 18.0351 9.66055C18.0351 9.76265 17.9962 10.1031 18.0496 10.108C18.1031 10.1128 18.1177 10.0982 18.2587 9.91832C18.3998 9.73839 18.4727 9.72869 18.5651 9.66055C18.6575 9.59249 18.6915 9.5098 18.7061 9.34935C18.7208 9.1889 18.6186 9.14994 18.7693 9.06733C18.9201 8.98464 19.1 8.8971 19.2508 8.92143C19.4015 8.94576 19.3675 8.94091 19.4794 8.82904C19.5912 8.71717 19.669 8.64426 19.7857 8.65396C19.9024 8.66366 20.0921 8.68799 20.1212 8.62963C20.1504 8.57127 20.1261 8.52269 20.1309 8.44C20.1358 8.35731 20.1261 8.32328 20.238 8.2941C20.3498 8.26492 20.3449 8.22604 20.3984 8.20656C20.4519 8.18709 20.486 8.24544 20.5735 8.27948C20.661 8.31351 20.875 8.31836 20.9237 8.25515C20.9722 8.1918 21.0501 8.13829 21.0501 8.13829Z" fill="#040000"/>
<path id="Vector_3" d="M16.7807 10.7826C16.8443 10.806 16.9655 10.9041 17.0385 10.8993C17.1114 10.8944 17.1504 10.9917 17.092 11.0014C17.0337 11.0111 16.8392 11.1035 16.8392 11.1035C16.8392 11.1035 16.7808 11.0306 16.7468 11.1035C16.7128 11.1764 16.6933 11.2299 16.7031 11.2737C16.7128 11.3174 16.7809 11.4439 16.7419 11.5071C16.7031 11.5703 16.6495 11.6044 16.6495 11.6822C16.6495 11.76 16.6982 11.8427 16.6301 11.8767C16.562 11.9107 16.4939 11.9205 16.4356 11.9399C16.3772 11.9594 16.3335 11.9642 16.3092 12.0177C16.2848 12.0712 16.2265 12.149 16.1049 12.1442C15.9833 12.1393 15.9833 12.0421 15.8715 12.1345C15.7596 12.2269 15.7547 12.2804 15.6964 12.256C15.638 12.2317 15.6818 12.1977 15.6964 12.1053C15.7109 12.0129 15.497 12.0372 15.6915 11.9302C15.886 11.8232 15.886 11.8086 16.0174 11.7892C16.1486 11.7697 16.2216 11.8329 16.2751 11.7211C16.3286 11.6092 16.2751 11.5655 16.3821 11.5606C16.4891 11.5558 16.5572 11.6044 16.5766 11.4828C16.596 11.3612 16.5814 11.2591 16.5766 11.1813C16.5717 11.1035 16.5425 11.0306 16.6301 11.0014C16.7176 10.9722 16.7273 11.0257 16.7371 10.9576C16.7467 10.8895 16.6884 10.7485 16.7807 10.7826Z" fill="#040000"/>
<path id="Vector_4" d="M14.8254 13.418C14.9178 13.4326 14.9615 13.5979 14.9324 13.666C14.9033 13.734 14.8741 13.8119 14.9568 13.8264C15.0395 13.841 15.0978 13.8507 15.0978 13.9091C15.0978 13.9675 15.1318 13.8459 15.1951 14.0015C15.2583 14.1571 15.1999 14.1814 15.2729 14.2981C15.3458 14.4149 15.4333 14.4732 15.3313 14.5316C15.2292 14.5899 15.3069 14.6531 15.2 14.6191C15.093 14.5851 15.1368 14.6045 15.0833 14.5024C15.0298 14.4003 14.9957 14.4829 14.9471 14.4781C14.8985 14.4732 14.8839 14.4732 14.9228 14.4052C14.9617 14.3371 14.9812 14.3419 14.9374 14.2641C14.8937 14.1863 14.9618 14.0939 14.8986 14.0793C14.8353 14.0648 14.8159 14.1717 14.7041 14.2398C14.5922 14.3078 14.4269 14.3273 14.4317 14.303C14.4366 14.2787 14.4998 14.2446 14.602 14.1182C14.7041 13.9918 14.7673 14.0696 14.7479 13.8751C14.7284 13.6806 14.6603 13.734 14.7235 13.5979C14.7865 13.4618 14.8254 13.418 14.8254 13.418Z" fill="#040000"/>
<path id="Vector_5" d="M14.5155 14.5232C14.5891 14.5968 14.6857 14.5767 14.6565 14.6496C14.6273 14.7225 14.5407 14.7323 14.5889 14.8052C14.637 14.8782 14.6808 14.9851 14.744 14.9754C14.8072 14.9657 14.8024 14.917 14.958 14.917C15.1136 14.917 15.2108 14.883 15.2206 14.9462C15.2303 15.0094 15.1526 15.0143 15.0504 15.1067C14.9483 15.1991 14.8461 15.2915 14.9288 15.3498C15.0115 15.4082 15.0455 15.5152 15.0164 15.5541C14.9872 15.593 14.958 15.6319 15.0261 15.6805C15.0941 15.7292 15.42 15.7145 15.3421 15.8312C15.2643 15.948 15.0746 16.0112 14.8752 16.016C14.6758 16.0209 14.8361 15.9625 14.4326 15.9236C14.0291 15.8848 13.961 15.9869 13.679 15.8507C13.397 15.7145 13.2121 15.8312 13.0565 15.5833C12.9009 15.3353 12.9641 15.4568 12.7696 15.1991C12.5751 14.9414 12.6675 14.9414 12.5021 14.8392C12.3367 14.7371 12.1958 14.5912 12.3076 14.5912C12.4195 14.5912 12.366 14.4599 12.7112 14.7468C13.0565 15.0337 12.9641 15.0191 13.217 15.1894C13.4698 15.3596 13.5525 15.379 13.6449 15.3596C13.7373 15.3401 13.8735 15.3596 13.786 15.2477C13.6984 15.1359 13.6498 14.9949 13.7227 14.9706C13.7957 14.9462 13.7908 15.0678 13.9124 14.9365C14.034 14.8052 14.034 14.7711 14.141 14.7274C14.248 14.6837 14.1896 14.7274 14.2917 14.6642C14.3939 14.601 14.4328 14.4405 14.5155 14.5232Z" fill="#040000"/>
<path id="Vector_6" d="M15.8525 15.0855C15.9054 15.1535 15.9936 15.2411 16.0325 15.3141C16.0714 15.387 16.1443 15.2523 16.2853 15.2564C16.4264 15.2606 16.6355 15.3383 16.723 15.3773C16.8105 15.4162 16.9613 15.4405 17.0537 15.5669C17.1461 15.6933 17.2141 15.6204 17.2191 15.7468C17.2239 15.8733 17.2434 15.8587 17.326 15.9316C17.4087 16.0045 17.4233 16.1407 17.2774 16.0824C17.1315 16.024 17.0877 15.8247 16.9321 15.8441C16.7765 15.8636 16.8397 15.9073 16.7182 15.9316C16.5966 15.9559 16.5431 15.9121 16.3972 15.9024C16.2513 15.8927 16.1443 15.9413 16.2124 15.81C16.2805 15.6788 16.3291 15.6739 16.0908 15.5766C15.8525 15.4794 15.7602 15.528 15.7602 15.4259C15.7602 15.3238 15.799 15.314 15.7066 15.2265C15.6143 15.1389 15.5851 15.0757 15.6434 15.0319C15.7018 14.9882 15.8185 15.0417 15.8525 15.0855Z" fill="#040000"/>
<path id="Vector_7" d="M16.1335 16.489C16.2939 16.5717 16.3572 16.737 16.435 16.7078C16.5128 16.6786 16.4836 16.63 16.5419 16.4549C16.6003 16.2799 16.6051 16.0999 16.6781 16.1729C16.751 16.2458 16.683 16.3882 16.7997 16.4338C16.9164 16.4793 16.9407 16.5134 16.9651 16.6495C16.9894 16.7857 17.0137 16.7419 17.1353 16.8829C17.2569 17.024 17.3661 16.9997 17.3868 17.1601C17.4076 17.3206 17.6119 17.4859 17.6216 17.6512C17.6313 17.8166 17.6605 17.9333 17.5389 18.1424C17.4173 18.3515 17.3687 18.4584 17.3298 18.546C17.2909 18.6336 17.1742 18.6773 17.0478 18.6773C16.9213 18.6773 16.8484 18.6238 16.7706 18.6433C16.6928 18.6628 16.6393 18.76 16.5469 18.6919C16.4545 18.6239 16.401 18.5363 16.3719 18.4828C16.3427 18.4293 16.3281 18.2494 16.1919 18.2689C16.0558 18.2883 16.0752 18.3564 15.9925 18.2689C15.9098 18.1813 15.9682 18.1084 15.725 18.0695C15.4819 18.0306 15.4187 18.0111 15.3165 18.0354C15.2144 18.0598 15.1074 18.0938 14.9956 18.1813C14.8837 18.2689 14.7086 18.2251 14.6114 18.2689C14.5141 18.3126 14.3682 18.4099 14.2612 18.3516C14.1542 18.2932 14.1931 18.264 14.198 18.1279C14.2028 17.9917 14.1931 18.0842 14.1251 17.8507C14.057 17.6173 14.0862 17.6513 14.023 17.5395C13.9598 17.4276 13.9111 17.4812 13.9987 17.3207C14.0862 17.1602 14.057 17.1262 14.1056 17.0727C14.1543 17.0192 14.198 17.0873 14.3634 16.9755C14.5287 16.8636 14.5773 16.9123 14.7281 16.8539C14.8788 16.7955 14.9129 16.5719 15.0053 16.5037C15.0976 16.4357 15.122 16.3822 15.19 16.3822C15.2581 16.3822 15.3359 16.4211 15.4575 16.4697C15.5791 16.5184 15.5547 16.5232 15.6569 16.4114C15.759 16.2995 15.6569 16.1925 15.8417 16.2119C16.0265 16.2314 16.0945 16.2022 16.1189 16.3092C16.1432 16.4161 16.1335 16.489 16.1335 16.489Z" fill="#040000"/>
<path id="Vector_8" d="M19.5083 18.7826C19.6055 18.6562 19.6542 18.6415 19.6201 18.4956C19.5861 18.3497 19.5958 18.2353 19.7222 18.3655C19.8487 18.4956 19.9897 18.5686 20.0869 18.5735C20.1842 18.5783 20.4176 18.6513 20.1793 18.8312C19.941 19.0112 19.9849 18.8847 19.7951 19.1522C19.6055 19.4197 19.7514 19.4245 19.5228 19.5558C19.2942 19.6871 19.0414 19.7454 19.0901 19.6288C19.1387 19.5121 19.1144 19.5121 19.3235 19.3565C19.5326 19.2009 19.6687 19.0841 19.6687 18.9529C19.6687 18.8215 19.5083 18.7826 19.5083 18.7826Z" fill="#040000"/>
<path id="Vector_9" d="M7.89581 17.4713C7.80827 17.3448 7.80827 17.3059 7.79857 17.1017C7.78887 16.8975 7.72074 16.8002 7.79857 16.6835C7.87641 16.5668 8.0806 16.3723 8.15843 16.2361C8.23627 16.1 8.25567 15.8082 8.30433 16.0707C8.35299 16.3333 8.50859 16.4889 8.27515 16.8391C8.04171 17.1892 7.89581 17.4713 7.89581 17.4713Z" fill="#040000"/>
<path id="Vector_10" d="M3.21903 10.2326C3.19956 10.1937 3.2871 10.0673 3.2871 10.0673C3.2871 10.0673 3.39411 10.0089 3.36493 9.79493C3.33575 9.58097 3.31628 9.7074 3.23851 9.50314C3.16068 9.29888 3.04403 9.33776 3.16068 9.20164C3.27739 9.06544 3.41352 8.86126 3.4427 9.02656C3.47188 9.19186 3.40382 9.29888 3.47188 9.37672C3.53994 9.45455 3.67614 9.47058 3.7539 9.59869C3.83174 9.7268 4.14294 9.77546 3.9095 9.94076C3.67607 10.1061 3.56912 9.99912 3.48158 10.1158C3.39404 10.2326 3.21903 10.2326 3.21903 10.2326Z" fill="#040000"/>
<path id="Vector_11" d="M2.90636 10.0767C3.06196 9.98915 3.11884 10.0086 3.10984 9.85295C3.10084 9.69735 3.20786 9.56116 3.04248 9.55145C2.87718 9.54175 2.82852 9.63899 2.80905 9.70706C2.78957 9.77512 2.78957 9.7946 2.83822 9.86266C2.88688 9.93072 2.89658 10.028 2.87711 10.0766C2.85777 10.1253 2.90636 10.0767 2.90636 10.0767Z" fill="#040000"/>
<path id="Vector_12" d="M2.34286 8.5609C2.46929 8.47336 2.67354 8.5512 2.68325 8.36635C2.69295 8.18156 2.74161 8.13291 2.45958 8.1135C2.17756 8.09403 2.17756 8.09403 2.00248 8.1135C1.8274 8.13298 1.6621 7.9579 1.79822 8.22052C1.93435 8.48313 1.95382 8.54149 2.06084 8.5609C2.16786 8.58031 2.34286 8.5609 2.34286 8.5609Z" fill="#040000"/>
<path id="Vector_13" d="M21.9219 7.86291C21.7701 7.68938 21.5232 7.67813 21.7177 7.57112C21.9121 7.46417 22.0289 7.39604 22.2137 7.35716C22.3985 7.31827 22.593 7.39604 22.8945 7.47387C23.196 7.55171 23.6823 7.48358 23.9061 7.55171C24.1297 7.61977 24.2367 7.75597 24.3048 7.7462C24.3729 7.73649 24.5674 7.53223 24.7619 7.53223C24.9564 7.53223 25.0537 7.50305 25.4524 7.55171C25.8512 7.60037 26.2402 7.61977 26.2499 7.71709C26.2596 7.81433 26.2596 7.86298 26.4055 7.86298C26.5514 7.86298 26.6778 7.77545 26.7654 7.91164C26.8529 8.04784 26.9891 8.14508 26.9696 8.03806C26.9502 7.93112 26.8529 7.84358 26.9308 7.80462C27.0086 7.76574 27.2323 7.74627 27.2906 7.76574C27.349 7.78522 27.5338 7.8144 27.5921 7.80462C27.6505 7.79492 27.6116 7.69761 27.8061 7.75597C28.0006 7.81433 28.0297 7.96023 28.0687 7.96993C28.1076 7.97963 28.1951 7.82038 28.2048 7.71526C28.2145 7.61007 28.3021 7.61007 28.1271 7.47395C27.952 7.33775 28.1101 7.17245 28.2353 7.23081C28.3604 7.28916 28.2827 7.367 28.4091 7.49342C28.5355 7.61984 28.555 7.72686 28.6425 7.68791C28.7301 7.64902 28.6814 7.48365 28.7981 7.61007C28.9148 7.73649 28.944 7.67279 29.051 7.65113C29.158 7.62948 29.0704 7.56141 29.1969 7.62948C29.3233 7.69754 29.5372 7.77538 29.3816 7.9018C29.226 8.02822 28.9926 8.00881 28.8273 8.10605C28.6619 8.2033 28.7106 8.17412 28.6619 8.29084C28.6133 8.40755 28.6327 8.41726 28.4383 8.46591C28.2437 8.51457 28.1854 8.47562 28.1951 8.64099C28.2048 8.80637 28.1854 8.82577 28.1173 8.91331C28.0492 9.00085 28.0881 9.07869 28.1659 9.11757C28.2438 9.15645 28.3312 9.08839 28.3312 9.20511C28.3312 9.32183 28.4771 9.40937 28.6716 9.40937C28.8661 9.40937 28.9537 9.45802 29.0704 9.60385C29.1871 9.74975 29.0217 9.75945 29.2163 9.94423C29.4108 10.129 29.5956 10.2166 29.6248 10.0512C29.654 9.88594 29.6248 9.84699 29.654 9.65251C29.6831 9.45802 29.8679 9.43855 29.7707 9.26347C29.6734 9.08839 29.5275 9.01062 29.6637 8.91331C29.7999 8.81607 29.6345 8.72621 29.8679 8.67875C30.1014 8.63129 30.257 8.59234 30.3542 8.76741C30.4514 8.94249 30.3445 9.05921 30.4417 9.13698C30.539 9.21481 30.8405 9.09809 30.8988 9.03003C30.9572 8.96197 31.1225 8.97167 31.1809 9.22452C31.2392 9.47736 31.2781 9.54549 31.3657 9.57467C31.4532 9.60385 31.4532 9.66221 31.5602 9.75945C31.6672 9.8567 31.8714 10.0123 31.5602 10.0415C31.249 10.0707 30.9961 10.0318 30.8794 10.1387C30.7627 10.2457 30.753 10.1679 30.8307 10.3138C30.9086 10.4597 30.8502 10.3625 30.9086 10.5472C30.9669 10.732 31.2587 10.732 31.0447 10.8584C30.8306 10.9849 30.8696 11.014 30.7432 10.9752C30.6168 10.9363 30.5876 10.657 30.4417 10.8842C30.2958 11.1114 30.3153 11.1989 30.1888 11.267C30.0624 11.335 30.0526 11.1989 29.936 11.4129C29.8193 11.6268 30.0041 11.6463 29.7415 11.8894C29.4789 12.1326 29.3525 12.0159 29.333 12.2201C29.3135 12.4244 29.44 12.6675 29.3719 12.7162C29.3038 12.7648 29.3135 12.755 29.2357 12.6189C29.1579 12.4827 29.1969 12.405 28.9245 12.3855C28.6522 12.366 28.6717 12.2979 28.5647 12.4147C28.4577 12.5314 28.6036 12.5703 28.3021 12.5314C28.0006 12.4925 27.9617 12.1326 27.9033 12.5509C27.845 12.9691 27.8353 13.0177 27.9325 13.1344C28.0297 13.2511 28.2924 13.5331 28.4091 13.4067C28.5258 13.2803 28.3799 13.1247 28.6036 13.1733C28.8273 13.2219 28.8857 13.1636 28.8468 13.29C28.8079 13.4164 28.5064 13.4359 28.7495 13.5526C28.9927 13.6693 29.1969 13.5331 29.2163 13.718C29.2358 13.9028 29.1872 13.9514 29.1969 14.0584C29.2066 14.1653 29.2552 14.2431 29.4789 14.2431C29.7026 14.2431 29.6928 14.1556 29.7512 14.2723C29.8096 14.389 29.9943 14.3307 30.0722 14.1653C30.15 13.9999 30.2084 13.8151 30.325 14.0097C30.4417 14.2042 30.4612 14.2431 30.5779 14.1653C30.6946 14.0875 30.6946 14.0875 30.6946 14.0875C30.6946 14.0875 30.821 13.9707 30.928 14.068C31.035 14.1652 31.2101 14.0583 31.249 14.1944C31.2879 14.3305 31.2295 14.35 31.3949 14.3987C31.5603 14.4473 31.7548 14.3695 31.852 14.5056C31.9492 14.6418 31.6866 14.5543 31.9687 14.7196C32.2507 14.885 32.3383 14.9044 32.3189 15.0114C32.2994 15.1184 32.3772 15.1378 32.6301 15.1962C32.8829 15.2545 32.844 15.2253 33.0483 15.3809C33.2526 15.5365 33.4179 15.4685 33.486 15.5463C33.5541 15.6241 33.6708 15.6436 33.5735 15.8575C33.4763 16.0715 33.3791 16.0229 33.3012 16.1882C33.2234 16.3536 33.1553 16.3925 33.1748 16.6842C33.1943 16.976 33.204 16.9469 33.1456 17.0928C33.0873 17.2387 32.8733 17.2581 32.6982 17.3651C32.5231 17.4721 32.5134 17.3846 32.3967 17.6763C32.28 17.9681 32.3481 17.8125 32.2508 18.0653C32.1536 18.3182 32.2897 18.1917 32.0077 18.3376C31.7257 18.4835 31.6186 18.3571 31.5895 18.4447C31.5603 18.5322 31.7548 18.4641 31.5506 18.6489C31.3463 18.8337 31.2588 18.8824 31.1324 18.9601C31.0059 19.0379 30.9281 19.1255 30.9573 19.2908C30.9865 19.4561 31.1324 19.4464 30.967 19.602C30.8016 19.7576 30.7335 19.602 30.685 19.8549C30.6363 20.1077 30.5877 19.991 30.6363 20.2536C30.685 20.5162 30.9378 20.5162 30.7044 20.6621C30.4709 20.808 30.2181 20.8761 30.0722 20.526C29.9263 20.1758 29.9263 20.0397 29.9263 19.8063C29.9263 19.5728 29.8971 19.7479 30.0138 19.3492C30.1305 18.9504 29.936 19.0865 30.0333 18.6489C30.1305 18.2112 30.1111 17.7444 30.2084 17.4234C30.3056 17.1025 30.5196 17.19 30.3056 16.8983C30.0917 16.6065 30.0528 16.6551 29.868 16.4606C29.6832 16.2661 29.7999 16.305 29.6929 16.0715C29.5859 15.8381 29.5178 15.8576 29.4303 15.6825C29.3428 15.5074 29.2941 15.5658 29.3816 15.2741C29.4692 14.9823 29.2747 14.992 29.4692 14.9045C29.6637 14.817 29.6346 14.603 29.6054 14.5252C29.5762 14.4473 29.7513 14.4181 29.479 14.3793C29.2066 14.3404 29.1288 14.4279 29.0316 14.2625C28.9343 14.0972 29.0121 14.0681 28.8079 13.9707C28.6036 13.8735 28.38 13.8735 28.3021 13.7957C28.2243 13.7178 28.2243 13.7178 28.2243 13.7178C28.2243 13.7178 28.3702 13.6595 28.0395 13.6206C27.7088 13.5817 27.4657 13.6206 27.3003 13.3872C27.135 13.1537 27.1739 13.2899 27.135 13.076C27.0961 12.862 27.0474 12.862 26.8918 12.7258C26.7362 12.5897 26.7362 12.5118 26.5903 12.4535C26.4444 12.3951 26.4152 12.4146 26.4152 12.4438C26.4152 12.473 26.4055 12.5897 26.5417 12.6966C26.6778 12.8036 26.6876 12.9009 26.6876 12.9495C26.6876 12.9981 26.5028 13.0565 26.5028 13.0565C26.5028 13.0565 26.5028 12.9981 26.4444 12.862C26.3861 12.7258 26.3666 12.6577 26.2499 12.4924C26.1331 12.3271 26.104 12.3076 26.104 12.3076C26.104 12.3076 25.9678 12.0937 25.7344 11.8117C25.501 11.5296 25.4329 11.7046 25.4329 11.3837C25.4329 11.0628 25.4913 11.0628 25.4329 10.8391C25.3745 10.6154 25.2384 10.5084 25.3551 10.4695C25.4718 10.4307 25.5398 10.3723 25.3259 10.1875C25.1119 10.0027 25.0341 10.1 24.9563 9.84713C24.8785 9.59429 25.0439 9.6137 24.7229 9.49698C24.4019 9.38026 24.363 9.28302 24.2171 9.21495C24.0712 9.14689 23.9837 9.10801 23.9837 9.10801C23.9837 9.10801 24.0129 9.07883 23.6627 9.04965C23.3126 9.02047 23.3515 8.85516 23.0889 8.96211C22.8263 9.06912 22.7874 9.08853 22.7874 9.08853C22.7874 9.08853 22.9333 8.91345 22.6804 8.93293C22.4276 8.95241 22.4859 9.01077 22.4762 9.12748C22.4665 9.2442 22.5054 9.38033 22.3303 9.44846C22.1552 9.51652 21.9024 9.7013 21.9996 9.50682C22.0968 9.31227 22.34 9.17614 22.2525 9.12748C22.1649 9.07883 21.9801 9.23443 21.9607 9.07883C21.9412 8.92323 21.9801 8.84539 21.7759 8.83569C21.5716 8.82598 21.4063 8.73845 21.5619 8.67031C21.7175 8.60225 21.8634 8.63143 21.9121 8.46605C21.9607 8.30068 22.3206 8.2618 21.9218 8.27157C21.523 8.28127 21.348 8.28127 21.3966 8.20351C21.4453 8.12567 21.4258 7.97984 21.7078 8.01873C21.99 8.0574 21.99 7.94068 21.9219 7.86291Z" fill="#040000"/>
</g>
</g>
<path id="Vector_14" opacity="0.2" d="M35.9997 2.02366V24.1907C35.9997 24.8219 35.4808 25.3408 34.8496 25.3408H5.77148L11.4951 19.6172L11.6823 19.4299L11.8963 19.2161L12.0407 19.0716L15.0202 16.0921L15.1753 15.937V15.9316L15.2769 15.8353L15.2876 15.8246L15.7423 15.3646L15.8867 15.2255L16.6998 14.4124L17.1492 13.9631L21.9581 9.1542L23.5039 7.60837L30.1369 0.969961L30.2279 0.878906H34.8496C35.4808 0.878906 35.9997 1.3924 35.9997 2.02366Z" fill="#182D41"/>
<g id="Group_4">
<g id="Group_5">
<path id="Vector_15" d="M32.8353 10.3966V14.3221C32.8353 14.4801 32.7061 14.6093 32.5481 14.6093H27.713C27.555 14.6093 27.4258 14.4801 27.4258 14.3221V10.3966C27.4258 10.2386 27.555 10.1094 27.713 10.1094H32.5481C32.706 10.1093 32.8353 10.2386 32.8353 10.3966Z" fill="#F7D072"/>
</g>
<path id="Vector_16" opacity="0.2" d="M31.7731 11.0598L32.6142 10.2188H32.3412L31.6172 10.9484L31.5058 11.0598L31.4223 11.1378L30.8486 11.7115H29.601L29.4896 11.6L29.0273 11.1378L28.8435 10.9484L28.1139 10.2188H27.841L28.565 10.9484L28.6764 11.0598H27.5235V11.2491H28.8713L29.2278 11.6112L29.3225 11.7115V11.9342H27.5234V12.1291H29.3225V12.8142H27.5234V13.0035H29.3225V13.2318H29.3336L28.9827 13.5772L28.8713 13.6887H27.5234V13.8836H28.6764L27.9523 14.6077H28.2252L28.9493 13.8836L29.601 13.232H30.8485L32.2299 14.6078H32.4972L31.7731 13.8837H32.8369V13.6887H31.5837L31.127 13.232V13.0037H32.837V12.8144H31.127V12.1293H32.837V11.9344H31.127V11.7117L31.5837 11.2493H32.8369V11.06H31.7731V11.0598ZM30.9377 13.037H29.5119V11.9009H30.9377V13.037Z" fill="white"/>
<g id="Group_6">
<g id="Group_7">
<path id="Vector_17" d="M29.507 11.6016L29.6964 11.7909H30.5653L30.6432 11.713L30.7547 11.6016H29.507ZM29.507 11.6016L29.6964 11.7909H30.5653L30.6432 11.713L30.7547 11.6016H29.507ZM29.507 11.6016L29.6964 11.7909H30.5653L30.6432 11.713L30.7547 11.6016H29.507ZM29.507 11.6016L29.6964 11.7909H30.5653L30.6432 11.713L30.7547 11.6016H29.507ZM30.6766 13.0386L30.5653 12.9272H29.6964L29.5906 13.0386H29.5851L29.5071 13.1221H30.7547L30.6766 13.0386ZM29.507 11.6016L29.6964 11.7909H30.5653L30.6432 11.713L30.7547 11.6016H29.507ZM29.2285 11.6016V13.1221H31.0331V11.6016H29.2285ZM30.8437 12.9272H29.4178V11.791H30.8437V12.9272ZM29.507 11.6016L29.6964 11.7909H30.5653L30.6432 11.713L30.7547 11.6016H29.507ZM29.507 11.6016L29.6964 11.7909H30.5653L30.6432 11.713L30.7547 11.6016H29.507ZM29.507 11.6016L29.6964 11.7909H30.5653L30.6432 11.713L30.7547 11.6016H29.507ZM29.507 11.6016L29.6964 11.7909H30.5653L30.6432 11.713L30.7547 11.6016H29.507ZM29.507 11.6016L29.6964 11.7909H30.5653L30.6432 11.713L30.7547 11.6016H29.507ZM29.507 11.6016L29.6964 11.7909H30.5653L30.6432 11.713L30.7547 11.6016H29.507Z" fill="#D5AD4F"/>
</g>
<g id="Group_8">
<g id="Group_9">
<path id="Vector_18" d="M28.8535 10.9492L29.0451 11.1407H27.4258V10.9492H28.8535Z" fill="#D5AD4F"/>
<path id="Vector_19" d="M32.8361 10.9492V11.1407H31.2168L31.4082 10.9492H32.8361Z" fill="#D5AD4F"/>
</g>
<g id="Group_10">
<path id="Vector_20" d="M29.4184 11.8281H27.4258V12.0196H29.4184V11.8281Z" fill="#D5AD4F"/>
<path id="Vector_21" d="M32.8345 11.8281H30.8418V12.0196H32.8345V11.8281Z" fill="#D5AD4F"/>
</g>
<g id="Group_11">
<path id="Vector_22" d="M29.4184 12.7031H27.4258V12.8946H29.4184V12.7031Z" fill="#D5AD4F"/>
<path id="Vector_23" d="M32.8345 12.7031H30.8418V12.8946H32.8345V12.7031Z" fill="#D5AD4F"/>
</g>
<g id="Group_12">
<path id="Vector_24" d="M29.0453 13.582L28.8538 13.7736H27.4258V13.582H29.0453Z" fill="#D5AD4F"/>
<path id="Vector_25" d="M32.8363 13.582V13.7736H31.4082L31.2168 13.582H32.8363Z" fill="#D5AD4F"/>
</g>
</g>
<g id="Group_13">
<path id="Vector_26" d="M29.6983 12.9297L28.0168 14.6112H27.7461L29.4276 12.9297H29.6983Z" fill="#D5AD4F"/>
<path id="Vector_27" d="M32.5166 10.1094L30.8351 11.7909H30.5645L32.246 10.1094H32.5166Z" fill="#D5AD4F"/>
</g>
<g id="Group_14">
<path id="Vector_28" d="M29.6964 11.7909H29.4257L27.7441 10.1094H28.0149L29.6964 11.7909Z" fill="#D5AD4F"/>
<path id="Vector_29" d="M32.5147 14.6112H32.244L30.754 13.1212L30.6743 13.0415L30.5625 12.9297H30.8332L30.9373 13.0338L31.0248 13.1212L31.1289 13.2253L31.4855 13.5819L31.5973 13.6937L31.677 13.7734L31.7888 13.8852L32.5147 14.6112Z" fill="#D5AD4F"/>
</g>
</g>
</g>
</g>
<defs>
<linearGradient id="paint0_linear_1180_5835" x1="0" y1="0.878906" x2="22.7428" y2="34.349" gradientUnits="userSpaceOnUse">
<stop stop-color="#2868A3"/>
<stop offset="0.390625" stop-color="#3F91BD"/>
<stop offset="1" stop-color="#61CEE6"/>
</linearGradient>
</defs>
</svg>
