<svg width="24" height="25" viewBox="0 0 24 25" fill="none" xmlns="http://www.w3.org/2000/svg">
<g id="cart-lines-1-svgrepo-com 1">
<path id="Vector" d="M19.1727 23.8242C18.3947 23.8242 17.7763 23.2042 17.7763 22.4242C17.7763 21.6442 18.3947 21.0242 19.1727 21.0242C19.9506 21.0242 20.569 21.6442 20.569 22.4242C20.569 23.2042 19.9307 23.8242 19.1727 23.8242ZM8.00176 23.8242C7.22378 23.8242 6.60539 23.2042 6.60539 22.4242C6.60539 21.6442 7.22378 21.0242 8.00176 21.0242C8.77973 21.0242 9.39812 21.6442 9.39812 22.4242C9.39812 23.2042 8.75978 23.8242 8.00176 23.8242ZM7.78233 19.8242C6.72508 19.8242 5.80747 18.9842 5.68779 17.9242L4.33132 8.36422L3.55335 3.90422C3.4935 3.42422 3.07459 3.02422 2.61579 3.02422H1.59844C1.25932 3.02422 1 2.76422 1 2.42422C1 2.08422 1.25932 1.82422 1.59844 1.82422H2.61579C3.67304 1.82422 4.61059 2.66422 4.75023 3.72422L5.5282 8.18422L6.88467 17.7642C6.92456 18.2242 7.34347 18.6242 7.78233 18.6242H20.7485C21.0877 18.6242 21.347 18.8842 21.347 19.2242C21.347 19.5642 21.0877 19.8242 20.7485 19.8242H7.78233ZM8.77973 16.6242C8.46056 16.6242 8.20124 16.3842 8.18129 16.0642C8.16134 15.9042 8.22119 15.7442 8.32093 15.6242C8.42067 15.5042 8.58025 15.4242 8.71989 15.4242L19.5517 14.6242C20.0304 14.6242 20.4493 14.2442 20.5092 13.7842L21.7659 6.58422C21.8058 6.24422 21.7061 5.88422 21.5066 5.66422C21.3669 5.50422 21.1874 5.42422 20.968 5.42422H7.18389C6.84477 5.42422 6.58545 5.16422 6.58545 4.82422C6.58545 4.48422 6.84477 4.22422 7.18389 4.22422H21.0079C21.5664 4.22422 22.0651 4.46422 22.4441 4.86422C22.863 5.34422 23.0625 6.04422 22.9827 6.74422L21.726 13.9442C21.6063 14.9842 20.6688 15.8042 19.6315 15.8042L8.85952 16.6042C8.81963 16.6242 8.79968 16.6242 8.77973 16.6242Z" fill="#5C7F8A"/>
</g>
</svg>
