<svg width="36" height="37" viewBox="0 0 36 37" fill="none" xmlns="http://www.w3.org/2000/svg">
<g id="cash-money-svgrepo-com 1">
<path id="Vector" d="M23.3329 20.6523H15.8965C14.8253 20.6523 13.9488 21.5249 13.9488 22.6C13.9488 23.6751 14.8214 24.5477 15.8965 24.5477H19.1531C19.5776 24.5477 19.9244 24.8905 19.9244 25.319C19.9244 25.7436 19.5816 26.0903 19.1531 26.0903H15.3862C14.8603 26.0903 14.3539 25.8994 13.9644 25.5566L9.4613 21.447C8.74454 20.8081 7.50577 20.7263 6.67994 21.63C6.00994 22.4014 6.03724 23.5388 6.75008 24.2751L12.7374 30.4493C13.384 31.1232 14.2956 31.5128 15.2265 31.5128H24.5716C24.9339 31.5128 25.23 31.2206 25.23 30.8544C25.23 30.4922 24.9378 30.1961 24.5716 30.1961H15.2304C14.65 30.1961 14.0851 29.9585 13.6839 29.5378L7.69275 23.3557C7.45901 23.1142 7.45123 22.7403 7.66937 22.4831C7.92257 22.2066 8.26929 22.191 8.57702 22.4169L13.0801 26.5227C13.715 27.0875 14.5331 27.3991 15.3784 27.3991H19.1452C20.2944 27.3991 21.2293 26.4642 21.2293 25.315C21.2293 24.1659 20.2944 23.231 19.1452 23.231H15.8887C15.5381 23.231 15.2538 22.9466 15.2538 22.5961C15.2538 22.2455 15.5381 21.9611 15.8887 21.9611H23.325C24.3573 21.9611 25.3351 22.3935 26.0129 23.1492C27.0568 24.3179 28.3345 26.3395 28.5098 29.3313C28.5293 29.6935 28.8409 29.974 29.2032 29.9506C29.5655 29.9312 29.8421 29.6195 29.8226 29.2573C29.6278 25.88 28.1787 23.5972 26.9906 22.2728C26.0752 21.2483 24.7391 20.6523 23.3329 20.6523Z" fill="#182D41"/>
<g id="Group">
<path id="Vector_2" d="M27.8558 5.3125H8.1449C7.0581 5.3125 6.17383 6.39232 6.17383 7.71946V16.943C6.17383 18.2702 7.0581 19.35 8.1449 19.35H27.8557C28.9425 19.35 29.8268 18.2702 29.8268 16.943V7.71946C29.8269 6.39232 28.9426 5.3125 27.8558 5.3125ZM28.5141 16.9382C28.5141 17.3806 28.222 17.7421 27.8558 17.7421H8.1449C7.78264 17.7421 7.48659 17.3854 7.48659 16.9382V7.71946C7.48659 7.27708 7.77872 6.91557 8.1449 6.91557H27.8557C28.218 6.91557 28.514 7.2723 28.514 7.71946V16.943V16.9382H28.5141Z" fill="#B3C9D0"/>
<path id="Vector_3" d="M26.2511 11.1094C25.8888 11.1094 25.5928 11.4015 25.5928 11.7677V12.8935C25.5928 13.2557 25.8849 13.5518 26.2511 13.5518C26.6134 13.5518 26.9094 13.2597 26.9094 12.8935V11.7677C26.9094 11.4016 26.6134 11.1094 26.2511 11.1094Z" fill="#5C7F8A"/>
<path id="Vector_4" d="M9.75011 11.1094C9.38784 11.1094 9.0918 11.4015 9.0918 11.7677V12.8935C9.0918 13.2557 9.38392 13.5518 9.75011 13.5518C10.1163 13.5518 10.4084 13.2597 10.4084 12.8935V11.7677C10.4045 11.4016 10.1124 11.1094 9.75011 11.1094Z" fill="#5C7F8A"/>
<path id="Vector_5" d="M17.6189 10.6462H19.551C19.9133 10.6462 20.2094 10.354 20.2094 9.98786C20.2094 9.62168 19.9172 9.32955 19.551 9.32955H18.9511V9.09581C18.9511 8.73354 18.659 8.4375 18.2928 8.4375C17.9266 8.4375 17.6345 8.72963 17.6345 9.09581V9.32955H17.615C16.6061 9.32955 15.7842 10.1476 15.7842 11.1604C15.7842 12.1732 16.6022 12.9913 17.615 12.9913H18.3786C18.6629 12.9913 18.8889 13.225 18.8889 13.5016C18.8889 13.7859 18.6551 14.0119 18.3786 14.0119H16.4464C16.0841 14.0119 15.7881 14.304 15.7881 14.6702C15.7881 15.0325 16.0802 15.3285 16.4464 15.3285H17.6345V15.5623C17.6345 15.9245 17.9266 16.2206 18.2928 16.2206C18.6551 16.2206 18.9511 15.9284 18.9511 15.5623V15.2351C19.6835 14.9936 20.2094 14.3079 20.2094 13.4977C20.2094 12.4888 19.3913 11.6669 18.3785 11.6669H17.615C17.3306 11.6669 17.1047 11.4331 17.1047 11.1565C17.1086 10.876 17.3345 10.6462 17.6189 10.6462Z" fill="#5C7F8A"/>
</g>
</g>
</svg>
