<svg width="25" height="25" viewBox="0 0 25 25" fill="none" xmlns="http://www.w3.org/2000/svg">
<g id="certificate-svgrepo-com 1">
<path id="Vector" d="M14.8711 11.6836C14.0882 11.6836 13.4535 12.3183 13.4535 13.1012H10.6184C10.6184 12.3183 9.98368 11.6836 9.20079 11.6836C8.4179 11.6836 7.7832 12.3183 7.7832 13.1012V20.6615C7.7832 21.1172 8.00218 21.5452 8.37185 21.8115C8.74146 22.078 9.21663 22.1505 9.64898 22.0063L12.0358 21.2107L14.4227 22.0063C14.5691 22.0551 14.7204 22.0791 14.8708 22.0791C15.1647 22.0791 15.4553 21.9878 15.6997 21.8116C16.0694 21.5452 16.2885 21.1173 16.2885 20.6616V13.1012C16.2887 12.3183 15.6541 11.6836 14.8711 11.6836Z" fill="#54B7D7"/>
<path id="Vector_2" d="M14.8703 11.6836C14.0874 11.6836 13.4527 12.3183 13.4527 13.1012H12.0352V21.2107L14.422 22.0063C14.5684 22.0551 14.7197 22.0791 14.8701 22.0791C15.164 22.0791 15.4547 21.9878 15.699 21.8116C16.0688 21.5452 16.2878 21.1173 16.2878 20.6616V13.1012C16.2879 12.3183 15.6533 11.6836 14.8703 11.6836Z" fill="#3F91BD"/>
<path id="Vector_3" d="M12.0354 3.17578C8.6482 3.17578 5.89258 5.93141 5.89258 9.31856C5.89258 12.7057 8.6482 15.4613 12.0354 15.4613C15.4225 15.4613 18.1781 12.7056 18.1781 9.31856C18.1781 5.93147 15.4225 3.17578 12.0354 3.17578Z" fill="url(#paint0_linear_151_1936)"/>
<path id="Vector_4" d="M12.0352 3.17578V15.4613C15.4223 15.4613 18.1779 12.7056 18.1779 9.31856C18.1779 5.93147 15.4223 3.17578 12.0352 3.17578Z" fill="#F79B0F"/>
</g>
<defs>
<linearGradient id="paint0_linear_151_1936" x1="5.89258" y1="2.85622" x2="18.7935" y2="15.1258" gradientUnits="userSpaceOnUse">
<stop stop-color="#F79B0F"/>
<stop offset="0.84375" stop-color="#FFDA7A"/>
</linearGradient>
</defs>
</svg>
