<svg width="24" height="22" viewBox="0 0 24 22" fill="none" xmlns="http://www.w3.org/2000/svg">
<g id="city-svgrepo-com 1">
<path id="Vector" d="M6.99805 8.38863L7.00805 8.37891" stroke="#5C7F8A" stroke-width="1.5" stroke-linecap="round" stroke-linejoin="round"/>
<path id="Vector_2" d="M10.998 8.38863L11.008 8.37891" stroke="#5C7F8A" stroke-width="1.5" stroke-linecap="round" stroke-linejoin="round"/>
<path id="Vector_3" d="M6.99805 11.8886L7.00805 11.8789" stroke="#5C7F8A" stroke-width="1.5" stroke-linecap="round" stroke-linejoin="round"/>
<path id="Vector_4" d="M10.998 11.8886L11.008 11.8789" stroke="#5C7F8A" stroke-width="1.5" stroke-linecap="round" stroke-linejoin="round"/>
<path id="Vector_5" d="M6.99805 15.3886L7.00805 15.3789" stroke="#5C7F8A" stroke-width="1.5" stroke-linecap="round" stroke-linejoin="round"/>
<path id="Vector_6" d="M10.998 15.3886L11.008 15.3789" stroke="#5C7F8A" stroke-width="1.5" stroke-linecap="round" stroke-linejoin="round"/>
<path id="Vector_7" d="M14.998 18.8789H3.59805C3.26668 18.8789 2.99805 18.6439 2.99805 18.3539V5.40391C2.99805 5.11396 3.26668 4.87891 3.59805 4.87891H8.99805V3.65391C8.99805 3.36396 9.26668 3.12891 9.59805 3.12891H14.398C14.7294 3.12891 14.998 3.36396 14.998 3.65391V8.37891M14.998 18.8789H20.398C20.7294 18.8789 20.998 18.6439 20.998 18.3539V8.90391C20.998 8.61396 20.7294 8.37891 20.398 8.37891H14.998M14.998 18.8789V15.3789M14.998 8.37891V11.8789M14.998 15.3789V11.8789M14.998 15.3789H16.998M14.998 11.8789H16.998" stroke="#5C7F8A" stroke-width="1.5" stroke-linecap="round" stroke-linejoin="round"/>
</g>
</svg>
