<svg width="25" height="28" viewBox="0 0 25 28" fill="none" xmlns="http://www.w3.org/2000/svg">
<g id="hamburger-menu-svgrepo-com 1">
<path id="Vector" d="M3.36079 2.32031C3.0693 2.32031 2.83301 2.09645 2.83301 1.82031C2.83301 1.54417 3.0693 1.32031 3.36079 1.32031L21.3052 19.3203C21.5967 19.3203 21.833 19.5442 21.833 19.8203C21.833 20.0965 21.5967 20.3203 21.3052 20.3203L3.36079 2.32031ZM3.36079 20.3203C3.0693 20.3203 2.83301 20.0965 2.83301 19.8203C2.83301 19.5442 3.0693 19.3203 3.36079 19.3203L21.3052 1.32031C21.5967 1.32031 21.833 1.54417 21.833 1.82031C21.833 2.09645 21.5967 2.32031 21.3052 2.32031L3.36079 20.3203Z" fill="#182D41"/>
</g>
</svg>
