<svg width="36" height="37" viewBox="0 0 36 37" fill="none" xmlns="http://www.w3.org/2000/svg">
<g id="Payment methods icons">
<path id="Vector" d="M31.6642 14.2751C30.761 13.3719 29.2959 13.3719 28.3927 14.2751L18.9434 23.7245L21.2574 27.9535L31.6643 17.5466C32.5673 16.6433 32.5673 15.1782 31.6642 14.2751Z" fill="#6FAEE8"/>
<path id="Vector_2" d="M34.3723 16.986C33.4691 16.0828 32.0041 16.0828 31.1008 16.986L23.4614 24.6254L13.2819 23.5792L3.45144 26.5267L1.60352 28.3746C3.30142 31.0657 5.6437 33.309 8.41457 34.8875L10.1841 33.1179L22.5195 30.7846C23.4274 30.6058 24.7056 29.9242 25.3598 29.2699L34.3724 20.2574C35.2756 19.3542 35.2756 17.8891 34.3723 16.986Z" fill="#BCDEF7"/>
<path id="Vector_3" d="M24.915 8.17819C24.915 12.0111 21.8081 15.1181 17.9751 15.1181L13.1172 8.17819L17.9751 1.23828C21.8081 1.23828 24.915 4.34524 24.915 8.17819Z" fill="#FFD652"/>
<path id="Vector_4" d="M11.0352 8.17819C11.0352 12.0111 14.1421 15.1181 17.9751 15.1181V1.23828C14.1422 1.23828 11.0352 4.34524 11.0352 8.17819Z" fill="#FBE287"/>
<path id="Vector_5" d="M17.9755 13.3861L14.6895 8.12859L17.9755 2.87109C20.8745 2.87109 23.2329 5.22954 23.2329 8.12859C23.2329 11.0276 20.8745 13.3861 17.9755 13.3861Z" fill="#F7EDBC"/>
<path id="Vector_6" d="M12.7188 8.12859C12.7188 11.0276 15.0772 13.3861 17.9762 13.3861V2.87109C15.0773 2.87109 12.7188 5.22954 12.7188 8.12859Z" fill="white"/>
<path id="Vector_7" d="M24.915 12.0024C24.915 15.8354 21.8081 18.9423 17.9751 18.9423L13.1172 12.0024L17.9751 5.0625C21.8081 5.0625 24.915 8.16946 24.915 12.0024Z" fill="#FDBA4C"/>
<path id="Vector_8" d="M11.0352 12.0024C11.0352 15.8354 14.1421 18.9423 17.9751 18.9423V5.0625C14.1422 5.0625 11.0352 8.16946 11.0352 12.0024Z" fill="#FFD652"/>
<path id="Vector_9" d="M17.9755 17.2064L14.6895 11.9489L17.9755 6.69141C20.8745 6.69141 23.2329 9.04985 23.2329 11.9489C23.2329 14.8479 20.8745 17.2064 17.9755 17.2064Z" fill="#FBE287"/>
<path id="Vector_10" d="M12.7188 11.9489C12.7188 14.8479 15.0772 17.2064 17.9762 17.2064V6.69141C15.0773 6.69141 12.7188 9.04985 12.7188 11.9489Z" fill="#F7EDBC"/>
<path id="Vector_11" d="M21.8546 20.6323L11.8847 20.625C10.455 20.625 8.9837 20.9903 7.88958 22.0843L3.44922 26.5248C5.81447 28.8901 9.64938 28.8901 12.0146 26.5248L13.2796 25.2597C13.2794 25.2589 21.8546 25.2588 21.8546 25.2588C23.1319 25.2588 24.168 24.2229 24.168 22.9455C24.168 21.6682 23.132 20.6323 21.8546 20.6323Z" fill="#BCDEF7"/>
<path id="Vector_12" d="M21.8837 21.4727H19.9609L20.4416 22.9447L19.9609 24.4168H21.8845C22.6788 24.4168 23.3258 23.7565 23.3258 22.9447C23.3258 22.133 22.6788 21.4727 21.8837 21.4727Z" fill="#BCDEF7"/>
<path id="Vector_13" d="M21.6445 21.4727L21.6454 24.4168C22.4563 24.4168 23.1166 23.7565 23.1166 22.9447C23.1166 22.133 22.4563 21.4727 21.6445 21.4727Z" fill="#DDEFFB"/>
</g>
</svg>
