<svg width="36" height="37" viewBox="0 0 36 37" fill="none" xmlns="http://www.w3.org/2000/svg">
<g id="coins-cash-svgrepo-com 1" clip-path="url(#clip0_492_14266)">
<g id="Group">
<g id="Group_2">
<path id="Vector" d="M35.7545 24.1533C34.0364 22.4352 31.4182 22.1078 29.3727 23.2533L25.9363 24.8897C25.0363 25.2988 23.9727 25.5442 22.909 25.6261C23.3999 24.9715 23.7272 24.0715 23.7272 23.1715C23.7272 22.2715 22.9908 21.5352 22.0908 21.5352H13.5818C11.4545 21.5352 9.40915 22.4352 8.01823 24.0715L5.15461 27.3442C4.74553 26.6897 4.00915 26.3624 3.27277 26.3624H0.818156C0.327305 26.3625 0 26.6897 0 27.1806C0 27.6715 0.327305 27.9988 0.818156 27.9988H3.2727C3.76362 27.9988 4.09085 28.3261 4.09085 28.8169V33.726C4.09085 34.2169 3.76355 34.5442 3.2727 34.5442H0.818156C0.327305 34.5442 0 34.8715 0 35.3625C0 35.8534 0.327305 36.1806 0.818156 36.1806H3.2727C4.33631 36.1806 5.23631 35.5261 5.56362 34.5442H10.0636C10.4727 34.5442 10.8818 34.5442 11.2091 34.4624L22.7455 33.1533C24.6273 32.9079 26.4273 32.2533 27.9818 31.1079L35.6727 25.3806C35.8363 25.217 36 25.0533 36 24.8079C36 24.5625 35.9182 24.317 35.7545 24.1533ZM27 29.7988C25.6909 30.7806 24.2182 31.3533 22.5818 31.5169L11.0455 32.826C10.7182 32.826 10.3909 32.9079 10.0636 32.9079H5.7273V29.1442L9.3273 25.0533C10.3909 23.826 11.9455 23.0897 13.6637 23.0897H22.091C22.091 24.4806 21.0274 25.5442 19.6365 25.5442H18.8183H14.7274C14.2365 25.5442 13.9092 25.8715 13.9092 26.3624C13.9092 26.8533 14.2365 27.1805 14.7274 27.1805H18.8183H19.6365H22.6638C24.0547 27.1805 25.3638 26.8532 26.5911 26.2805L30.1092 24.6442C31.2547 23.9896 32.7274 23.9896 33.8728 24.726L27 29.7988Z" fill="#5C7F8A"/>
</g>
</g>
<g id="Group_3">
<g id="Group_4">
<path id="Vector_2" d="M17.1825 9.99609C14.4825 9.99609 12.2734 12.2052 12.2734 14.9052C12.2734 17.6052 14.4825 19.8142 17.1825 19.8142C19.8825 19.8142 22.0916 17.6052 22.0916 14.9052C22.0916 12.2052 19.8825 9.99609 17.1825 9.99609ZM17.1825 18.1779C15.3825 18.1779 13.9098 16.7052 13.9098 14.9052C13.9098 13.1052 15.3825 11.6325 17.1825 11.6325C18.9825 11.6325 20.4552 13.1052 20.4552 14.9052C20.4552 16.7052 18.9825 18.1779 17.1825 18.1779Z" fill="#5C7F8A"/>
</g>
</g>
<g id="Group_5">
<g id="Group_6">
<path id="Vector_3" d="M27.8175 6.72656C25.5266 6.72656 23.7266 8.52656 23.7266 10.8175C23.7266 13.1084 25.5266 14.9084 27.8175 14.9084C30.1084 14.9084 31.9084 13.1084 31.9084 10.8175C31.9084 8.52656 30.1084 6.72656 27.8175 6.72656ZM27.8175 13.272C26.4266 13.272 25.3629 12.2084 25.3629 10.8175C25.3629 9.42656 26.4266 8.36294 27.8175 8.36294C29.2084 8.36294 30.272 9.42656 30.272 10.8175C30.272 12.2084 29.2084 13.272 27.8175 13.272Z" fill="#5C7F8A"/>
</g>
</g>
<g id="Group_7">
<g id="Group_8">
<path id="Vector_4" d="M19.6321 0.179688C17.8321 0.179688 16.3594 1.65238 16.3594 3.45238C16.3594 5.25238 17.8321 6.72508 19.6321 6.72508C21.4321 6.72508 22.9048 5.25238 22.9048 3.45238C22.9048 1.65238 21.4321 0.179688 19.6321 0.179688ZM19.6321 5.08877C18.7321 5.08877 17.9957 4.35238 17.9957 3.45238C17.9957 2.55238 18.7321 1.816 19.6321 1.816C20.5321 1.816 21.2685 2.55238 21.2685 3.45238C21.2685 4.35238 20.5321 5.08877 19.6321 5.08877Z" fill="#5C7F8A"/>
</g>
</g>
</g>
<defs>
<clipPath id="clip0_492_14266">
<rect width="36" height="36" fill="white" transform="translate(0 0.179688)"/>
</clipPath>
</defs>
</svg>
