<svg width="24" height="25" viewBox="0 0 24 25" fill="none" xmlns="http://www.w3.org/2000/svg">
<g id="customer-care-svgrepo-com 1" clip-path="url(#clip0_105_2162)">
<path id="Vector" d="M4 12.4687V9.9395C4 7.69292 4.84285 5.53835 6.34315 3.94978C7.84344 2.3612 9.87827 1.46875 12 1.46875C14.1217 1.46875 16.1566 2.3612 17.6569 3.94978C19.1571 5.53835 20 7.69292 20 9.9395V12.4687" stroke="#182D41" stroke-linecap="round"/>
<path id="Vector_2" d="M3.16883 12.4688H5V18.4687H3.16883C2.85884 18.4687 2.56154 18.327 2.34234 18.0747C2.12314 17.8224 2 17.4803 2 17.1235V13.814C2 13.4572 2.12314 13.1151 2.34234 12.8628C2.56154 12.6105 2.85884 12.4688 3.16883 12.4688Z" stroke="#182D41" stroke-linecap="round"/>
<path id="Vector_3" d="M20.8312 18.4688H19V12.4688H20.8312C21.1412 12.4688 21.4385 12.6105 21.6577 12.8628C21.8769 13.1151 22 13.4572 22 13.814V17.1235C22 17.4803 21.8769 17.8224 21.6577 18.0747C21.4385 18.327 21.1412 18.4687 20.8312 18.4688Z" stroke="#182D41" stroke-linecap="round"/>
<path id="Vector_4" d="M21 18.4688V20.691C21 21.1625 20.8052 21.6147 20.4583 21.9481C20.1115 22.2814 19.6411 22.4688 19.1506 22.4688H14" stroke="#182D41" stroke-linecap="round"/>
<path id="Vector_5" d="M13.0123 21.4688H10.9877C10.4422 21.4688 10 21.822 10 22.2577V22.6798C10 23.1155 10.4422 23.4688 10.9877 23.4688H13.0123C13.5578 23.4688 14 23.1155 14 22.6798V22.2577C14 21.822 13.5578 21.4688 13.0123 21.4688Z" stroke="#182D41" stroke-linecap="round"/>
</g>
<defs>
<clipPath id="clip0_105_2162">
<rect width="24" height="24" fill="white" transform="translate(0 0.46875)"/>
</clipPath>
</defs>
</svg>
