<svg width="25" height="25" viewBox="0 0 25 25" fill="none" xmlns="http://www.w3.org/2000/svg">
<g id="customer-care-svgrepo-com 1" clip-path="url(#clip0_1038_3262)">
<path id="Vector" d="M4.83301 12.8203V10.2911C4.83301 8.04448 5.67586 5.88991 7.17615 4.30134C8.67644 2.71276 10.7113 1.82031 12.833 1.82031C14.9547 1.82031 16.9896 2.71276 18.4899 4.30134C19.9902 5.88991 20.833 8.04448 20.833 10.2911V12.8203" stroke="#182D41" stroke-linecap="round"/>
<path id="Vector_2" d="M4.00184 12.8203H5.83301V18.8203H4.00184C3.69185 18.8203 3.39455 18.6786 3.17535 18.4263C2.95615 18.174 2.83301 17.8318 2.83301 17.475V14.1656C2.83301 13.8088 2.95615 13.4666 3.17535 13.2143C3.39455 12.962 3.69185 12.8203 4.00184 12.8203Z" stroke="#182D41" stroke-linecap="round"/>
<path id="Vector_3" d="M21.6642 18.8203H19.833V12.8203H21.6642C21.9742 12.8203 22.2715 12.962 22.4907 13.2143C22.7099 13.4666 22.833 13.8088 22.833 14.1656V17.475C22.833 17.8318 22.7099 18.174 22.4907 18.4263C22.2715 18.6786 21.9742 18.8203 21.6642 18.8203Z" stroke="#182D41" stroke-linecap="round"/>
<path id="Vector_4" d="M21.833 18.8203V21.0425C21.833 21.514 21.6382 21.9662 21.2913 22.2996C20.9445 22.633 20.4741 22.8203 19.9836 22.8203H14.833" stroke="#182D41" stroke-linecap="round"/>
<path id="Vector_5" d="M13.8454 21.8203H11.8207C11.2752 21.8203 10.833 22.1735 10.833 22.6093V23.0314C10.833 23.4671 11.2752 23.8203 11.8207 23.8203H13.8454C14.3908 23.8203 14.833 23.4671 14.833 23.0314V22.6093C14.833 22.1735 14.3908 21.8203 13.8454 21.8203Z" stroke="#182D41" stroke-linecap="round"/>
</g>
<defs>
<clipPath id="clip0_1038_3262">
<rect width="24" height="24" fill="white" transform="translate(0.833008 0.820312)"/>
</clipPath>
</defs>
</svg>
