<svg width="25" height="25" viewBox="0 0 25 25" fill="none" xmlns="http://www.w3.org/2000/svg">
<g id="delete-o-svgrepo-com 1" clip-path="url(#clip0_165_2836)">
<g id="Group">
<path id="Vector" d="M14.2852 0.828125C16.7704 0.828125 18.7852 2.84284 18.7852 5.32812H23.2852C23.6994 5.32812 24.0352 5.66391 24.0352 6.07812C24.0352 6.49234 23.6994 6.82812 23.2852 6.82812L21.0352 6.82737V20.3281C21.0352 22.8134 19.0204 24.8281 16.5352 24.8281H7.53516C5.04987 24.8281 3.03516 22.8134 3.03516 20.3281V6.82812H0.785156C0.370943 6.82812 0.0351562 6.49234 0.0351562 6.07812C0.0351562 5.66391 0.370943 5.32812 0.785156 5.32812H5.28516C5.28516 2.84284 7.29987 0.828125 9.78516 0.828125H14.2852ZM19.5352 6.82812H4.53516V20.3281C4.53516 21.9348 5.79813 23.2464 7.38543 23.3245L7.53516 23.3281H16.5352C18.1418 23.3281 19.4535 22.0651 19.5315 20.4779L19.5352 20.3281V6.82812ZM9.78516 11.3281C10.1994 11.3281 10.5352 11.6639 10.5352 12.0781V17.3281C10.5352 17.7423 10.1994 18.0781 9.78516 18.0781C9.37094 18.0781 9.03516 17.7423 9.03516 17.3281V12.0781C9.03516 11.6639 9.37094 11.3281 9.78516 11.3281ZM14.2852 11.3281C14.6994 11.3281 15.0352 11.6639 15.0352 12.0781V17.3281C15.0352 17.7423 14.6994 18.0781 14.2852 18.0781C13.8709 18.0781 13.5352 17.7423 13.5352 17.3281V12.0781C13.5352 11.6639 13.8709 11.3281 14.2852 11.3281ZM14.2852 2.32812H9.78516C8.17851 2.32812 6.86685 3.5911 6.78883 5.17839L6.78516 5.32812H12.0352H17.2852C17.2852 3.72148 16.0222 2.40982 14.4349 2.3318L14.2852 2.32812Z" fill="#D95959"/>
</g>
</g>
<defs>
<clipPath id="clip0_165_2836">
<rect width="24" height="24" fill="white" transform="translate(0.0351562 0.828125)"/>
</clipPath>
</defs>
</svg>
