<svg width="36" height="37" viewBox="0 0 36 37" fill="none" xmlns="http://www.w3.org/2000/svg">
<g id="devices-svgrepo-com (2) 1">
<path id="Vector" d="M33.1875 16.4922H29.8125V8.61719C29.812 8.16979 29.634 7.74087 29.3177 7.42452C29.0013 7.10817 28.5724 6.93021 28.125 6.92969H2.8125C2.36511 6.93021 1.93619 7.10817 1.61983 7.42452C1.30348 7.74087 1.12552 8.16979 1.125 8.61719V25.9141C1.12552 26.3615 1.30348 26.7904 1.61983 27.1067C1.93619 27.4231 2.36511 27.601 2.8125 27.6016H14.9062V31.1172H10.6875V33.3672H21.375V31.1172H17.1562V27.6016H23.625V31.6797C23.6255 32.1271 23.8035 32.556 24.1198 32.8724C24.4362 33.1887 24.8651 33.3667 25.3125 33.3672H33.1875C33.6349 33.3667 34.0638 33.1887 34.3802 32.8724C34.6965 32.556 34.8745 32.1271 34.875 31.6797V18.1797C34.8745 17.7323 34.6965 17.3034 34.3802 16.987C34.0638 16.6706 33.6349 16.4927 33.1875 16.4922ZM23.625 18.1797V25.3516H3.375V9.17969H27.5625V16.4922H25.3125C24.8651 16.4927 24.4362 16.6706 24.1198 16.987C23.8035 17.3034 23.6255 17.7323 23.625 18.1797ZM32.625 31.1172H25.875V18.7422H32.625V31.1172Z" fill="#5C7F8A"/>
</g>
</svg>
