<svg width="16" height="17" viewBox="0 0 16 17" fill="none" xmlns="http://www.w3.org/2000/svg">
<g id="edit-svgrepo-com 1">
<path id="Vector" fill-rule="evenodd" clip-rule="evenodd" d="M8.78301 3.21675C9.24454 2.95535 9.79107 2.88801 10.3023 3.02954C10.5289 3.09229 10.7226 3.20161 10.9051 3.32509C11.0785 3.44235 11.2774 3.59761 11.5079 3.77755L11.5415 3.8038C11.7721 3.98374 11.971 4.13899 12.1269 4.27873C12.2909 4.42586 12.444 4.58721 12.5599 4.79185C12.8213 5.2534 12.8887 5.79989 12.7471 6.31109C12.6844 6.53775 12.5751 6.73144 12.4516 6.914C12.3343 7.08739 12.1791 7.2863 11.9991 7.51682L7.26394 13.583C7.25194 13.5984 7.24014 13.6135 7.22847 13.6285C7.00621 13.9135 6.83814 14.129 6.63007 14.306C6.45398 14.4558 6.25915 14.582 6.05049 14.6816C5.80397 14.7992 5.53863 14.8646 5.18763 14.9511C5.16923 14.9556 5.15059 14.9602 5.13171 14.9649L3.71517 15.3146C3.61707 15.3388 3.50509 15.3666 3.40631 15.3817C3.29619 15.3986 3.12567 15.414 2.93733 15.3537C2.71093 15.2812 2.51776 15.1304 2.39247 14.9284C2.28824 14.7603 2.26172 14.5912 2.25141 14.4802C2.24215 14.3807 2.24183 14.2654 2.24154 14.1643C2.24152 14.158 2.24151 14.1518 2.24149 14.1457L2.23691 12.7052C2.23684 12.6858 2.23677 12.6666 2.23671 12.6476C2.23541 12.2862 2.23443 12.0128 2.28867 11.7452C2.33459 11.5186 2.40978 11.2989 2.51235 11.0918C2.63352 10.847 2.80177 10.6316 3.02431 10.3468C3.03598 10.3318 3.0478 10.3167 3.05977 10.3014L7.79494 4.23512C7.97487 4.00459 8.13014 3.80568 8.26987 3.64982C8.41701 3.48572 8.57834 3.33265 8.78301 3.21675ZM9.94647 4.31453C9.77607 4.26736 9.59394 4.28981 9.44007 4.37694C9.41394 4.39174 9.36434 4.42645 9.26267 4.53989C9.15694 4.65779 9.02961 4.82029 8.83287 5.07234L10.9349 6.71319C11.1317 6.46114 11.2584 6.29819 11.3471 6.16703C11.4325 6.04083 11.4541 5.98427 11.4621 5.95533C11.5093 5.78493 11.4869 5.60277 11.3997 5.44892C11.3849 5.42279 11.3502 5.37319 11.2368 5.27149C11.1189 5.16577 10.9564 5.03847 10.7043 4.84173C10.4523 4.64498 10.2893 4.51825 10.1582 4.42953C10.032 4.34418 9.97541 4.32255 9.94647 4.31453ZM10.1145 7.76422L8.01247 6.12338L4.11081 11.1218C3.83764 11.4717 3.76061 11.5756 3.70728 11.6833C3.656 11.7869 3.6184 11.8967 3.59545 12.01C3.57157 12.1278 3.56882 12.257 3.57023 12.701L3.57429 13.976L4.81214 13.6704C5.24315 13.564 5.36787 13.53 5.47635 13.4782C5.58068 13.4284 5.67809 13.3653 5.76615 13.2904C5.85769 13.2125 5.93972 13.1126 6.21289 12.7626L10.1145 7.76422ZM8.00041 14.8189C8.00041 14.4507 8.29887 14.1522 8.66707 14.1522H13.3337C13.7019 14.1522 14.0004 14.4507 14.0004 14.8189C14.0004 15.1871 13.7019 15.4856 13.3337 15.4856H8.66707C8.29887 15.4856 8.00041 15.1871 8.00041 14.8189Z" fill="#5C7F8A"/>
</g>
</svg>
