<svg width="24" height="25" viewBox="0 0 24 25" fill="none" xmlns="http://www.w3.org/2000/svg">
<g id="email-svgrepo-com 1">
<g id="style=stroke">
<g id="email">
<path id="vector (Stroke)" fill-rule="evenodd" clip-rule="evenodd" d="M3.88534 5.55351C3.20538 6.18489 2.75 7.20936 2.75 8.81641V15.8164C2.75 17.4234 3.20538 18.4479 3.88534 19.0793C4.57535 19.72 5.61497 20.0664 7 20.0664H17C18.385 20.0664 19.4246 19.72 20.1147 19.0793C20.7946 18.4479 21.25 17.4234 21.25 15.8164V8.81641C21.25 7.20936 20.7946 6.18489 20.1147 5.55351C19.4246 4.91278 18.385 4.56641 17 4.56641H7C5.61497 4.56641 4.57535 4.91278 3.88534 5.55351ZM2.86466 4.45431C3.92465 3.47004 5.38503 3.06641 7 3.06641H17C18.615 3.06641 20.0754 3.47004 21.1353 4.45431C22.2054 5.44793 22.75 6.92346 22.75 8.81641V15.8164C22.75 17.7094 22.2054 19.1849 21.1353 20.1785C20.0754 21.1628 18.615 21.5664 17 21.5664H7C5.38503 21.5664 3.92465 21.1628 2.86466 20.1785C1.79462 19.1849 1.25 17.7094 1.25 15.8164V8.81641C1.25 6.92346 1.79462 5.44793 2.86466 4.45431Z" fill="#5C7F8A"/>
<path id="vector (Stroke)_2" fill-rule="evenodd" clip-rule="evenodd" d="M19.3633 7.6274C19.6166 7.95516 19.5562 8.42618 19.2285 8.67944L13.6814 12.9657C12.691 13.7309 11.3089 13.7309 10.3185 12.9657L4.77144 8.67944C4.44367 8.42618 4.38328 7.95516 4.63655 7.6274C4.88982 7.29963 5.36083 7.23924 5.6886 7.49251L11.2356 11.7787C11.6858 12.1266 12.3141 12.1266 12.7642 11.7787L18.3113 7.49251C18.6391 7.23924 19.1101 7.29963 19.3633 7.6274Z" fill="#5C7F8A"/>
</g>
</g>
</g>
</svg>
