<svg width="24" height="25" viewBox="0 0 24 25" fill="none" xmlns="http://www.w3.org/2000/svg">
<g id="flag-finish-alt-svgrepo-com 1">
<path id="Vector" d="M3.74316 13.6154V3.91615C3.74316 3.61133 3.74316 3.45893 3.83785 3.36422C3.93256 3.26953 4.08497 3.26953 4.38978 3.26953H9.67368C9.93802 3.26953 10.0701 3.26953 10.1889 3.31875C10.3078 3.36797 10.4013 3.46142 10.5881 3.64831L11.1238 4.18399C11.3107 4.37088 11.4042 4.46433 11.523 4.51355C11.6419 4.56277 11.7739 4.56277 12.0382 4.56277H18.6456C18.9971 4.56277 19.173 4.56277 19.2258 4.67299C19.2785 4.7832 19.1682 4.92014 18.9479 5.19402L15.6182 9.33024C15.4617 9.52458 15.3834 9.62175 15.3834 9.73571C15.3834 9.84967 15.4617 9.94684 15.6182 10.1412L18.9479 14.2774C19.1682 14.5513 19.2785 14.6882 19.2258 14.7985C19.173 14.9087 18.9971 14.9087 18.6456 14.9087H12.0382C11.7739 14.9087 11.6419 14.9087 11.523 14.8594C11.4042 14.8102 11.3107 14.7167 11.1238 14.5299L10.5881 13.9942C10.4013 13.8073 10.3078 13.7138 10.1889 13.6647C10.0701 13.6154 9.93802 13.6154 9.67368 13.6154H3.74316ZM3.74316 13.6154V21.3748" stroke="#5C7F8A" stroke-width="1.5" stroke-linecap="round"/>
<path id="Vector_2" d="M11.5024 4.5625V9.73544" stroke="#5C7F8A" stroke-width="1.5" stroke-linecap="round"/>
</g>
</svg>
