<svg width="36" height="37" viewBox="0 0 36 37" fill="none" xmlns="http://www.w3.org/2000/svg">
<g id="gift-svgrepo-com (1) 1">
<path id="Vector" d="M31.5 10.5863H30.177C31.104 9.55578 31.671 8.18553 31.671 6.68253C31.671 6.23478 31.6204 5.79941 31.5259 5.38091L31.5338 5.42028C31.041 3.50216 29.502 2.04191 27.5749 1.67066L27.5434 1.66503C27.3116 1.63128 27.0439 1.61328 26.7716 1.61328C24.6634 1.61328 22.8195 2.75178 21.8239 4.44603L21.8092 4.47303L18.0011 9.95066L14.1941 4.47303C13.1805 2.75066 11.3366 1.61328 9.22613 1.61328C8.955 1.61328 8.6895 1.63241 8.4285 1.66841L8.45888 1.66503C6.50025 2.03966 4.96013 3.50103 4.47638 5.38541L4.4685 5.42028C4.38075 5.79941 4.33012 6.23591 4.33012 6.68366C4.33012 8.18666 4.89713 9.55578 5.82863 10.5919L5.82413 10.5863H4.5C2.79225 10.5885 1.4085 11.9723 1.40625 13.68V17.055C1.41075 18.4579 2.35012 19.6403 3.63487 20.0115L3.65625 20.0172V31.68C3.6585 33.3878 5.04225 34.7715 6.75 34.7738H29.25C30.9578 34.7715 32.3415 33.3878 32.3438 31.68V20.0172C33.6488 19.6403 34.5881 18.4579 34.5938 17.0562V13.68C34.5915 11.9723 33.2078 10.5885 31.5 10.5863ZM23.1919 5.43603C23.9074 4.15466 25.2551 3.30191 26.802 3.30191C26.9561 3.30191 27.108 3.31091 27.2576 3.32666L27.2396 3.32553C28.5446 3.57753 29.5695 4.55291 29.8913 5.80953L29.8969 5.83316C29.9295 6.04578 29.9486 6.29103 29.9486 6.53966C29.9486 8.21928 29.0992 9.69978 27.8055 10.5762L27.7886 10.5874H19.6144L23.1919 5.43603ZM6.10425 5.83203C6.4305 4.55178 7.45538 3.57753 8.739 3.32891L8.76038 3.32553C8.88863 3.31091 9.03825 3.30303 9.189 3.30303C10.7381 3.30303 12.087 4.15466 12.7957 5.41466L12.807 5.43491L16.3868 10.5852H8.2125C6.90188 9.69866 6.0525 8.21703 6.0525 6.53853C6.0525 6.28878 6.07162 6.04466 6.10763 5.80503L6.10425 5.83203ZM3.09375 17.055V13.68C3.09487 12.9038 3.72375 12.2749 4.5 12.2738H17.1562V18.4613H4.5C3.72375 18.4602 3.09487 17.8313 3.09375 17.055ZM5.34375 31.68V20.1488H17.1562V33.0863H6.75C5.97375 33.0852 5.34488 32.4563 5.34375 31.68ZM30.6562 31.68C30.6551 32.4563 30.0263 33.0852 29.25 33.0863H18.8438V20.1488H30.6562V31.68ZM32.9062 17.055C32.9051 17.8313 32.2763 18.4602 31.5 18.4613H18.8438V12.2738H31.5C32.2763 12.2749 32.9051 12.9038 32.9062 13.68V17.055Z" fill="#5C7F8A"/>
</g>
</svg>
