<svg width="24" height="25" viewBox="0 0 24 25" fill="none" xmlns="http://www.w3.org/2000/svg">
<g id="google-color-svgrepo-com 1" clip-path="url(#clip0_189_4359)">
<g id="Icons">
<g id="Color-">
<g id="Google">
<path id="Fill-1" fill-rule="evenodd" clip-rule="evenodd" d="M5.16375 12.1627C5.16375 11.4006 5.29033 10.6699 5.51625 9.98458L1.56184 6.96484C0.791149 8.52964 0.356934 10.2928 0.356934 12.1627C0.356934 14.031 0.790615 15.7931 1.56024 17.3568L5.51251 14.3312C5.28873 13.6491 5.16375 12.9211 5.16375 12.1627Z" fill="#FBBC05"/>
<path id="Fill-2" fill-rule="evenodd" clip-rule="evenodd" d="M12.107 5.22969C13.7627 5.22969 15.2581 5.81635 16.4331 6.77635L19.8513 3.36302C17.7683 1.54969 15.0979 0.429688 12.107 0.429688C7.46359 0.429688 3.47287 3.08515 1.56189 6.96515L5.5163 9.98489C6.42746 7.21902 9.02474 5.22969 12.107 5.22969Z" fill="#EB4335"/>
<path id="Fill-3" fill-rule="evenodd" clip-rule="evenodd" d="M12.1071 19.095C9.02486 19.095 6.42758 17.1057 5.51642 14.3398L1.56201 17.359C3.47299 21.2396 7.46372 23.895 12.1071 23.895C14.973 23.895 17.7092 22.8774 19.7628 20.9708L16.0092 18.0689C14.9501 18.7361 13.6164 19.095 12.1071 19.095Z" fill="#34A853"/>
<path id="Fill-4" fill-rule="evenodd" clip-rule="evenodd" d="M23.3228 12.1646C23.3228 11.4712 23.216 10.7246 23.0558 10.0312H12.1069V14.5646H18.4092C18.0941 16.1102 17.2363 17.2984 16.009 18.0718L19.7626 20.9736C21.9198 18.9715 23.3228 15.9891 23.3228 12.1646Z" fill="#4285F4"/>
</g>
</g>
</g>
</g>
<defs>
<clipPath id="clip0_189_4359">
<rect width="24" height="24" fill="white" transform="translate(0 0.164062)"/>
</clipPath>
</defs>
</svg>
