<svg width="24" height="24" viewBox="0 0 24 24" fill="none" xmlns="http://www.w3.org/2000/svg">
<g id="grid-4-svgrepo-com 1">
<path id="Vector (Stroke)" fill-rule="evenodd" clip-rule="evenodd" d="M3.44608 3.44608C4.17672 2.71544 5.29756 2.5 6.75 2.5C8.20244 2.5 9.32328 2.71544 10.0539 3.44608C10.7846 4.17672 11 5.29756 11 6.75C11 8.20244 10.7846 9.32328 10.0539 10.0539C9.32328 10.7846 8.20244 11 6.75 11C5.29756 11 4.17672 10.7846 3.44608 10.0539C2.71544 9.32328 2.5 8.20244 2.5 6.75C2.5 5.29756 2.71544 4.17672 3.44608 3.44608ZM4.15318 4.15318C3.72574 4.58063 3.5 5.33479 3.5 6.75C3.5 8.16521 3.72574 8.91937 4.15318 9.34681C4.58063 9.77426 5.33479 10 6.75 10C8.16521 10 8.91937 9.77426 9.34681 9.34681C9.77426 8.91937 10 8.16521 10 6.75C10 5.33479 9.77426 4.58063 9.34681 4.15318C8.91937 3.72574 8.16521 3.5 6.75 3.5C5.33479 3.5 4.58063 3.72574 4.15318 4.15318Z" fill="#B3C9D0"/>
<path id="Vector (Stroke)_2" fill-rule="evenodd" clip-rule="evenodd" d="M3.44608 13.9461C4.17672 13.2155 5.29755 13 6.75 13C8.20245 13 9.32328 13.2155 10.0539 13.9461C10.7846 14.6767 11 15.7976 11 17.25C11 18.7024 10.7846 19.8233 10.0539 20.5539C9.32328 21.2845 8.20245 21.5 6.75 21.5C5.29755 21.5 4.17672 21.2845 3.44608 20.5539C2.71544 19.8233 2.5 18.7024 2.5 17.25C2.5 15.7976 2.71544 14.6767 3.44608 13.9461ZM4.15319 14.6532C3.72574 15.0807 3.5 15.8348 3.5 17.25C3.5 18.6652 3.72574 19.4193 4.15319 19.8468C4.58063 20.2742 5.3348 20.5 6.75 20.5C8.1652 20.5 8.91937 20.2742 9.34681 19.8468C9.77426 19.4193 10 18.6652 10 17.25C10 15.8348 9.77426 15.0807 9.34681 14.6532C8.91937 14.2257 8.1652 14 6.75 14C5.3348 14 4.58063 14.2257 4.15319 14.6532Z" fill="#B3C9D0"/>
<path id="Vector (Stroke)_3" fill-rule="evenodd" clip-rule="evenodd" d="M13.9461 13.9461C14.6767 13.2155 15.7976 13 17.25 13C18.7024 13 19.8233 13.2155 20.5539 13.9461C21.2845 14.6767 21.5 15.7976 21.5 17.25C21.5 18.7024 21.2845 19.8233 20.5539 20.5539C19.8233 21.2845 18.7024 21.5 17.25 21.5C15.7976 21.5 14.6767 21.2845 13.9461 20.5539C13.2155 19.8233 13 18.7024 13 17.25C13 15.7976 13.2155 14.6767 13.9461 13.9461ZM14.6532 14.6532C14.2257 15.0807 14 15.8348 14 17.25C14 18.6652 14.2257 19.4193 14.6532 19.8468C15.0807 20.2743 15.8348 20.5 17.25 20.5C18.6652 20.5 19.4193 20.2743 19.8468 19.8468C20.2743 19.4193 20.5 18.6652 20.5 17.25C20.5 15.8348 20.2743 15.0807 19.8468 14.6532C19.4193 14.2257 18.6652 14 17.25 14C15.8348 14 15.0807 14.2257 14.6532 14.6532Z" fill="#B3C9D0"/>
<path id="Vector (Stroke)_4" fill-rule="evenodd" clip-rule="evenodd" d="M13.9461 3.44608C14.6767 2.71544 15.7976 2.5 17.25 2.5C18.7024 2.5 19.8233 2.71544 20.5539 3.44608C21.2845 4.17672 21.5 5.29755 21.5 6.75C21.5 8.20245 21.2845 9.32328 20.5539 10.0539C19.8233 10.7846 18.7024 11 17.25 11C15.7976 11 14.6767 10.7846 13.9461 10.0539C13.2155 9.32328 13 8.20245 13 6.75C13 5.29755 13.2155 4.17672 13.9461 3.44608ZM14.6532 4.15319C14.2257 4.58063 14 5.3348 14 6.75C14 8.1652 14.2257 8.91937 14.6532 9.34681C15.0807 9.77426 15.8348 10 17.25 10C18.6652 10 19.4193 9.77426 19.8468 9.34681C20.2742 8.91937 20.5 8.1652 20.5 6.75C20.5 5.3348 20.2742 4.58063 19.8468 4.15319C19.4193 3.72574 18.6652 3.5 17.25 3.5C15.8348 3.5 15.0807 3.72574 14.6532 4.15319Z" fill="#B3C9D0"/>
</g>
</svg>
