<svg width="36" height="37" viewBox="0 0 36 37" fill="none" xmlns="http://www.w3.org/2000/svg">
<g id="growth-svgrepo-com (2) 1" clip-path="url(#clip0_492_14237)">
<path id="Vector" d="M22.5 9.17969V11.4297H29.9091L20.25 21.0888L15.4204 16.2593C15.316 16.1548 15.192 16.0719 15.0555 16.0153C14.919 15.9588 14.7727 15.9296 14.625 15.9296C14.4773 15.9296 14.331 15.9588 14.1945 16.0153C14.058 16.0719 13.934 16.1548 13.8296 16.2593L2.25 27.8388L3.84086 29.4297L14.625 18.6456L19.4546 23.4751C19.559 23.5796 19.683 23.6625 19.8195 23.719C19.956 23.7756 20.1023 23.8047 20.25 23.8047C20.3977 23.8047 20.544 23.7756 20.6805 23.719C20.817 23.6625 20.941 23.5796 21.0454 23.4751L31.5 13.0205V20.4297H33.75V9.17969H22.5Z" fill="#5C7F8A"/>
</g>
<defs>
<clipPath id="clip0_492_14237">
<rect width="36" height="36" fill="white" transform="translate(0 0.179688)"/>
</clipPath>
</defs>
</svg>
