<svg width="25" height="24" viewBox="0 0 25 24" fill="none" xmlns="http://www.w3.org/2000/svg">
<g id="hamburger-menu-svgrepo-com 1">
<path id="Vector" d="M3.36079 5.5C3.0693 5.5 2.83301 5.27614 2.83301 5C2.83301 4.72386 3.0693 4.5 3.36079 4.5H21.3052C21.5967 4.5 21.833 4.72386 21.833 5C21.833 5.27614 21.5967 5.5 21.3052 5.5H3.36079ZM3.36079 12.5C3.0693 12.5 2.83301 12.2761 2.83301 12C2.83301 11.7239 3.0693 11.5 3.36079 11.5H21.3052C21.5967 11.5 21.833 11.7239 21.833 12C21.833 12.2761 21.5967 12.5 21.3052 12.5H3.36079ZM3.36079 19.5C3.0693 19.5 2.83301 19.2761 2.83301 19C2.83301 18.7239 3.0693 18.5 3.36079 18.5H21.3052C21.5967 18.5 21.833 18.7239 21.833 19C21.833 19.2761 21.5967 19.5 21.3052 19.5H3.36079Z" fill="#182D41"/>
</g>
</svg>
