<svg width="136" height="26" viewBox="0 0 136 26" fill="none" xmlns="http://www.w3.org/2000/svg">
<g id="Logo">
<path id="Vector" d="M47 26L30.7851 0L23.3695 11.8864L15.9567 0L0 25.5854H2.07423L15.9567 3.32809L22.3366 13.5505L14.5701 26H47ZM30.7851 3.32809L43.8283 24.2407H31.077L24.408 13.5505L30.7851 3.32809ZM28.9999 24.2407H17.739L23.3695 15.2145L28.9999 24.2407Z" fill="white"/>
<g id="Group 1">
<g id="GeCommerce">
<path d="M60.9662 7.07386H63.8615V11.0911C63.4271 11.2384 62.9795 11.3479 62.5187 11.4197C62.0616 11.4915 61.5498 11.5273 60.9832 11.5273C60.122 11.5273 59.3948 11.3555 58.8018 11.0117C58.2125 10.668 57.7649 10.1788 57.4589 9.54423C57.153 8.90586 57 8.14851 57 7.27217C57 6.41471 57.1681 5.6668 57.5043 5.02843C57.8442 4.39006 58.3334 3.89523 58.9718 3.54394C59.6139 3.18887 60.3845 3.01133 61.2835 3.01133C61.7443 3.01133 62.1806 3.05477 62.5923 3.14165C63.0079 3.22475 63.3931 3.34374 63.7482 3.49861L63.3799 4.33718C63.074 4.20497 62.7359 4.09165 62.3657 3.99722C61.9993 3.90278 61.6197 3.85557 61.2268 3.85557C60.5507 3.85557 59.9709 3.99533 59.4874 4.27485C59.0077 4.55437 58.6394 4.94911 58.3825 5.45905C58.1294 5.96899 58.0029 6.57336 58.0029 7.27217C58.0029 7.96342 58.1143 8.5659 58.3372 9.07962C58.56 9.58956 58.9076 9.98618 59.3797 10.2695C59.8519 10.5528 60.46 10.6944 61.2042 10.6944C61.5781 10.6944 61.8992 10.6737 62.1674 10.6321C62.4356 10.5868 62.6792 10.5339 62.8983 10.4735V7.93509H60.9662V7.07386Z" fill="white"/>
<path d="M70.4794 11.414H65.8673V3.13032H70.4794V3.98022H66.8305V6.66024H70.2698V7.49881H66.8305V10.5641H70.4794V11.414Z" fill="white"/>
<path d="M75.8565 3.86123C75.3994 3.86123 74.9877 3.94056 74.6213 4.0992C74.2586 4.25408 73.9489 4.48072 73.692 4.77913C73.439 5.07376 73.2444 5.43072 73.1084 5.85C72.9725 6.26928 72.9045 6.74145 72.9045 7.2665C72.9045 7.96153 73.0121 8.5659 73.2274 9.07962C73.4465 9.58956 73.7714 9.98429 74.202 10.2638C74.6364 10.5433 75.1784 10.6831 75.8281 10.6831C76.1983 10.6831 76.5458 10.6529 76.8707 10.5924C77.1993 10.5282 77.5185 10.4489 77.8282 10.3545V11.193C77.526 11.3064 77.2087 11.3895 76.8763 11.4423C76.5439 11.499 76.1492 11.5273 75.6921 11.5273C74.8498 11.5273 74.1453 11.3536 73.5787 11.0061C73.0159 10.6548 72.5928 10.1599 72.3095 9.52157C72.03 8.8832 71.8903 8.12962 71.8903 7.26084C71.8903 6.6338 71.9771 6.06153 72.1509 5.54404C72.3284 5.02276 72.5853 4.57326 72.9215 4.19553C73.2614 3.81779 73.6769 3.52694 74.168 3.32296C74.6628 3.11521 75.2294 3.01133 75.8678 3.01133C76.2871 3.01133 76.6913 3.05288 77.0803 3.13598C77.4694 3.21909 77.8207 3.33807 78.1342 3.49294L77.7489 4.30885C77.4845 4.18797 77.1936 4.0841 76.8763 3.99722C76.5628 3.90656 76.2229 3.86123 75.8565 3.86123Z" fill="white"/>
<path d="M86.8088 7.26084C86.8088 7.8992 86.7276 8.48091 86.5652 9.00596C86.4028 9.52724 86.161 9.97674 85.84 10.3545C85.5227 10.7284 85.1279 11.0174 84.6558 11.2214C84.1836 11.4253 83.6359 11.5273 83.0126 11.5273C82.3705 11.5273 81.8095 11.4253 81.3298 11.2214C80.8539 11.0174 80.4573 10.7265 80.14 10.3488C79.8264 9.97107 79.5904 9.51968 79.4317 8.99463C79.2768 8.46958 79.1994 7.88787 79.1994 7.2495C79.1994 6.40338 79.3392 5.66113 79.6187 5.02276C79.8982 4.38439 80.3213 3.88767 80.8879 3.5326C81.4583 3.17753 82.1722 3 83.0296 3C83.8493 3 84.5387 3.17565 85.0977 3.52694C85.6605 3.87823 86.0855 4.37306 86.3726 5.01143C86.6634 5.64602 86.8088 6.39583 86.8088 7.26084ZM80.2136 7.26084C80.2136 7.96342 80.3137 8.57157 80.5139 9.08529C80.7141 9.59901 81.0201 9.99563 81.4318 10.2751C81.8473 10.5547 82.3743 10.6944 83.0126 10.6944C83.6548 10.6944 84.1798 10.5547 84.5878 10.2751C84.9995 9.99563 85.3036 9.59901 85.5 9.08529C85.6964 8.57157 85.7946 7.96342 85.7946 7.26084C85.7946 6.19185 85.5699 5.35706 85.1204 4.75646C84.6747 4.15209 83.9777 3.8499 83.0296 3.8499C82.3875 3.8499 81.8586 3.98777 81.4431 4.26352C81.0276 4.53926 80.7179 4.93211 80.5139 5.44205C80.3137 5.94821 80.2136 6.55447 80.2136 7.26084Z" fill="white"/>
<path d="M92.2992 11.414L89.5172 4.08221H89.4719C89.487 4.23708 89.5002 4.42594 89.5115 4.64881C89.5229 4.87167 89.5323 5.11531 89.5399 5.37972C89.5474 5.64036 89.5512 5.90666 89.5512 6.17863V11.414H88.656V3.13032H90.0838L92.7072 10.0202H92.7468L95.4098 3.13032H96.8263V11.414H95.8745V6.11064C95.8745 5.86511 95.8782 5.61958 95.8858 5.37406C95.8933 5.12475 95.9028 4.89056 95.9141 4.67147C95.9254 4.44861 95.9368 4.25596 95.9481 4.09354H95.9028L93.0868 11.414H92.2992Z" fill="white"/>
<path d="M102.736 11.414L99.954 4.08221H99.9086C99.9238 4.23708 99.937 4.42594 99.9483 4.64881C99.9596 4.87167 99.9691 5.11531 99.9766 5.37972C99.9842 5.64036 99.988 5.90666 99.988 6.17863V11.414H99.0927V3.13032H100.521L103.144 10.0202H103.184L105.847 3.13032H107.263V11.414H106.311V6.11064C106.311 5.86511 106.315 5.61958 106.323 5.37406C106.33 5.12475 106.34 4.89056 106.351 4.67147C106.362 4.44861 106.374 4.25596 106.385 4.09354H106.34L103.524 11.414H102.736Z" fill="white"/>
<path d="M114.142 11.414H109.53V3.13032H114.142V3.98022H110.493V6.66024H113.932V7.49881H110.493V10.5641H114.142V11.414Z" fill="white"/>
<path d="M118.216 3.13032C118.895 3.13032 119.456 3.21531 119.898 3.38529C120.344 3.55149 120.676 3.80646 120.896 4.1502C121.115 4.49394 121.224 4.93211 121.224 5.46471C121.224 5.90288 121.145 6.26928 120.986 6.56392C120.828 6.85477 120.62 7.09086 120.363 7.27217C120.106 7.45348 119.832 7.59324 119.541 7.69145L121.813 11.414H120.692L118.663 7.95775H116.941V11.414H115.977V3.13032H118.216ZM118.159 3.96322H116.941V7.14185H118.255C118.931 7.14185 119.428 7.00398 119.745 6.72823C120.066 6.45249 120.227 6.04642 120.227 5.51004C120.227 4.94722 120.057 4.54871 119.717 4.31451C119.381 4.08032 118.861 3.96322 118.159 3.96322Z" fill="white"/>
<path d="M126.681 3.86123C126.223 3.86123 125.812 3.94056 125.445 4.0992C125.083 4.25408 124.773 4.48072 124.516 4.77913C124.263 5.07376 124.068 5.43072 123.933 5.85C123.797 6.26928 123.729 6.74145 123.729 7.2665C123.729 7.96153 123.836 8.5659 124.051 9.07962C124.271 9.58956 124.595 9.98429 125.026 10.2638C125.46 10.5433 126.002 10.6831 126.652 10.6831C127.022 10.6831 127.37 10.6529 127.695 10.5924C128.023 10.5282 128.343 10.4489 128.652 10.3545V11.193C128.35 11.3064 128.033 11.3895 127.7 11.4423C127.368 11.499 126.973 11.5273 126.516 11.5273C125.674 11.5273 124.969 11.3536 124.403 11.0061C123.84 10.6548 123.417 10.1599 123.134 9.52157C122.854 8.8832 122.714 8.12962 122.714 7.26084C122.714 6.6338 122.801 6.06153 122.975 5.54404C123.152 5.02276 123.409 4.57326 123.746 4.19553C124.085 3.81779 124.501 3.52694 124.992 3.32296C125.487 3.11521 126.053 3.01133 126.692 3.01133C127.111 3.01133 127.515 3.05288 127.904 3.13598C128.293 3.21909 128.645 3.33807 128.958 3.49294L128.573 4.30885C128.309 4.18797 128.018 4.0841 127.7 3.99722C127.387 3.90656 127.047 3.86123 126.681 3.86123Z" fill="white"/>
<path d="M135.061 11.414H130.448V3.13032H135.061V3.98022H131.412V6.66024H134.851V7.49881H131.412V10.5641H135.061V11.414Z" fill="white"/>
</g>
<g id="All in one place">
<path d="M62.1491 23.7615L61.3395 21.7171H58.7038L57.8986 23.7615H57.125L59.6978 17.2936H60.386L62.9408 23.7615H62.1491ZM61.1101 21.0519L60.341 19.0208C60.323 18.9679 60.293 18.8812 60.251 18.7608C60.2121 18.6404 60.1716 18.5155 60.1296 18.3863C60.0876 18.2571 60.0531 18.1528 60.0261 18.0735C59.9962 18.1939 59.9632 18.3143 59.9272 18.4348C59.8942 18.5523 59.8612 18.6624 59.8282 18.7652C59.7952 18.8651 59.7668 18.9503 59.7428 19.0208L58.9601 21.0519H61.1101Z" fill="#B3C9D0"/>
<path d="M63.8538 23.7615V17.3201H64.6185V23.0918H67.5376V23.7615H63.8538Z" fill="#B3C9D0"/>
<path d="M68.6666 23.7615V17.3201H69.4312V23.0918H72.3503V23.7615H68.6666Z" fill="#B3C9D0"/>
<path d="M75.8722 23.7615V17.3201H76.6368V23.7615H75.8722Z" fill="#B3C9D0"/>
<path d="M83.5861 23.7615H82.7045L79.1197 18.3511H79.0837C79.0927 18.495 79.1032 18.6595 79.1152 18.8445C79.1272 19.0266 79.1362 19.222 79.1422 19.4305C79.1512 19.6361 79.1557 19.8461 79.1557 20.0605V23.7615H78.445V17.3201H79.3221L82.8934 22.7129H82.9249C82.9189 22.6101 82.9114 22.4647 82.9024 22.2767C82.8934 22.0858 82.8844 21.8816 82.8754 21.6643C82.8694 21.444 82.8664 21.2398 82.8664 21.0519V17.3201H83.5861V23.7615Z" fill="#B3C9D0"/>
<path d="M93.4769 20.532C93.4769 21.0284 93.4125 21.4807 93.2835 21.889C93.1546 22.2943 92.9627 22.6439 92.7078 22.9376C92.4559 23.2284 92.1426 23.4531 91.7677 23.6117C91.3929 23.7703 90.9581 23.8496 90.4633 23.8496C89.9536 23.8496 89.5083 23.7703 89.1275 23.6117C88.7496 23.4531 88.4348 23.2269 88.1829 22.9332C87.934 22.6394 87.7466 22.2884 87.6207 21.8802C87.4977 21.4719 87.4363 21.0196 87.4363 20.5232C87.4363 19.8652 87.5472 19.288 87.7691 18.7916C87.991 18.2953 88.3268 17.909 88.7766 17.6329C89.2294 17.3568 89.7962 17.2188 90.4768 17.2188C91.1275 17.2188 91.6748 17.3553 92.1186 17.6285C92.5654 17.9017 92.9027 18.2864 93.1306 18.7828C93.3615 19.2763 93.4769 19.8593 93.4769 20.532ZM88.2414 20.532C88.2414 21.0783 88.3208 21.5512 88.4798 21.9507C88.6387 22.3501 88.8816 22.6585 89.2084 22.8759C89.5383 23.0933 89.9566 23.2019 90.4633 23.2019C90.9731 23.2019 91.3899 23.0933 91.7138 22.8759C92.0406 22.6585 92.282 22.3501 92.4379 21.9507C92.5938 21.5512 92.6718 21.0783 92.6718 20.532C92.6718 19.7007 92.4934 19.0516 92.1366 18.5846C91.7827 18.1146 91.2295 17.8796 90.4768 17.8796C89.9671 17.8796 89.5473 17.9868 89.2174 18.2013C88.8876 18.4157 88.6417 18.7212 88.4798 19.1177C88.3208 19.5113 88.2414 19.9827 88.2414 20.532Z" fill="#B3C9D0"/>
<path d="M100.084 23.7615H99.2027L95.6179 18.3511H95.5819C95.5909 18.495 95.6014 18.6595 95.6134 18.8445C95.6254 19.0266 95.6344 19.222 95.6404 19.4305C95.6494 19.6361 95.6539 19.8461 95.6539 20.0605V23.7615H94.9432V17.3201H95.8203L99.3916 22.7129H99.4231C99.4171 22.6101 99.4096 22.4647 99.4006 22.2767C99.3916 22.0858 99.3827 21.8816 99.3737 21.6643C99.3677 21.444 99.3647 21.2398 99.3647 21.0519V17.3201H100.084V23.7615Z" fill="#B3C9D0"/>
<path d="M105.54 23.7615H101.879V17.3201H105.54V17.981H102.644V20.0649H105.374V20.717H102.644V23.1006H105.54V23.7615Z" fill="#B3C9D0"/>
<path d="M111.109 17.3201C111.957 17.3201 112.576 17.4831 112.966 17.8091C113.359 18.1322 113.555 18.5963 113.555 19.2014C113.555 19.4746 113.509 19.7345 113.416 19.9812C113.326 20.225 113.179 20.4409 112.975 20.6289C112.771 20.8139 112.503 20.9608 112.17 21.0695C111.84 21.1752 111.435 21.2281 110.956 21.2281H110.155V23.7615H109.39V17.3201H111.109ZM111.037 17.9589H110.155V20.5848H110.87C111.29 20.5848 111.639 20.5408 111.918 20.4527C112.2 20.3645 112.412 20.2221 112.552 20.0253C112.693 19.8256 112.764 19.5612 112.764 19.2322C112.764 18.8034 112.624 18.4847 112.346 18.2762C112.067 18.0647 111.63 17.9589 111.037 17.9589Z" fill="#B3C9D0"/>
<path d="M114.932 23.7615V17.3201H115.696V23.0918H118.616V23.7615H114.932Z" fill="#B3C9D0"/>
<path d="M123.869 23.7615L123.06 21.7171H120.424L119.619 23.7615H118.845L121.418 17.2936H122.106L124.661 23.7615H123.869ZM122.83 21.0519L122.061 19.0208C122.043 18.9679 122.013 18.8812 121.971 18.7608C121.932 18.6404 121.892 18.5155 121.85 18.3863C121.808 18.2571 121.773 18.1528 121.746 18.0735C121.716 18.1939 121.683 18.3143 121.647 18.4348C121.614 18.5523 121.581 18.6624 121.548 18.7652C121.515 18.8651 121.487 18.9503 121.463 19.0208L120.68 21.0519H122.83Z" fill="#B3C9D0"/>
<path d="M128.385 17.8884C128.022 17.8884 127.695 17.9501 127.404 18.0735C127.117 18.1939 126.871 18.3702 126.667 18.6022C126.466 18.8313 126.312 19.1089 126.204 19.4349C126.096 19.7609 126.042 20.1281 126.042 20.5364C126.042 21.0768 126.127 21.5468 126.298 21.9463C126.472 22.3428 126.73 22.6497 127.072 22.8671C127.416 23.0844 127.847 23.1931 128.363 23.1931C128.656 23.1931 128.932 23.1696 129.19 23.1226C129.451 23.0727 129.704 23.011 129.95 22.9376V23.5896C129.71 23.6778 129.459 23.7424 129.195 23.7835C128.931 23.8276 128.617 23.8496 128.255 23.8496C127.586 23.8496 127.027 23.7145 126.577 23.4443C126.13 23.1711 125.794 22.7863 125.569 22.2899C125.347 21.7935 125.237 21.2075 125.237 20.532C125.237 20.0444 125.305 19.5994 125.443 19.197C125.584 18.7916 125.788 18.4421 126.055 18.1484C126.325 17.8547 126.655 17.6285 127.045 17.4699C127.437 17.3083 127.887 17.2276 128.394 17.2276C128.727 17.2276 129.048 17.2599 129.357 17.3245C129.665 17.3891 129.944 17.4816 130.193 17.6021L129.887 18.2365C129.677 18.1425 129.447 18.0617 129.195 17.9942C128.946 17.9237 128.676 17.8884 128.385 17.8884Z" fill="#B3C9D0"/>
<path d="M135.037 23.7615H131.376V17.3201H135.037V17.981H132.141V20.0649H134.871V20.717H132.141V23.1006H135.037V23.7615Z" fill="#B3C9D0"/>
</g>
</g>
</g>
</svg>
