<svg width="24" height="25" viewBox="0 0 24 25" fill="none" xmlns="http://www.w3.org/2000/svg">
<g id="location-on-svgrepo-com 1">
<g id="Location On">
<g id="Group">
<path id="Vector" d="M12.0003 22.401C11.7316 22.4023 11.4663 22.3405 11.2259 22.2204C10.9855 22.1004 10.7767 21.9256 10.6163 21.71L5.55527 14.968C4.71789 13.7872 4.22135 12.3987 4.11997 10.9546C4.01859 9.51055 4.31626 8.06638 4.98044 6.78008C5.64462 5.49378 6.64972 4.41489 7.88582 3.66139C9.12192 2.9079 10.5414 2.50883 11.9891 2.50781C13.4367 2.5068 14.8568 2.90389 16.0939 3.65566C17.3311 4.40742 18.3377 5.48491 19.0037 6.77028C19.6696 8.05565 19.9693 9.49941 19.87 10.9436C19.7706 12.3879 19.276 13.777 18.4403 14.959L13.3853 21.708C13.2248 21.924 13.0159 22.0992 12.7753 22.2196C12.5348 22.3399 12.2693 22.4021 12.0003 22.401ZM11.9923 3.53404C10.3021 3.52874 8.67036 4.15214 7.41427 5.28304C6.15467 6.40774 5.35189 7.9558 5.15833 9.63332C4.96477 11.3108 5.39391 13.001 6.36427 14.383L11.4153 21.11C11.483 21.201 11.5711 21.2748 11.6725 21.3255C11.774 21.3762 11.8859 21.4024 11.9993 21.402C12.1129 21.4022 12.225 21.3759 12.3267 21.3252C12.4285 21.2745 12.517 21.2009 12.5853 21.11L17.6293 14.376C18.3175 13.4022 18.7405 12.266 18.8568 11.0792C18.9731 9.89241 18.7786 8.69577 18.2925 7.60685C17.8064 6.51793 17.0454 5.5742 16.0842 4.86838C15.123 4.16255 13.9948 3.71891 12.8103 3.58104C12.5387 3.55003 12.2656 3.53434 11.9923 3.53404Z" fill="#182D41"/>
<path id="Vector_2" d="M12 12.9688C11.5055 12.9688 11.0222 12.8221 10.6111 12.5474C10.2 12.2727 9.87952 11.8823 9.6903 11.4255C9.50108 10.9686 9.45157 10.466 9.54804 9.98102C9.6445 9.49607 9.8826 9.05062 10.2322 8.70098C10.5819 8.35135 11.0273 8.11325 11.5123 8.01679C11.9972 7.92032 12.4999 7.96983 12.9567 8.15905C13.4135 8.34827 13.804 8.6687 14.0787 9.07983C14.3534 9.49095 14.5 9.9743 14.5 10.4688C14.5 11.1318 14.2366 11.7677 13.7678 12.2365C13.2989 12.7054 12.663 12.9688 12 12.9688ZM12 8.96875C11.7033 8.96875 11.4133 9.05672 11.1666 9.22155C10.92 9.38637 10.7277 9.62064 10.6142 9.89473C10.5007 10.1688 10.4709 10.4704 10.5288 10.7614C10.5867 11.0524 10.7296 11.3196 10.9393 11.5294C11.1491 11.7392 11.4164 11.8821 11.7074 11.9399C11.9983 11.9978 12.2999 11.9681 12.574 11.8546C12.8481 11.741 13.0824 11.5488 13.2472 11.3021C13.412 11.0554 13.5 10.7654 13.5 10.4688C13.5 10.0709 13.342 9.6894 13.0607 9.40809C12.7794 9.12679 12.3978 8.96875 12 8.96875Z" fill="#182D41"/>
</g>
</g>
</g>
</svg>
