<svg width="24" height="25" viewBox="0 0 24 25" fill="none" xmlns="http://www.w3.org/2000/svg">
<g id="lock-1-svgrepo-com 1">
<path id="Vector" d="M6 10.1641V8.16406C6 4.85406 7 2.16406 12 2.16406C17 2.16406 18 4.85406 18 8.16406V10.1641" stroke="#5C7F8A" stroke-width="1.5" stroke-linecap="round" stroke-linejoin="round"/>
<path id="Vector_2" d="M12 18.6641C13.3807 18.6641 14.5 17.5448 14.5 16.1641C14.5 14.7834 13.3807 13.6641 12 13.6641C10.6193 13.6641 9.5 14.7834 9.5 16.1641C9.5 17.5448 10.6193 18.6641 12 18.6641Z" stroke="#5C7F8A" stroke-width="1.5" stroke-linecap="round" stroke-linejoin="round"/>
<path id="Vector_3" d="M17 22.1641H7C3 22.1641 2 21.1641 2 17.1641V15.1641C2 11.1641 3 10.1641 7 10.1641H17C21 10.1641 22 11.1641 22 15.1641V17.1641C22 21.1641 21 22.1641 17 22.1641Z" stroke="#5C7F8A" stroke-width="1.5" stroke-linecap="round" stroke-linejoin="round"/>
</g>
</svg>
