<svg width="204" height="41" viewBox="0 0 204 41" fill="none" xmlns="http://www.w3.org/2000/svg">
<g id="Logo">
<path id="Vector" d="M70.9903 40.0915L46.4987 0.820312L35.298 18.774L24.1015 0.820312L0 39.4653H3.13298L24.1015 5.84716L33.7379 21.2874L22.0072 40.0915H70.9903ZM46.4987 5.84716L66.1997 37.4342H46.9396L36.8666 21.2874L46.4987 5.84716ZM43.8024 37.4342H26.7936L35.298 23.8008L43.8024 37.4342Z" fill="#182D41"/>
<g id="Group 1">
<g id="GeCommerce">
<path d="M92.0859 11.5048H96.4591V17.5725C95.803 17.7951 95.1269 17.9605 94.4308 18.0689C93.7405 18.1773 92.9674 18.2315 92.1116 18.2315C90.8107 18.2315 89.7124 17.9719 88.8167 17.4527C87.9267 16.9335 87.2506 16.1947 86.7884 15.2362C86.3263 14.272 86.0952 13.128 86.0952 11.8044C86.0952 10.5092 86.3491 9.37958 86.8569 8.41537C87.3704 7.45115 88.1092 6.70374 89.0734 6.17314C90.0434 5.63683 91.2073 5.36868 92.5651 5.36868C93.2612 5.36868 93.9202 5.43429 94.5421 5.56552C95.1697 5.69103 95.7516 5.87075 96.2879 6.10468L95.7316 7.37128C95.2695 7.17159 94.7589 7.00042 94.1997 6.85779C93.6463 6.71515 93.0729 6.64384 92.4796 6.64384C91.4583 6.64384 90.5825 6.85494 89.8522 7.27714C89.1276 7.69934 88.5714 8.29555 88.1834 9.06578C87.8011 9.83601 87.61 10.7489 87.61 11.8044C87.61 12.8485 87.7783 13.7585 88.1149 14.5344C88.4515 15.3046 88.9764 15.9037 89.6896 16.3316C90.4028 16.7595 91.3214 16.9735 92.4453 16.9735C93.0102 16.9735 93.4951 16.9421 93.9002 16.8793C94.3053 16.8109 94.6733 16.731 95.0042 16.6397V12.8057H92.0859V11.5048Z" fill="#182D41"/>
<path d="M106.455 18.0604H99.4887V5.5484H106.455V6.83212H100.944V10.8801H106.138V12.1467H100.944V16.7766H106.455V18.0604Z" fill="#182D41"/>
<path d="M114.577 6.6524C113.886 6.6524 113.264 6.77221 112.711 7.01184C112.163 7.24576 111.695 7.58808 111.307 8.03881C110.925 8.48383 110.631 9.02299 110.426 9.65629C110.221 10.2896 110.118 11.0028 110.118 11.7958C110.118 12.8456 110.28 13.7585 110.606 14.5344C110.937 15.3046 111.427 15.9009 112.078 16.3231C112.734 16.7453 113.552 16.9564 114.534 16.9564C115.093 16.9564 115.618 16.9107 116.109 16.8194C116.605 16.7224 117.087 16.6026 117.555 16.46V17.7266C117.098 17.8978 116.619 18.0233 116.117 18.1031C115.615 18.1887 115.019 18.2315 114.328 18.2315C113.056 18.2315 111.992 17.9691 111.136 17.4442C110.286 16.9136 109.647 16.1662 109.219 15.2019C108.797 14.2377 108.586 13.0995 108.586 11.7873C108.586 10.8402 108.717 9.97579 108.98 9.19415C109.248 8.40681 109.636 7.72786 110.143 7.15732C110.657 6.58678 111.285 6.14747 112.026 5.83937C112.774 5.52558 113.63 5.36868 114.594 5.36868C115.227 5.36868 115.837 5.43144 116.425 5.55696C117.013 5.68248 117.543 5.8622 118.017 6.09612L117.435 7.32849C117.036 7.14591 116.596 6.98901 116.117 6.85779C115.644 6.72086 115.13 6.6524 114.577 6.6524Z" fill="#182D41"/>
<path d="M131.119 11.7873C131.119 12.7515 130.997 13.6301 130.751 14.4232C130.506 15.2105 130.141 15.8894 129.656 16.46C129.177 17.0248 128.581 17.4613 127.867 17.7694C127.154 18.0775 126.327 18.2315 125.385 18.2315C124.416 18.2315 123.568 18.0775 122.844 17.7694C122.125 17.4613 121.526 17.022 121.047 16.4514C120.573 15.8809 120.216 15.1991 119.977 14.406C119.743 13.613 119.626 12.7344 119.626 11.7701C119.626 10.4921 119.837 9.37102 120.259 8.40681C120.681 7.44259 121.32 6.69233 122.176 6.15602C123.038 5.61972 124.116 5.35156 125.411 5.35156C126.649 5.35156 127.69 5.61686 128.535 6.14747C129.385 6.67807 130.027 7.42548 130.46 8.38969C130.9 9.3482 131.119 10.4807 131.119 11.7873ZM121.158 11.7873C121.158 12.8485 121.309 13.767 121.611 14.543C121.914 15.3189 122.376 15.918 122.998 16.3402C123.625 16.7624 124.421 16.9735 125.385 16.9735C126.355 16.9735 127.148 16.7624 127.765 16.3402C128.387 15.918 128.846 15.3189 129.143 14.543C129.439 13.767 129.588 12.8485 129.588 11.7873C129.588 10.1726 129.248 8.91174 128.569 8.00458C127.896 7.09171 126.843 6.63528 125.411 6.63528C124.441 6.63528 123.642 6.84353 123.015 7.26002C122.387 7.67652 121.919 8.26988 121.611 9.04011C121.309 9.80463 121.158 10.7203 121.158 11.7873Z" fill="#182D41"/>
<path d="M139.412 18.0604L135.21 6.98616H135.142C135.165 7.22008 135.185 7.50535 135.202 7.84197C135.219 8.17859 135.233 8.54659 135.244 8.94597C135.256 9.33964 135.262 9.74187 135.262 10.1527V18.0604H133.909V5.5484H136.066L140.028 15.9551H140.088L144.111 5.5484H146.25V18.0604H144.812V10.05C144.812 9.67911 144.818 9.30826 144.83 8.93741C144.841 8.56085 144.855 8.20712 144.872 7.8762C144.889 7.53959 144.907 7.24861 144.924 7.00328H144.855L140.602 18.0604H139.412Z" fill="#182D41"/>
<path d="M155.176 18.0604L150.974 6.98616H150.906C150.929 7.22008 150.949 7.50535 150.966 7.84197C150.983 8.17859 150.997 8.54659 151.008 8.94597C151.02 9.33964 151.026 9.74187 151.026 10.1527V18.0604H149.673V5.5484H151.83L155.792 15.9551H155.852L159.875 5.5484H162.014V18.0604H160.576V10.05C160.576 9.67911 160.582 9.30826 160.594 8.93741C160.605 8.56085 160.619 8.20712 160.636 7.8762C160.653 7.53959 160.671 7.24861 160.688 7.00328H160.619L156.366 18.0604H155.176Z" fill="#182D41"/>
<path d="M172.404 18.0604H165.437V5.5484H172.404V6.83212H166.892V10.8801H172.087V12.1467H166.892V16.7766H172.404V18.0604Z" fill="#182D41"/>
<path d="M178.557 5.5484C179.584 5.5484 180.431 5.67677 181.099 5.93351C181.772 6.18455 182.274 6.56967 182.605 7.08886C182.936 7.60805 183.101 8.26988 183.101 9.07434C183.101 9.73617 182.982 10.2896 182.742 10.7346C182.502 11.1739 182.189 11.5305 181.801 11.8044C181.413 12.0782 180.999 12.2893 180.56 12.4377L183.991 18.0604H182.297L179.233 12.8399H176.631V18.0604H175.177V5.5484H178.557ZM178.471 6.80644H176.631V11.6075H178.617C179.638 11.6075 180.388 11.3993 180.868 10.9828C181.353 10.5663 181.595 9.95297 181.595 9.14281C181.595 8.2927 181.338 7.69078 180.825 7.33704C180.317 6.98331 179.533 6.80644 178.471 6.80644Z" fill="#182D41"/>
<path d="M191.343 6.6524C190.652 6.6524 190.031 6.77221 189.477 7.01184C188.929 7.24576 188.462 7.58808 188.074 8.03881C187.691 8.48383 187.398 9.02299 187.192 9.65629C186.987 10.2896 186.884 11.0028 186.884 11.7958C186.884 12.8456 187.047 13.7585 187.372 14.5344C187.703 15.3046 188.193 15.9009 188.844 16.3231C189.5 16.7453 190.319 16.9564 191.3 16.9564C191.859 16.9564 192.384 16.9107 192.875 16.8194C193.371 16.7224 193.853 16.6026 194.321 16.46V17.7266C193.865 17.8978 193.385 18.0233 192.883 18.1031C192.381 18.1887 191.785 18.2315 191.095 18.2315C189.822 18.2315 188.758 17.9691 187.902 17.4442C187.052 16.9136 186.413 16.1662 185.985 15.2019C185.563 14.2377 185.352 13.0995 185.352 11.7873C185.352 10.8402 185.483 9.97579 185.746 9.19415C186.014 8.40681 186.402 7.72786 186.91 7.15732C187.423 6.58678 188.051 6.14747 188.793 5.83937C189.54 5.52558 190.396 5.36868 191.36 5.36868C191.993 5.36868 192.604 5.43144 193.191 5.55696C193.779 5.68248 194.31 5.8622 194.783 6.09612L194.201 7.32849C193.802 7.14591 193.363 6.98901 192.883 6.85779C192.41 6.72086 191.896 6.6524 191.343 6.6524Z" fill="#182D41"/>
<path d="M204 18.0604H197.034V5.5484H204V6.83212H198.489V10.8801H203.684V12.1467H198.489V16.7766H204V18.0604Z" fill="#182D41"/>
</g>
<g id="All in one place">
<path d="M93.8655 36.7105L92.6426 33.6226H88.6615L87.4454 36.7105H86.2769L90.1629 26.9413H91.2023L95.0612 36.7105H93.8655ZM92.2961 32.6178L91.1344 29.5499C91.1072 29.4701 91.0619 29.3392 90.9985 29.1573C90.9396 28.9754 90.8785 28.7868 90.8151 28.5916C90.7517 28.3964 90.6996 28.2389 90.6588 28.1192C90.6135 28.301 90.5637 28.4829 90.5094 28.6648C90.4595 28.8423 90.4097 29.0087 90.3599 29.164C90.3101 29.3148 90.2671 29.4435 90.2308 29.5499L89.0487 32.6178H92.2961Z" fill="#5C7F8A"/>
<path d="M96.4403 36.7105V26.9812H97.5952V35.6989H102.004V36.7105H96.4403Z" fill="#5C7F8A"/>
<path d="M103.71 36.7105V26.9812H104.865V35.6989H109.274V36.7105H103.71Z" fill="#5C7F8A"/>
<path d="M114.593 36.7105V26.9812H115.748V36.7105H114.593Z" fill="#5C7F8A"/>
<path d="M126.244 36.7105H124.913L119.498 28.5384H119.444C119.458 28.7558 119.473 29.0042 119.492 29.2837C119.51 29.5588 119.523 29.8538 119.532 30.1688C119.546 30.4794 119.553 30.7966 119.553 31.1205V36.7105H118.479V26.9812H119.804L125.198 35.1266H125.246C125.237 34.9713 125.225 34.7517 125.212 34.4678C125.198 34.1794 125.185 33.8711 125.171 33.5428C125.162 33.2101 125.157 32.9017 125.157 32.6178V26.9812H126.244V36.7105Z" fill="#5C7F8A"/>
<path d="M141.184 31.8325C141.184 32.5823 141.087 33.2655 140.892 33.8822C140.697 34.4944 140.407 35.0224 140.022 35.466C139.642 35.9052 139.168 36.2446 138.602 36.4842C138.036 36.7238 137.379 36.8436 136.632 36.8436C135.862 36.8436 135.19 36.7238 134.614 36.4842C134.044 36.2446 133.568 35.903 133.188 35.4594C132.812 35.0157 132.529 34.4856 132.338 33.8689C132.153 33.2522 132.06 32.569 132.06 31.8192C132.06 30.8254 132.228 29.9536 132.563 29.2039C132.898 28.4541 133.405 27.8707 134.084 27.4537C134.768 27.0366 135.624 26.8281 136.653 26.8281C137.635 26.8281 138.462 27.0344 139.132 27.447C139.807 27.8596 140.317 28.4408 140.661 29.1906C141.01 29.9359 141.184 30.8166 141.184 31.8325ZM133.276 31.8325C133.276 32.6577 133.396 33.372 133.636 33.9754C133.876 34.5787 134.243 35.0446 134.737 35.3729C135.235 35.7012 135.867 35.8653 136.632 35.8653C137.402 35.8653 138.032 35.7012 138.521 35.3729C139.014 35.0446 139.379 34.5787 139.615 33.9754C139.85 33.372 139.968 32.6577 139.968 31.8325C139.968 30.577 139.698 29.5965 139.159 28.8911C138.625 28.1813 137.789 27.8263 136.653 27.8263C135.883 27.8263 135.248 27.9883 134.75 28.3121C134.252 28.636 133.881 29.0974 133.636 29.6963C133.396 30.2908 133.276 31.0029 133.276 31.8325Z" fill="#5C7F8A"/>
<path d="M151.164 36.7105H149.832L144.418 28.5384H144.363C144.377 28.7558 144.393 29.0042 144.411 29.2837C144.429 29.5588 144.443 29.8538 144.452 30.1688C144.465 30.4794 144.472 30.7966 144.472 31.1205V36.7105H143.399V26.9812H144.723L150.118 35.1266H150.165C150.156 34.9713 150.145 34.7517 150.131 34.4678C150.118 34.1794 150.104 33.8711 150.091 33.5428C150.081 33.2101 150.077 32.9017 150.077 32.6178V26.9812H151.164V36.7105Z" fill="#5C7F8A"/>
<path d="M159.405 36.7105H153.875V26.9812H159.405V27.9794H155.03V31.1271H159.153V32.112H155.03V35.7122H159.405V36.7105Z" fill="#5C7F8A"/>
<path d="M167.815 26.9812C169.097 26.9812 170.032 27.2274 170.621 27.7199C171.215 28.2079 171.511 28.9089 171.511 29.8228C171.511 30.2354 171.441 30.628 171.301 31.0007C171.165 31.3689 170.943 31.695 170.635 31.9789C170.327 32.2584 169.922 32.4802 169.419 32.6444C168.921 32.8041 168.309 32.884 167.584 32.884H166.375V36.7105H165.22V26.9812H167.815ZM167.707 27.9461H166.375V31.9124H167.455C168.089 31.9124 168.617 31.8458 169.038 31.7127C169.464 31.5796 169.783 31.3645 169.996 31.0672C170.209 30.7655 170.316 30.3662 170.316 29.8694C170.316 29.2216 170.105 28.7403 169.684 28.4253C169.263 28.1058 168.604 27.9461 167.707 27.9461Z" fill="#5C7F8A"/>
<path d="M173.59 36.7105V26.9812H174.745V35.6989H179.154V36.7105H173.59Z" fill="#5C7F8A"/>
<path d="M187.089 36.7105L185.866 33.6226H181.885L180.669 36.7105H179.501L183.387 26.9413H184.426L188.285 36.7105H187.089ZM185.52 32.6178L184.358 29.5499C184.331 29.4701 184.286 29.3392 184.222 29.1573C184.163 28.9754 184.102 28.7868 184.039 28.5916C183.976 28.3964 183.923 28.2389 183.883 28.1192C183.837 28.301 183.788 28.4829 183.733 28.6648C183.683 28.8423 183.634 29.0087 183.584 29.164C183.534 29.3148 183.491 29.4435 183.455 29.5499L182.273 32.6178H185.52Z" fill="#5C7F8A"/>
<path d="M193.91 27.8397C193.362 27.8397 192.869 27.9328 192.429 28.1192C191.994 28.301 191.623 28.5672 191.315 28.9177C191.012 29.2638 190.778 29.683 190.615 30.1755C190.452 30.6679 190.371 31.2225 190.371 31.8392C190.371 32.6555 190.5 33.3653 190.758 33.9687C191.021 34.5676 191.41 35.0312 191.926 35.3595C192.447 35.6878 193.097 35.852 193.876 35.852C194.32 35.852 194.737 35.8165 195.126 35.7455C195.52 35.6701 195.903 35.5769 196.274 35.466V36.4509C195.912 36.584 195.532 36.6816 195.133 36.7437C194.735 36.8103 194.261 36.8436 193.713 36.8436C192.703 36.8436 191.859 36.6395 191.179 36.2313C190.504 35.8187 189.997 35.2375 189.657 34.4878C189.322 33.738 189.155 32.8529 189.155 31.8325C189.155 31.0961 189.259 30.4239 189.467 29.8161C189.68 29.2039 189.988 28.6759 190.391 28.2323C190.799 27.7886 191.297 27.447 191.886 27.2074C192.479 26.9634 193.158 26.8414 193.924 26.8414C194.427 26.8414 194.911 26.8902 195.378 26.9878C195.844 27.0854 196.265 27.2252 196.641 27.4071L196.179 28.3654C195.862 28.2234 195.514 28.1014 195.133 27.9994C194.757 27.8929 194.35 27.8397 193.91 27.8397Z" fill="#5C7F8A"/>
<path d="M203.958 36.7105H198.428V26.9812H203.958V27.9794H199.583V31.1271H203.707V32.112H199.583V35.7122H203.958V36.7105Z" fill="#5C7F8A"/>
</g>
</g>
</g>
</svg>
