<svg width="136" height="90" viewBox="0 0 136 90" fill="none" xmlns="http://www.w3.org/2000/svg">
<g id="Group 2">
<path id="Vector" d="M98.0644 33.5956L77.1125 0L67.5305 15.3589L57.9522 0L37.334 33.0598H40.0142L57.9522 4.30034L66.1959 17.5091L56.1606 33.5956H98.0644ZM77.1125 4.30034L93.9661 31.3223H77.4897L68.8725 17.5091L77.1125 4.30034ZM74.8059 31.3223H60.2552L67.5305 19.6592L74.8059 31.3223Z" fill="#182D41"/>
<g id="Group 1">
<g id="GeCommerce">
<path d="M6.87947 60.4099H11.9015V67.3779C11.148 67.6334 10.3716 67.8234 9.57228 67.9479C8.77951 68.0724 7.89173 68.1346 6.90895 68.1346C5.41512 68.1346 4.15389 67.8365 3.12524 67.2403C2.10315 66.644 1.32675 65.7956 0.796052 64.6949C0.265351 63.5876 0 62.274 0 60.7539C0 59.2666 0.291558 57.9694 0.874675 56.8621C1.46434 55.7548 2.31281 54.8965 3.42008 54.2872C4.5339 53.6713 5.87048 53.3634 7.42982 53.3634C8.22915 53.3634 8.98589 53.4388 9.70005 53.5894C10.4208 53.7336 11.089 53.94 11.7049 54.2086L11.0661 55.6631C10.5354 55.4338 9.94902 55.2372 9.30693 55.0734C8.6714 54.9096 8.01294 54.8277 7.33154 54.8277C6.15876 54.8277 5.15305 55.0702 4.31441 55.555C3.48232 56.0398 2.84351 56.7245 2.39798 57.609C1.95901 58.4935 1.73952 59.5418 1.73952 60.7539C1.73952 61.9529 1.9328 62.9979 2.31936 63.889C2.70592 64.7735 3.3087 65.4614 4.12768 65.9528C4.94666 66.4442 6.00151 66.6899 7.29223 66.6899C7.94087 66.6899 8.49778 66.6539 8.96296 66.5818C9.42814 66.5032 9.85074 66.4115 10.2307 66.3066V61.9038H6.87947V60.4099Z" fill="#182D41"/>
<path d="M23.3804 67.938H15.3805V53.5698H23.3804V55.044H17.0512V59.6925H23.0167V61.147H17.0512V66.4639H23.3804V67.938Z" fill="#182D41"/>
<path d="M32.7069 54.8376C31.9142 54.8376 31.2 54.9752 30.5645 55.2503C29.9355 55.519 29.3982 55.9121 28.9527 56.4297C28.5137 56.9407 28.1763 57.5599 27.9405 58.2871C27.7046 59.0144 27.5867 59.8334 27.5867 60.7441C27.5867 61.9496 27.7734 62.9979 28.1468 63.889C28.5268 64.7735 29.0903 65.4582 29.8372 65.943C30.5907 66.4278 31.5309 66.6703 32.6578 66.6703C33.2999 66.6703 33.9027 66.6178 34.4661 66.513C35.0361 66.4016 35.5898 66.264 36.127 66.1002V67.5548C35.6029 67.7513 35.0525 67.8955 34.4759 67.9872C33.8994 68.0855 33.2147 68.1346 32.4219 68.1346C30.9609 68.1346 29.7389 67.8332 28.7562 67.2304C27.7799 66.6211 27.0461 65.7628 26.5547 64.6556C26.0699 63.5483 25.8275 62.2412 25.8275 60.7343C25.8275 59.6467 25.9782 58.654 26.2796 57.7564C26.5875 56.8523 27.033 56.0726 27.6161 55.4174C28.2058 54.7622 28.9265 54.2577 29.7783 53.9039C30.6366 53.5436 31.6193 53.3634 32.7266 53.3634C33.4539 53.3634 34.1549 53.4355 34.8298 53.5796C35.5046 53.7238 36.1139 53.9301 36.6577 54.1988L35.9894 55.614C35.5308 55.4043 35.0263 55.2241 34.4759 55.0734C33.9321 54.9162 33.3425 54.8376 32.7069 54.8376Z" fill="#182D41"/>
<path d="M51.7041 60.7343C51.7041 61.8415 51.5632 62.8505 51.2815 63.7612C50.9998 64.6654 50.5804 65.4451 50.0235 66.1002C49.4732 66.7489 48.7885 67.2501 47.9695 67.6039C47.1505 67.9577 46.2005 68.1346 45.1195 68.1346C44.0056 68.1346 43.0327 67.9577 42.2006 67.6039C41.3751 67.2501 40.6871 66.7456 40.1368 66.0904C39.593 65.4352 39.1835 64.6523 38.9083 63.7416C38.6397 62.8309 38.5053 61.8219 38.5053 60.7146C38.5053 59.247 38.7478 57.9595 39.2326 56.8523C39.7174 55.745 40.4513 54.8834 41.434 54.2676C42.4234 53.6517 43.6617 53.3438 45.1489 53.3438C46.5707 53.3438 47.7664 53.6484 48.7361 54.2577C49.7123 54.8671 50.4494 55.7254 50.9474 56.8326C51.4518 57.9333 51.7041 59.2339 51.7041 60.7343ZM40.2645 60.7343C40.2645 61.9529 40.4382 63.0078 40.7854 63.8988C41.1327 64.7899 41.6634 65.4778 42.3775 65.9627C43.0982 66.4475 44.0122 66.6899 45.1195 66.6899C46.2333 66.6899 47.144 66.4475 47.8516 65.9627C48.5658 65.4778 49.0932 64.7899 49.4339 63.8988C49.7746 63.0078 49.9449 61.9529 49.9449 60.7343C49.9449 58.8801 49.5551 57.4321 48.7754 56.3904C48.0023 55.3421 46.7935 54.8179 45.1489 54.8179C44.0351 54.8179 43.1179 55.0571 42.3972 55.5354C41.6765 56.0136 41.1392 56.695 40.7854 57.5795C40.4382 58.4575 40.2645 59.5091 40.2645 60.7343Z" fill="#182D41"/>
<path d="M61.2272 67.938L56.4018 55.2209H56.3232C56.3494 55.4895 56.3723 55.8171 56.392 56.2036C56.4116 56.5902 56.428 57.0128 56.4411 57.4714C56.4542 57.9235 56.4608 58.3854 56.4608 58.8572V67.938H54.908V53.5698H57.3846L61.9348 65.5204H62.0036L66.6227 53.5698H69.0797V67.938H67.4286V58.7392C67.4286 58.3133 67.4351 57.8875 67.4482 57.4616C67.4613 57.0292 67.4777 56.623 67.4974 56.243C67.517 55.8564 67.5367 55.5222 67.5564 55.2405H67.4777L62.5933 67.938H61.2272Z" fill="#182D41"/>
<path d="M79.3301 67.938L74.5046 55.2209H74.426C74.4522 55.4895 74.4751 55.8171 74.4948 56.2036C74.5144 56.5902 74.5308 57.0128 74.5439 57.4714C74.557 57.9235 74.5636 58.3854 74.5636 58.8572V67.938H73.0108V53.5698H75.4874L80.0377 65.5204H80.1065L84.7255 53.5698H87.1825V67.938H85.5314V58.7392C85.5314 58.3133 85.538 57.8875 85.5511 57.4616C85.5642 57.0292 85.5806 56.623 85.6002 56.243C85.6199 55.8564 85.6395 55.5222 85.6592 55.2405H85.5806L80.6961 67.938H79.3301Z" fill="#182D41"/>
<path d="M99.1134 67.938H91.1136V53.5698H99.1134V55.044H92.7843V59.6925H98.7498V61.147H92.7843V66.4639H99.1134V67.938Z" fill="#182D41"/>
<path d="M106.18 53.5698C107.359 53.5698 108.332 53.7172 109.098 54.012C109.872 54.3003 110.448 54.7426 110.828 55.3388C111.208 55.935 111.398 56.695 111.398 57.6188C111.398 58.3789 111.261 59.0144 110.985 59.5254C110.71 60.0299 110.35 60.4394 109.904 60.7539C109.459 61.0684 108.984 61.3108 108.479 61.4812L112.42 67.938H110.474L106.956 61.9431H103.968V67.938H102.298V53.5698H106.18ZM106.081 55.0145H103.968V60.5279H106.248C107.421 60.5279 108.283 60.2887 108.833 59.8104C109.39 59.3322 109.669 58.6278 109.669 57.6975C109.669 56.7212 109.374 56.03 108.784 55.6238C108.201 55.2176 107.3 55.0145 106.081 55.0145Z" fill="#182D41"/>
<path d="M120.862 54.8376C120.07 54.8376 119.355 54.9752 118.72 55.2503C118.091 55.519 117.554 55.9121 117.108 56.4297C116.669 56.9407 116.332 57.5599 116.096 58.2871C115.86 59.0144 115.742 59.8334 115.742 60.7441C115.742 61.9496 115.929 62.9979 116.302 63.889C116.682 64.7735 117.246 65.4582 117.993 65.943C118.746 66.4278 119.686 66.6703 120.813 66.6703C121.455 66.6703 122.058 66.6178 122.622 66.513C123.192 66.4016 123.745 66.264 124.282 66.1002V67.5548C123.758 67.7513 123.208 67.8955 122.631 67.9872C122.055 68.0855 121.37 68.1346 120.577 68.1346C119.116 68.1346 117.894 67.8332 116.912 67.2304C115.935 66.6211 115.202 65.7628 114.71 64.6556C114.225 63.5483 113.983 62.2412 113.983 60.7343C113.983 59.6467 114.134 58.654 114.435 57.7564C114.743 56.8523 115.188 56.0726 115.772 55.4174C116.361 54.7622 117.082 54.2577 117.934 53.9039C118.792 53.5436 119.775 53.3634 120.882 53.3634C121.609 53.3634 122.31 53.4355 122.985 53.5796C123.66 53.7238 124.269 53.9301 124.813 54.1988L124.145 55.614C123.686 55.4043 123.182 55.2241 122.631 55.0734C122.088 54.9162 121.498 54.8376 120.862 54.8376Z" fill="#182D41"/>
<path d="M135.398 67.938H127.398V53.5698H135.398V55.044H129.069V59.6925H135.034V61.147H129.069V66.4639H135.398V67.938Z" fill="#182D41"/>
</g>
<g id="All in one place">
<path d="M8.92346 89.3524L7.51916 85.8065H2.94738L1.55087 89.3524H0.208984L4.67155 78.1338H5.8652L10.2966 89.3524H8.92346ZM7.12128 84.6525L5.78719 81.1295C5.75598 81.0378 5.70397 80.8875 5.63115 80.6786C5.56354 80.4698 5.49332 80.2532 5.42051 80.0291C5.34769 79.8049 5.28788 79.624 5.24107 79.4865C5.18906 79.6954 5.13185 79.9042 5.06943 80.1131C5.01222 80.3169 4.95501 80.508 4.8978 80.6863C4.84058 80.8595 4.79117 81.0072 4.74956 81.1295L3.39207 84.6525H7.12128Z" fill="#5C7F8A"/>
<path d="M11.8803 89.3524V78.1797H13.2066V88.1908H18.2699V89.3524H11.8803Z" fill="#5C7F8A"/>
<path d="M20.2281 89.3524V78.1797H21.5544V88.1908H26.6177V89.3524H20.2281Z" fill="#5C7F8A"/>
<path d="M32.7264 89.3524V78.1797H34.0527V89.3524H32.7264Z" fill="#5C7F8A"/>
<path d="M46.1063 89.3524H44.5772L38.3592 79.9679H38.2968C38.3124 80.2176 38.3306 80.5029 38.3514 80.8238C38.3722 81.1397 38.3878 81.4785 38.3982 81.8402C38.4138 82.1969 38.4216 82.5611 38.4216 82.9331V89.3524H37.189V78.1797H38.7103L44.9048 87.5336H44.9594C44.949 87.3553 44.936 87.1031 44.9204 86.777C44.9048 86.4459 44.8892 86.0918 44.8736 85.7148C44.8632 85.3327 44.858 84.9786 44.858 84.6525V78.1797H46.1063V89.3524Z" fill="#5C7F8A"/>
<path d="M63.2622 83.7508C63.2622 84.6118 63.1504 85.3964 62.9267 86.1045C62.7031 86.8076 62.3702 87.4139 61.9281 87.9233C61.4912 88.4277 60.9477 88.8175 60.2976 89.0926C59.6474 89.3677 58.8932 89.5052 58.0351 89.5052C57.1509 89.5052 56.3785 89.3677 55.718 89.0926C55.0626 88.8175 54.5165 88.4252 54.0796 87.9157C53.6479 87.4062 53.3228 86.7974 53.1044 86.0892C52.8912 85.3811 52.7845 84.5965 52.7845 83.7355C52.7845 82.5943 52.977 81.5931 53.3619 80.7321C53.7467 79.8711 54.3293 79.2012 55.1094 78.7223C55.8948 78.2434 56.8778 78.0039 58.0585 78.0039C59.1871 78.0039 60.1363 78.2408 60.9061 78.7146C61.681 79.1884 62.2662 79.8558 62.6615 80.7168C63.0619 81.5728 63.2622 82.5841 63.2622 83.7508ZM54.181 83.7508C54.181 84.6984 54.3189 85.5186 54.5945 86.2115C54.8702 86.9044 55.2915 87.4393 55.8584 87.8163C56.4305 88.1934 57.1561 88.3819 58.0351 88.3819C58.9193 88.3819 59.6422 88.1934 60.2039 87.8163C60.7709 87.4393 61.1895 86.9044 61.46 86.2115C61.7305 85.5186 61.8657 84.6984 61.8657 83.7508C61.8657 82.3089 61.5562 81.183 60.9373 80.373C60.3236 79.5578 59.3639 79.1502 58.0585 79.1502C57.1743 79.1502 56.4461 79.3362 55.874 79.7081C55.3019 80.08 54.8754 80.6099 54.5945 81.2976C54.3189 81.9803 54.181 82.798 54.181 83.7508Z" fill="#5C7F8A"/>
<path d="M74.7229 89.3524H73.1937L66.9758 79.9679H66.9134C66.929 80.2176 66.9472 80.5029 66.968 80.8238C66.9888 81.1397 67.0044 81.4785 67.0148 81.8402C67.0304 82.1969 67.0382 82.5611 67.0382 82.9331V89.3524H65.8055V78.1797H67.3269L73.5214 87.5336H73.576C73.5656 87.3553 73.5526 87.1031 73.537 86.777C73.5214 86.4459 73.5058 86.0918 73.4902 85.7148C73.4798 85.3327 73.4746 84.9786 73.4746 84.6525V78.1797H74.7229V89.3524Z" fill="#5C7F8A"/>
<path d="M84.1863 89.3524H77.8357V78.1797H84.1863V79.326H79.162V82.9407H83.8976V84.0717H79.162V88.2061H84.1863V89.3524Z" fill="#5C7F8A"/>
<path d="M93.8448 78.1797C95.3167 78.1797 96.3907 78.4624 97.0669 79.0279C97.7482 79.5884 98.0889 80.3933 98.0889 81.4428C98.0889 81.9167 98.0083 82.3675 97.8471 82.7955C97.691 83.2184 97.4362 83.5928 97.0825 83.9189C96.7288 84.2399 96.2633 84.4946 95.686 84.6831C95.1139 84.8665 94.4117 84.9582 93.5795 84.9582H92.1908V89.3524H90.8645V78.1797H93.8448ZM93.72 79.2878H92.1908V83.8425H93.4313C94.1595 83.8425 94.7654 83.766 95.2491 83.6132C95.738 83.4604 96.1047 83.2133 96.3491 82.8719C96.5936 82.5255 96.7158 82.0669 96.7158 81.4963C96.7158 80.7525 96.474 80.1997 95.9902 79.838C95.5065 79.4712 94.7498 79.2878 93.72 79.2878Z" fill="#5C7F8A"/>
<path d="M100.476 89.3524V78.1797H101.803V88.1908H106.866V89.3524H100.476Z" fill="#5C7F8A"/>
<path d="M115.978 89.3524L114.574 85.8065H110.002L108.606 89.3524H107.264L111.726 78.1338H112.92L117.351 89.3524H115.978ZM114.176 84.6525L112.842 81.1295C112.811 81.0378 112.759 80.8875 112.686 80.6786C112.618 80.4698 112.548 80.2532 112.475 80.0291C112.402 79.8049 112.343 79.624 112.296 79.4865C112.244 79.6954 112.187 79.9042 112.124 80.1131C112.067 80.3169 112.01 80.508 111.952 80.6863C111.895 80.8595 111.846 81.0072 111.804 81.1295L110.447 84.6525H114.176Z" fill="#5C7F8A"/>
<path d="M123.811 79.1655C123.182 79.1655 122.615 79.2725 122.11 79.4865C121.611 79.6954 121.184 80.001 120.831 80.4035C120.482 80.8009 120.214 81.2824 120.027 81.8479C119.84 82.4134 119.746 83.0502 119.746 83.7584C119.746 84.6958 119.895 85.511 120.191 86.2039C120.493 86.8917 120.94 87.4241 121.533 87.8011C122.131 88.1781 122.877 88.3666 123.772 88.3666C124.282 88.3666 124.76 88.3258 125.208 88.2443C125.66 88.1577 126.1 88.0507 126.526 87.9233V89.0544C126.11 89.2072 125.673 89.3193 125.215 89.3906C124.758 89.467 124.214 89.5052 123.585 89.5052C122.425 89.5052 121.455 89.2709 120.675 88.8022C119.9 88.3284 119.317 87.661 118.927 86.7999C118.542 85.9389 118.35 84.9225 118.35 83.7508C118.35 82.905 118.469 82.1332 118.709 81.4352C118.953 80.7321 119.307 80.1259 119.77 79.6164C120.238 79.1069 120.81 78.7146 121.486 78.4395C122.167 78.1593 122.948 78.0192 123.827 78.0192C124.404 78.0192 124.961 78.0752 125.496 78.1873C126.032 78.2994 126.516 78.4599 126.947 78.6688L126.417 79.7692C126.053 79.6062 125.652 79.4661 125.215 79.3489C124.784 79.2266 124.316 79.1655 123.811 79.1655Z" fill="#5C7F8A"/>
<path d="M135.35 89.3524H128.999V78.1797H135.35V79.326H130.325V82.9407H135.061V84.0717H130.325V88.2061H135.35V89.3524Z" fill="#5C7F8A"/>
</g>
</g>
</g>
</svg>
