<svg width="36" height="37" viewBox="0 0 36 37" fill="none" xmlns="http://www.w3.org/2000/svg">
<g id="master-card-svgrepo-com 1">
<path id="Vector" d="M14.8353 18.4129C14.8353 15.7339 16.0693 13.3434 17.9999 11.778C16.5329 10.5884 14.663 9.875 12.627 9.875C7.91174 9.875 4.08984 13.6973 4.08984 18.4128C4.08984 23.1281 7.91174 26.9501 12.627 26.9501C14.6633 26.9501 16.5329 26.2371 17.9999 25.0471C16.0693 23.4822 14.8353 21.0918 14.8353 18.4129Z" fill="#182D41"/>
<path id="Vector_2" d="M23.3729 9.875C21.3366 9.875 19.4676 10.5884 18 11.778C19.9309 13.3434 21.1649 15.7339 21.1649 18.4129C21.1649 21.0918 19.9309 23.4822 18 25.0473C19.4676 26.2371 21.3369 26.9503 23.3729 26.9503C28.0885 26.9503 31.9103 23.1282 31.9103 18.4129C31.9103 13.6973 28.0882 9.875 23.3729 9.875Z" fill="#B3C9D0"/>
<path id="Vector_3" d="M21.1645 18.4084C21.1645 15.7294 19.9305 13.3388 17.9996 11.7734C16.0691 13.3388 14.835 15.7294 14.835 18.4084C14.835 21.0872 16.069 23.4776 17.9996 25.0427C19.9304 23.4776 21.1645 21.0872 21.1645 18.4084Z" fill="#5C7F8A"/>
</g>
</svg>
