<svg width="24" height="25" viewBox="0 0 24 25" fill="none" xmlns="http://www.w3.org/2000/svg">
<g id="mobile-button-svgrepo-com 1">
<path id="Vector" d="M16.5 1.75781H7.5C6.3615 1.75931 5.439 2.68181 5.4375 3.82031V21.8203C5.439 22.9588 6.3615 23.8813 7.5 23.8828H16.5C17.6385 23.8813 18.561 22.9588 18.5625 21.8203V3.82031C18.561 2.68181 17.6385 1.75931 16.5 1.75781ZM17.4375 21.8203C17.4368 22.3378 17.0175 22.7571 16.5 22.7578H7.5C6.9825 22.7571 6.56325 22.3378 6.5625 21.8203V3.82031C6.56325 3.30281 6.9825 2.88356 7.5 2.88281H16.5C17.0175 2.88356 17.4368 3.30281 17.4375 3.82031V21.8203ZM11.475 19.7946C11.3363 19.9243 11.25 20.1081 11.25 20.3121C11.25 20.3151 11.25 20.3181 11.25 20.3211C11.25 20.3241 11.25 20.3271 11.25 20.3308C11.25 20.5386 11.3363 20.7261 11.475 20.8588C11.607 20.9976 11.793 21.0846 12 21.0846C12.207 21.0846 12.393 20.9983 12.5242 20.8596C12.6637 20.7261 12.75 20.5378 12.75 20.3301C12.75 20.3271 12.75 20.3233 12.75 20.3203C12.75 20.3181 12.75 20.3158 12.75 20.3136C12.75 20.1088 12.663 19.9251 12.525 19.7961L12.5242 19.7953C12.3885 19.6633 12.204 19.5823 11.9992 19.5823C11.7945 19.5823 11.61 19.6633 11.4742 19.7953L11.475 19.7946Z" fill="#5C7F8A"/>
</g>
</svg>
