<svg width="36" height="37" viewBox="0 0 36 37" fill="none" xmlns="http://www.w3.org/2000/svg">
<g id="Payment methods icons">
<path id="Vector" d="M26.5085 13.0563L12.7062 28.1172H7.64366C7.2921 28.1172 7.01085 27.7656 7.08116 27.4141L10.4562 6.03906C10.5265 5.54688 10.9483 5.19531 11.4405 5.19531H20.0187C25.9249 5.40625 27.5421 8.42969 26.4874 13.0703L26.5085 13.0563Z" fill="#002C8A"/>
<path id="Vector_2" d="M26.7335 11.6641C28.8429 12.7891 29.3351 14.8984 28.6319 17.7109C27.7179 21.8594 24.9757 23.6172 20.9679 23.6875L19.8429 23.7578C19.421 23.7578 19.1398 24.0391 19.0694 24.4609L18.1554 30.0156C18.0851 30.5078 17.6632 30.8594 17.171 30.8594H12.9523C12.6007 30.8594 12.3194 30.5078 12.3898 30.1562L13.9366 20.1016C14.0069 19.75 26.7335 11.6641 26.7335 11.6641Z" fill="#009BE1"/>
<path id="Vector_3" d="M13.8516 20.5938L15.2578 11.6641C15.3039 11.4526 15.4185 11.2622 15.5837 11.1224C15.749 10.9826 15.9557 10.9011 16.1719 10.8906H22.9219C24.5391 10.8906 25.7344 11.1719 26.7188 11.6641C26.3672 14.7578 24.8906 19.75 17.7188 19.8906H14.625C14.2734 19.8906 13.9219 20.1719 13.8516 20.5938Z" fill="#001F6B"/>
</g>
</svg>
