<svg width="25" height="25" viewBox="0 0 25 25" fill="none" xmlns="http://www.w3.org/2000/svg">
<g id="plus-svgrepo-com 1">
<path id="Vector" d="M21.053 12.038H12.928V3.9396C12.928 3.40268 12.5262 3 11.9905 3C11.4548 3 11.053 3.40268 11.053 3.9396V12.0828H2.97266C2.43694 12.038 2.03516 12.4407 2.03516 12.9776C2.03516 13.5145 2.43694 13.9172 2.97266 13.9172H11.0977V22.0604C11.0977 22.5973 11.4994 23 12.0352 23C12.5709 23 12.9727 22.5973 12.9727 22.0604V13.8725H21.0977C21.6334 13.8725 22.0352 13.4698 22.0352 12.9329C22.0352 12.396 21.5441 12.038 21.053 12.038Z" fill="#182D41"/>
</g>
</svg>
