<svg width="33" height="33" viewBox="0 0 33 33" fill="none" xmlns="http://www.w3.org/2000/svg">
<g id="return-svgrepo-com 2" clip-path="url(#clip0_151_1884)">
<circle id="Ellipse 21" cx="16.0342" cy="16.6289" r="16" fill="#F1F8FB"/>
<path id="Vector" d="M31.3382 21.4326C31.3086 21.4019 24.5611 10.6383 24.5276 10.6039C23.48 9.47481 22.0302 8.77413 20.4299 8.77413H15.3432C15.3432 8.77413 15.3414 8.77069 15.3399 8.76919C15.3218 8.75106 15.2989 8.74275 15.2787 8.72844C15.2644 8.70825 11.1166 4.56044 11.0964 4.54619C11.0822 4.526 11.0738 4.503 11.0557 4.48494C10.8831 4.31231 10.6035 4.31231 10.4308 4.48494L6.00642 8.92188C5.8338 9.0945 5.8338 9.37406 6.00642 9.54675L6.51642 10.0568L16.7321 20.3072H16.4731C16.2289 20.3072 16.0312 20.5051 16.0312 20.7491C16.0312 20.8977 16.1092 21.0225 16.2216 21.1027C16.2501 21.1428 22.4064 31.2585 22.4464 31.2871C22.4714 31.3222 22.5022 31.3504 22.5359 31.3765C26.7356 29.5058 29.9807 25.8826 31.3382 21.4326Z" fill="#C5EDFF"/>
<path id="Vector_2" d="M20.4184 8.78194H7.37975L11.0441 5.11756C11.2168 4.94494 11.2168 4.66537 11.0441 4.49275C10.8715 4.32012 10.5919 4.32012 10.4193 4.49275L6.00056 8.9115C5.82794 9.08413 5.82794 9.36369 6.00056 9.53631L10.4193 13.9551C10.5056 14.0414 10.6186 14.0845 10.7317 14.0845C10.8448 14.0845 10.9578 14.0414 11.0441 13.9551C11.2167 13.7824 11.2167 13.5029 11.0441 13.3303L7.37969 9.66588H20.4184C23.1175 9.66588 25.3134 12.0446 25.3134 14.9683C25.3134 17.892 23.1174 20.2708 20.4184 20.2708H16.4761C16.2318 20.2708 16.0342 20.4687 16.0342 20.7127C16.0342 20.9567 16.2319 21.1546 16.4761 21.1546H20.4184C23.6047 21.1546 26.1973 18.3795 26.1973 14.9684C26.1973 11.5573 23.6047 8.78194 20.4184 8.78194Z" fill="#5C7F8A"/>
<g id="Group">
<path id="Vector_3" d="M22.3122 14.8281V26.4177H15.7031L16.5853 15.4013L17.7321 14.8281H22.3122Z" fill="#F1F8FB"/>
<path id="Vector_4" d="M16.5855 15.4013V26.4177H10.8594V14.8281H15.4395L16.5855 15.4013Z" fill="white"/>
<path id="Vector_5" d="M17.7323 14.8281H15.4395V18.2673H17.7323V14.8281Z" fill="#FFA3A3"/>
</g>
</g>
<defs>
<clipPath id="clip0_151_1884">
<rect width="32" height="32" fill="white" transform="translate(0.0341797 0.628906)"/>
</clipPath>
</defs>
</svg>
