<svg width="29" height="29" viewBox="0 0 29 29" fill="none" xmlns="http://www.w3.org/2000/svg">
<g id="share-svgrepo-com 1">
<g id="style=linear">
<g id="share">
<path id="vector" d="M17.3146 19.4662L10.8848 15.7539" stroke="#182D41" stroke-width="1.5" stroke-linecap="square"/>
<path id="vector_2" d="M17.3146 9.18359L10.8848 12.8958" stroke="#182D41" stroke-width="1.5" stroke-linecap="square"/>
<path id="vector_3" d="M7.21016 17.1195C8.75655 17.1195 10.0102 15.8659 10.0102 14.3195C10.0102 12.7731 8.75655 11.5195 7.21016 11.5195C5.66376 11.5195 4.41016 12.7731 4.41016 14.3195C4.41016 15.8659 5.66376 17.1195 7.21016 17.1195Z" stroke="#182D41" stroke-width="1.5"/>
<path id="vector_4" d="M20.8605 18.5211C22.4069 18.5211 23.6605 19.7747 23.6605 21.3211C23.6605 22.8675 22.4069 24.1211 20.8605 24.1211C19.3141 24.1211 18.0605 22.8675 18.0605 21.3211C18.0605 19.7747 19.3141 18.5211 20.8605 18.5211Z" stroke="#182D41" stroke-width="1.5"/>
<path id="vector_5" d="M20.8605 10.1273C22.4069 10.1273 23.6605 8.87374 23.6605 7.32734C23.6605 5.78095 22.4069 4.52734 20.8605 4.52734C19.3142 4.52734 18.0605 5.78095 18.0605 7.32734C18.0605 8.87374 19.3142 10.1273 20.8605 10.1273Z" stroke="#182D41" stroke-width="1.5"/>
</g>
</g>
</g>
</svg>
