<svg width="18" height="18" viewBox="0 0 18 18" fill="none" xmlns="http://www.w3.org/2000/svg">
<g id="shipping-fast-solid-svgrepo-com 1">
<path id="Vector" d="M0 3.375V4.5H10.6875V12.9375H7.22461C6.97412 11.9707 6.104 11.25 5.0625 11.25C4.021 11.25 3.15088 11.9707 2.90039 12.9375H2.25V10.125H1.125V14.0625H2.90039C3.15088 15.0293 4.021 15.75 5.0625 15.75C6.104 15.75 6.97412 15.0293 7.22461 14.0625H11.9004C12.1509 15.0293 13.021 15.75 14.0625 15.75C15.104 15.75 15.9741 15.0293 16.2246 14.0625H18V9.47461L17.9648 9.38672L16.8398 6.01172L16.7168 5.625H11.8125V3.375H0ZM0.5625 5.625V6.75H5.625V5.625H0.5625ZM11.8125 6.75H15.9082L16.875 9.63281V12.9375H16.2246C15.9741 11.9707 15.104 11.25 14.0625 11.25C13.021 11.25 12.1509 11.9707 11.9004 12.9375H11.8125V6.75ZM1.125 7.875V9H4.5V7.875H1.125ZM5.0625 12.375C5.69092 12.375 6.1875 12.8716 6.1875 13.5C6.1875 14.1284 5.69092 14.625 5.0625 14.625C4.43408 14.625 3.9375 14.1284 3.9375 13.5C3.9375 12.8716 4.43408 12.375 5.0625 12.375ZM14.0625 12.375C14.6909 12.375 15.1875 12.8716 15.1875 13.5C15.1875 14.1284 14.6909 14.625 14.0625 14.625C13.4341 14.625 12.9375 14.1284 12.9375 13.5C12.9375 12.8716 13.4341 12.375 14.0625 12.375Z" fill="white"/>
</g>
</svg>
