<svg width="18" height="19" viewBox="0 0 18 19" fill="none" xmlns="http://www.w3.org/2000/svg">
<g id="shipping-fast-solid-svgrepo-com 1">
<path id="Vector" d="M0 4.19922V5.32422H10.6875V13.7617H7.22461C6.97412 12.7949 6.104 12.0742 5.0625 12.0742C4.021 12.0742 3.15088 12.7949 2.90039 13.7617H2.25V10.9492H1.125V14.8867H2.90039C3.15088 15.8535 4.021 16.5742 5.0625 16.5742C6.104 16.5742 6.97412 15.8535 7.22461 14.8867H11.9004C12.1509 15.8535 13.021 16.5742 14.0625 16.5742C15.104 16.5742 15.9741 15.8535 16.2246 14.8867H18V10.2988L17.9648 10.2109L16.8398 6.83594L16.7168 6.44922H11.8125V4.19922H0ZM0.5625 6.44922V7.57422H5.625V6.44922H0.5625ZM11.8125 7.57422H15.9082L16.875 10.457V13.7617H16.2246C15.9741 12.7949 15.104 12.0742 14.0625 12.0742C13.021 12.0742 12.1509 12.7949 11.9004 13.7617H11.8125V7.57422ZM1.125 8.69922V9.82422H4.5V8.69922H1.125ZM5.0625 13.1992C5.69092 13.1992 6.1875 13.6958 6.1875 14.3242C6.1875 14.9526 5.69092 15.4492 5.0625 15.4492C4.43408 15.4492 3.9375 14.9526 3.9375 14.3242C3.9375 13.6958 4.43408 13.1992 5.0625 13.1992ZM14.0625 13.1992C14.6909 13.1992 15.1875 13.6958 15.1875 14.3242C15.1875 14.9526 14.6909 15.4492 14.0625 15.4492C13.4341 15.4492 12.9375 14.9526 12.9375 14.3242C12.9375 13.6958 13.4341 13.1992 14.0625 13.1992Z" fill="url(#paint0_linear_962_9247)"/>
</g>
<defs>
<linearGradient id="paint0_linear_962_9247" x1="0" y1="4.19922" x2="11.5544" y2="21.0056" gradientUnits="userSpaceOnUse">
<stop stop-color="#2868A3"/>
<stop offset="0.390625" stop-color="#3F91BD"/>
<stop offset="1" stop-color="#61CEE6"/>
</linearGradient>
</defs>
</svg>
