<svg width="29" height="29" viewBox="0 0 29 29" fill="none" xmlns="http://www.w3.org/2000/svg">
<g id="store-svgrepo-com 1">
<path id="Vector" d="M23.3688 13.8835V21.3255C23.3688 22.6142 22.3242 23.6589 21.0355 23.6589H7.03549C5.74683 23.6589 4.70216 22.6142 4.70216 21.3255V13.8835M8.78549 11.7005C8.78549 13.1502 7.61024 14.3255 6.16049 14.3255C4.81179 14.3255 3.70066 13.3084 3.55232 11.9994C3.52994 11.8019 3.56088 11.6032 3.61106 11.4109L4.83045 6.73654C5.09848 5.7091 6.0264 4.99219 7.08822 4.99219H20.9828C22.0445 4.99219 22.9725 5.7091 23.2405 6.73654L24.4599 11.4109C24.5101 11.6032 24.5411 11.8019 24.5187 11.9994C24.3703 13.3084 23.2592 14.3255 21.9105 14.3255C20.4608 14.3255 19.2855 13.1502 19.2855 11.7005M8.78549 11.7005C8.78549 13.1502 9.96075 14.3255 11.4105 14.3255C12.8602 14.3255 14.0355 13.1502 14.0355 11.7005M8.78549 11.7005L9.36883 4.99219M19.2855 11.7005C19.2855 13.1502 18.1102 14.3255 16.6605 14.3255C15.2108 14.3255 14.0355 13.1502 14.0355 11.7005M19.2855 11.7005L18.7022 4.99219M14.0355 11.7005V4.99219" stroke="#5C7F8A" stroke-linecap="round" stroke-linejoin="round"/>
</g>
</svg>
