<svg width="36" height="37" viewBox="0 0 36 37" fill="none" xmlns="http://www.w3.org/2000/svg">
<g id="support-svgrepo-com (1) 1">
<path id="Vector" d="M31.5 18.1797H28.5C26.8431 18.1797 25.5 19.5228 25.5 21.1797V24.1797C25.5 25.8365 26.8431 27.1797 28.5 27.1797C30.1569 27.1797 31.5 25.8365 31.5 24.1797V18.1797ZM31.5 18.1797C31.5 10.7238 25.4558 4.67969 18 4.67969C10.5442 4.67969 4.5 10.7238 4.5 18.1797M4.5 18.1797V24.1797C4.5 25.8365 5.84315 27.1797 7.5 27.1797C9.15685 27.1797 10.5 25.8365 10.5 24.1797V21.1797C10.5 19.5228 9.15685 18.1797 7.5 18.1797H4.5Z" stroke="#5C7F8A" stroke-width="2" stroke-linecap="square"/>
<path id="Vector_2" d="M31.5 21.1797V27.1797C31.5 30.1797 30.5 31.6797 28.5 31.6797C26.5 31.6797 24 31.6797 21 31.6797" stroke="#5C7F8A" stroke-width="2" stroke-linecap="square"/>
</g>
</svg>
