<svg width="33" height="33" viewBox="0 0 33 33" fill="none" xmlns="http://www.w3.org/2000/svg">
<g id="truck-svgrepo-com 4" clip-path="url(#clip0_151_1892)">
<path id="Vector" d="M16.5352 32.6289C25.3717 32.6289 32.5352 25.4655 32.5352 16.6289C32.5352 7.79235 25.3717 0.628906 16.5352 0.628906C7.6986 0.628906 0.535156 7.79235 0.535156 16.6289C0.535156 25.4655 7.6986 32.6289 16.5352 32.6289Z" fill="#C5EDFF"/>
<path id="Vector_2" d="M16.5352 32.6289C25.3717 32.6289 32.5352 25.4655 32.5352 16.6289C32.5352 7.79235 25.3717 0.628906 16.5352 0.628906C7.6986 0.628906 0.535156 7.79235 0.535156 16.6289C0.535156 25.4655 7.6986 32.6289 16.5352 32.6289Z" fill="url(#paint0_linear_151_1892)"/>
<path id="Vector_3" d="M2.27344 23.8867C4.91911 29.0773 10.3112 32.63 16.5349 32.63C22.7585 32.63 28.1506 29.0773 30.7963 23.8867H2.27344Z" fill="url(#paint1_linear_151_1892)"/>
<path id="Vector_4" d="M20.4914 19.0977H5.39844V20.5087H20.4914V19.0977Z" fill="#5C7F8A"/>
<path id="Vector_5" d="M18.512 19.0732H4.62855C4.32619 19.0732 4.07422 18.8213 4.07422 18.5189V10.3551C4.07422 10.0527 4.32619 9.80078 4.62855 9.80078H18.512C18.8144 9.80078 19.0663 10.0527 19.0663 10.3551V18.5189C19.0915 18.8213 18.8396 19.0732 18.512 19.0732Z" fill="url(#paint2_linear_151_1892)"/>
<g id="Group">
<path id="Vector_6" d="M5.39887 10.4297H4.69336V18.4423H5.39887V10.4297Z" fill="#E6E9EE"/>
<path id="Vector_7" d="M6.70942 10.4297H6.00391V18.4423H6.70942V10.4297Z" fill="#E6E9EE"/>
<path id="Vector_8" d="M8.01899 10.4297H7.31348V18.4423H8.01899V10.4297Z" fill="#E6E9EE"/>
<path id="Vector_9" d="M9.30414 10.4297H8.59863V18.4423H9.30414V10.4297Z" fill="#E6E9EE"/>
<path id="Vector_10" d="M10.6147 10.4297H9.90918V18.4423H10.6147V10.4297Z" fill="#E6E9EE"/>
<path id="Vector_11" d="M11.9252 10.4297H11.2197V18.4423H11.9252V10.4297Z" fill="#E6E9EE"/>
<path id="Vector_12" d="M13.2348 10.4297H12.5293V18.4423H13.2348V10.4297Z" fill="#E6E9EE"/>
<path id="Vector_13" d="M14.5454 10.4297H13.8398V18.4423H14.5454V10.4297Z" fill="#E6E9EE"/>
<path id="Vector_14" d="M15.8305 10.4297H15.125V18.4423H15.8305V10.4297Z" fill="#E6E9EE"/>
<path id="Vector_15" d="M17.1411 10.4297H16.4355V18.4423H17.1411V10.4297Z" fill="#E6E9EE"/>
<path id="Vector_16" d="M18.4506 10.4297H17.7451V18.4423H18.4506V10.4297Z" fill="#E6E9EE"/>
</g>
<path id="Vector_17" d="M28.6554 16.3536H28.1515C27.7231 16.3536 27.3452 16.0765 27.2192 15.6733L25.9594 11.793C25.8586 11.4906 25.5814 11.2891 25.2538 11.2891H20.668C20.2649 11.2891 19.9121 11.6166 19.9121 12.045V20.7631C19.9121 21.1662 20.2397 21.519 20.668 21.519H28.6554C29.0586 21.519 29.4113 21.1914 29.4113 20.7631V17.1095C29.4113 16.6812 29.0586 16.3536 28.6554 16.3536Z" fill="#FFA3A3"/>
<g id="Group_2">
<path id="Vector_18" d="M20.4658 12.4209V15.243C20.4658 15.4445 20.6422 15.6209 20.8438 15.6209H22.1792V12.043H20.8438C20.6422 12.043 20.4658 12.1941 20.4658 12.4209Z" fill="white"/>
<path id="Vector_19" d="M24.9005 15.018L24.3966 12.4227C24.3462 12.1959 24.1446 12.0195 23.8927 12.0195H22.6328V15.6227H24.3966C24.7242 15.6227 24.9509 15.3455 24.9005 15.018Z" fill="white"/>
<path id="Vector_20" d="M27.1933 15.6227H26.009C25.8579 15.6227 25.7067 15.4967 25.7067 15.3455L25.3035 12.3723C25.2783 12.1707 25.4295 12.0195 25.6059 12.0195H26.009L27.1933 15.6227Z" fill="white"/>
</g>
<path id="Vector_21" d="M27.5203 21.4652H21.7754C21.851 19.9282 23.1108 18.7188 24.6478 18.7188C26.1848 18.7188 27.4447 19.9534 27.5203 21.4652Z" fill="#5C7F8A"/>
<path id="Vector_22" d="M24.648 23.9601C25.9422 23.9601 26.9913 22.9109 26.9913 21.6167C26.9913 20.3226 25.9422 19.2734 24.648 19.2734C23.3538 19.2734 22.3047 20.3226 22.3047 21.6167C22.3047 22.9109 23.3538 23.9601 24.648 23.9601Z" fill="#182D41"/>
<path id="Vector_23" d="M24.6739 23.2561C25.5785 23.2561 26.3117 22.5228 26.3117 21.6183C26.3117 20.7137 25.5785 19.9805 24.6739 19.9805C23.7694 19.9805 23.0361 20.7137 23.0361 21.6183C23.0361 22.5228 23.7694 23.2561 24.6739 23.2561Z" fill="#2B3B4E"/>
<path id="Vector_24" d="M24.6739 23.0021C25.4393 23.0021 26.0597 22.3817 26.0597 21.6163C26.0597 20.8509 25.4393 20.2305 24.6739 20.2305C23.9085 20.2305 23.2881 20.8509 23.2881 21.6163C23.2881 22.3817 23.9085 23.0021 24.6739 23.0021Z" fill="#E6E9EE"/>
<g id="Group_3">
<path id="Vector_25" d="M25.0764 20.9117C25.0764 21.0881 24.8748 20.9621 24.6481 20.9621C24.4213 20.9621 24.2197 21.0881 24.2197 20.9117C24.2197 20.7354 24.4213 20.6094 24.6481 20.6094C24.8748 20.6094 25.0764 20.7354 25.0764 20.9117Z" fill="#2B3B4E"/>
<path id="Vector_26" d="M24.2451 22.3245C24.2451 22.1481 24.4467 22.2741 24.6735 22.2741C24.9002 22.2741 25.1018 22.1481 25.1018 22.3245C25.1018 22.5008 24.9002 22.6268 24.6735 22.6268C24.4467 22.6268 24.2451 22.4756 24.2451 22.3245Z" fill="#2B3B4E"/>
<path id="Vector_27" d="M25.3791 22.0442C25.2028 22.0442 25.3287 21.8426 25.3287 21.6158C25.3287 21.3891 25.2028 21.1875 25.3791 21.1875C25.5555 21.1875 25.6815 21.3891 25.6815 21.6158C25.6815 21.8426 25.5303 22.0442 25.3791 22.0442Z" fill="#2B3B4E"/>
<path id="Vector_28" d="M23.943 21.1875C24.1194 21.1875 23.9934 21.3891 23.9934 21.6158C23.9934 21.8426 24.1194 22.0442 23.943 22.0442C23.7666 22.0442 23.6406 21.8426 23.6406 21.6158C23.6658 21.3639 23.7918 21.1875 23.943 21.1875Z" fill="#2B3B4E"/>
<path id="Vector_29" d="M24.6731 21.9711C24.8679 21.9711 25.0258 21.8132 25.0258 21.6184C25.0258 21.4236 24.8679 21.2656 24.6731 21.2656C24.4782 21.2656 24.3203 21.4236 24.3203 21.6184C24.3203 21.8132 24.4782 21.9711 24.6731 21.9711Z" fill="#2B3B4E"/>
</g>
<path id="Vector_30" d="M9.05229 23.9601C10.3465 23.9601 11.3956 22.9109 11.3956 21.6167C11.3956 20.3226 10.3465 19.2734 9.05229 19.2734C7.75812 19.2734 6.70898 20.3226 6.70898 21.6167C6.70898 22.9109 7.75812 23.9601 9.05229 23.9601Z" fill="#182D41"/>
<path id="Vector_31" d="M9.05186 23.2561C9.95639 23.2561 10.6897 22.5228 10.6897 21.6183C10.6897 20.7137 9.95639 19.9805 9.05186 19.9805C8.14733 19.9805 7.41406 20.7137 7.41406 21.6183C7.41406 22.5228 8.14733 23.2561 9.05186 23.2561Z" fill="#2B3B4E"/>
<path id="Vector_32" d="M9.05184 23.0021C9.81721 23.0021 10.4377 22.3817 10.4377 21.6163C10.4377 20.8509 9.81721 20.2305 9.05184 20.2305C8.28647 20.2305 7.66602 20.8509 7.66602 21.6163C7.66602 22.3817 8.28647 23.0021 9.05184 23.0021Z" fill="#E6E9EE"/>
<g id="Group_4">
<path id="Vector_33" d="M9.47974 20.9117C9.47974 21.0881 9.27817 20.9621 9.05139 20.9621C8.82462 20.9621 8.62305 21.0881 8.62305 20.9117C8.62305 20.7354 8.82462 20.6094 9.05139 20.6094C9.27817 20.6094 9.47974 20.7354 9.47974 20.9117Z" fill="#2B3B4E"/>
<path id="Vector_34" d="M8.62305 22.3245C8.62305 22.1481 8.82462 22.2741 9.05139 22.2741C9.27817 22.2741 9.47974 22.1481 9.47974 22.3245C9.47974 22.5008 9.27817 22.6268 9.05139 22.6268C8.79943 22.6268 8.62305 22.4756 8.62305 22.3245Z" fill="#2B3B4E"/>
<path id="Vector_35" d="M9.75805 22.0442C9.58167 22.0442 9.70766 21.8426 9.70766 21.6158C9.70766 21.3891 9.58167 21.1875 9.75805 21.1875C9.93443 21.1875 10.0604 21.3891 10.0604 21.6158C10.0604 21.8426 9.90923 22.0442 9.75805 22.0442Z" fill="#2B3B4E"/>
<path id="Vector_36" d="M8.34631 21.1875C8.52269 21.1875 8.3967 21.3891 8.3967 21.6158C8.3967 21.8426 8.52269 22.0442 8.34631 22.0442C8.16993 22.0442 8.04395 21.8426 8.04395 21.6158C8.04395 21.3639 8.16993 21.1875 8.34631 21.1875Z" fill="#2B3B4E"/>
<path id="Vector_37" d="M9.05197 21.9711C9.2468 21.9711 9.40473 21.8132 9.40473 21.6184C9.40473 21.4236 9.2468 21.2656 9.05197 21.2656C8.85715 21.2656 8.69922 21.4236 8.69922 21.6184C8.69922 21.8132 8.85715 21.9711 9.05197 21.9711Z" fill="#2B3B4E"/>
</g>
</g>
<defs>
<linearGradient id="paint0_linear_151_1892" x1="0.535156" y1="0.628906" x2="27.1126" y2="24.1255" gradientUnits="userSpaceOnUse">
<stop stop-color="#C5EDFF"/>
<stop offset="1" stop-color="#F1F8FB"/>
</linearGradient>
<linearGradient id="paint1_linear_151_1892" x1="2.27344" y1="23.8867" x2="7.17332" y2="39.8713" gradientUnits="userSpaceOnUse">
<stop stop-color="#2868A3"/>
<stop offset="0.390625" stop-color="#3F91BD"/>
<stop offset="1" stop-color="#61CEE6"/>
</linearGradient>
<linearGradient id="paint2_linear_151_1892" x1="4.07422" y1="9.80078" x2="19.0679" y2="19.0742" gradientUnits="userSpaceOnUse">
<stop stop-color="white"/>
<stop offset="1" stop-color="white"/>
</linearGradient>
<clipPath id="clip0_151_1892">
<rect width="32" height="32" fill="white" transform="translate(0.535156 0.628906)"/>
</clipPath>
</defs>
</svg>
