<svg width="24" height="25" viewBox="0 0 24 25" fill="none" xmlns="http://www.w3.org/2000/svg">
<g id="united-kingdom-uk-svgrepo-com 1">
<path id="Vector" d="M22.2026 4.95703H1.79742C0.804703 4.95703 0 5.76173 0 6.75445V18.8838C0 19.8765 0.804703 20.6812 1.79742 20.6812H22.2026C23.1952 20.6812 24 19.8765 24 18.8838V6.75445C24 5.76173 23.1953 4.95703 22.2026 4.95703Z" fill="#41479B"/>
<path id="Vector_2" d="M23.9751 6.45736C23.8335 5.60616 23.094 4.95703 22.2026 4.95703H21.7349L14.069 9.97955V4.95708H9.93103V9.97959L2.26509 4.95708H1.79742C0.906 4.95708 0.166547 5.60616 0.0248906 6.45741L6.57698 10.7502H0V14.8882H6.57698L0.0248906 19.1809C0.166547 20.0321 0.906 20.6812 1.79742 20.6812H2.26509L9.93103 15.6587V20.6812H14.069V15.6587L21.7349 20.6812H22.2026C23.094 20.6812 23.8335 20.0321 23.9751 19.1809L17.423 14.8881H24V10.7501H17.423L23.9751 6.45736Z" fill="#F5F5F5"/>
<g id="Group">
<path id="Vector_3" d="M13.2414 4.95703H10.7586V11.5777H0V14.0605H10.7586V20.6812H13.2414V14.0605H24V11.5777H13.2414V4.95703Z" fill="#FF4B55"/>
<path id="Vector_4" d="M1.16241 20.5639L9.90849 14.8867H8.38843L0.432617 20.051C0.627289 20.2782 0.877461 20.4563 1.16241 20.5639Z" fill="#FF4B55"/>
<path id="Vector_5" d="M16.2369 14.8867H14.7168L23.1879 20.3854C23.4249 20.2297 23.6227 20.0194 23.7638 19.7725L16.2369 14.8867Z" fill="#FF4B55"/>
<path id="Vector_6" d="M0.19043 5.95155L7.58402 10.7509H9.10409L0.726023 5.3125C0.50107 5.47994 0.316992 5.69884 0.19043 5.95155Z" fill="#FF4B55"/>
<path id="Vector_7" d="M15.5894 10.7493L23.5598 5.57547C23.363 5.34902 23.1108 5.17202 22.8239 5.06641L14.0693 10.7493H15.5894Z" fill="#FF4B55"/>
</g>
</g>
</svg>
