<svg width="189" height="128" viewBox="0 0 189 128" fill="none" xmlns="http://www.w3.org/2000/svg">
<g id="Group">
<g id="Group_2">
<path id="Vector" d="M188.84 6.11856V121.875C188.84 125.171 186.13 127.881 182.834 127.881H6.85313C3.55702 127.881 0.847656 125.171 0.847656 121.875V6.11856C0.847656 2.82245 3.55702 0.140625 6.85313 0.140625H182.834C186.13 0.140625 188.84 2.82245 188.84 6.11856Z" fill="url(#paint0_linear_1180_7049)"/>
<g id="Group_3" opacity="0.2">
<path id="Vector_2" d="M110.771 38.0503C110.365 37.5932 110.111 37.1871 109.603 37.4155C109.095 37.6439 109.095 37.974 108.562 37.5679C108.029 37.1618 108.257 36.6789 107.063 36.2475C105.87 35.8157 105.616 35.562 104.321 35.3843C103.026 35.2066 102.086 35.0289 102.01 35.0289C101.934 35.0289 102.289 35.2573 101.781 35.5113C101.273 35.7654 100.867 35.8161 100.359 35.486C99.8514 35.1559 99.8767 35.0542 99.0135 35.1306C98.1499 35.207 97.6421 35.41 97.2614 35.4607C96.8806 35.5113 97.2614 35.4353 96.6772 35.0289C96.093 34.6224 96.4995 34.394 95.4835 34.47C94.4679 34.5464 94.0361 34.5934 93.782 34.4554C93.5279 34.3177 93.8327 33.6065 92.8424 33.3017C91.8522 32.9969 91.6488 33.2257 91.141 33.1493C90.6332 33.0733 90.6585 32.9463 89.2111 32.8446C87.7637 32.7429 87.8397 32.9716 86.8494 33.2764C85.8592 33.5811 85.6051 33.5811 84.6908 33.5304C83.7766 33.4798 84.0053 34.0382 83.4465 34.1146C82.8877 34.1906 81.9991 33.6322 81.8974 33.3021C81.7957 32.972 82.6593 32.6166 81.8974 32.3118C81.1355 32.007 79.7135 31.4229 79.434 31.5246C79.1546 31.6263 79.307 32.0834 78.7992 32.2101C78.2914 32.3371 77.6312 32.3371 76.844 31.9817C76.0568 31.6263 75.752 31.4504 74.9141 31.5128C74.0763 31.5753 73.6191 31.8293 72.9079 31.88C72.1967 31.9307 71.7653 31.6259 72.2477 31.3975C72.7302 31.1692 73.3397 30.4833 73.3397 30.1532C73.3397 29.8231 73.6951 29.1119 72.8826 29.0359C72.07 28.9599 71.9177 29.5184 71.1558 29.0359C70.3939 28.5534 69.4036 28.5281 69.1242 28.6805C68.8448 28.8328 68.8448 29.0869 68.3623 29.1629C67.8799 29.2389 68.0576 29.6707 67.4734 29.8231C66.8892 29.9755 66.9656 29.5184 65.6195 29.6454C64.2735 29.7724 62.9785 29.9502 62.6484 30.3309C62.3183 30.7117 62.7248 31.1435 62.0135 31.4735C61.3023 31.8036 59.6772 31.5496 59.4742 31.829C59.2711 32.1084 60.3631 33.0733 59.6266 33.5051C58.89 33.9369 58.4329 33.2004 56.7318 33.5051C55.0303 33.8099 55.2333 33.7592 54.5989 34.14C53.964 34.5207 53.837 34.267 53.4562 34.8001C53.0755 35.3333 51.9325 35.8161 51.1453 35.8161C50.358 35.8161 50.028 35.3336 49.012 35.7401C47.9964 36.1466 48.1488 36.4256 46.5486 36.2989C44.9489 36.1719 44.2887 36.1972 43.9839 36.4006C43.6792 36.6037 43.6792 37.1118 42.892 37.3402C42.1047 37.5686 40.8857 37.9751 40.581 37.8991C40.2762 37.8231 39.2353 38.3309 38.5241 38.4069C37.8129 38.4832 37.4068 38.4322 37.1784 38.1528C36.9496 37.8734 36.6959 37.3909 37.0513 37.5433C37.4068 37.6956 37.7115 37.8987 38.3464 37.8734C38.9812 37.848 39.6924 37.3402 39.54 37.0608C39.3877 36.7814 39.5147 36.3753 38.2704 36.0705C37.026 35.7658 36.4929 35.8165 35.5533 35.131C34.6137 34.4454 35.9087 33.9883 33.4457 34.242C30.9824 34.4961 30.3222 34.7498 29.3319 35.4864C28.3417 36.2229 28.1382 36.8578 27.1226 37.7463C26.107 38.6352 26.4625 38.889 25.1928 39.5238C23.9231 40.1586 23.7201 39.8539 23.3389 40.8188C22.9578 41.7837 22.7041 42.9011 23.4913 43.1045C24.2785 43.3075 25.0911 42.9521 25.4975 42.7997C25.904 42.6473 26.2088 42.9268 26.2594 43.3839C26.3101 43.841 26.3354 44.6029 26.8436 44.7042C27.3514 44.8059 28.418 44.0947 28.3674 43.3585C28.3167 42.622 28.139 42.1142 28.6468 41.3777C29.1546 40.6411 29.4847 40.108 30.0182 39.8539C30.5513 39.5998 31.2878 39.143 31.0084 39.7268C30.729 40.311 30.2212 40.9965 30.5766 41.5807C30.9321 42.1649 31.7446 41.7584 31.948 42.3426C32.1511 42.9268 31.6686 43.4852 31.5416 43.6886C31.4145 43.8917 31.8463 44.1458 31.2621 44.5522C30.678 44.9583 30.2972 45.3901 29.6624 45.8726C29.0275 46.355 27.1483 46.6851 26.7165 46.5838C26.2848 46.4821 25.5739 46.5838 25.5229 45.9996C25.4722 45.4154 26.1577 44.7806 25.4469 44.5012C24.7357 44.2218 23.9484 44.6029 23.7201 45.5932C23.4913 46.5834 23.1359 46.7611 22.5521 47.2436C21.9679 47.7261 22.4504 49.1988 20.7493 49.4782C19.0478 49.7576 18.0829 49.3512 18.2099 49.9607C18.3369 50.5702 19.4036 50.1891 19.4289 51.205C19.4543 52.2206 19.7083 52.5764 18.9718 52.7794C18.2352 52.9825 18.0575 52.6017 17.0673 52.9318C16.077 53.2619 16.1277 54.5063 15.9246 55.0394C15.7216 55.5725 15.6199 56.055 16.28 56.2837C16.9402 56.5121 18.0069 56.9186 18.7941 56.5885C19.5813 56.2584 20.0384 56.2077 20.1401 55.5982C20.2418 54.9887 20.4956 54.608 21.0291 54.5063C21.5622 54.4046 21.918 53.795 22.2224 53.4396C22.5271 53.0842 22.2224 53.2112 23.0096 53.2366C23.7968 53.2619 24.5333 52.424 24.8124 52.6524C25.0918 52.8808 25.9297 53.3636 26.4628 53.8714C26.996 54.3792 27.7325 54.5316 27.6055 55.2935C27.4784 56.0554 27.4278 56.9388 27.9356 56.713C28.4434 56.4872 28.2656 55.8013 28.5957 55.4712C28.9258 55.1411 29.3576 55.4459 29.3069 54.8617C29.2563 54.2775 28.3927 54.1251 27.9356 53.592C27.4784 53.0589 27.123 52.4747 27.6815 52.6524C28.2399 52.8301 29.3066 53.3126 29.4083 53.719C29.51 54.1255 30.4496 54.9634 30.5509 55.7506C30.6526 56.5378 31.2111 57.249 31.4652 56.8426C31.7193 56.4361 31.4905 56.1314 32.0494 56.03C32.6078 55.9283 32.4048 55.5222 32.7095 54.9887C33.0143 54.4556 33.8522 55.2428 34.1569 54.2522C34.4617 53.2619 33.7762 52.9208 34.5377 52.3803C35.2996 51.8399 35.6297 51.4844 35.858 51.9669C36.0864 52.4494 36.6706 52.9572 36.95 52.4494C37.2294 51.9416 36.4422 51.7892 37.1024 51.4081C37.7626 51.0273 38.3467 50.5702 38.169 51.2304C37.9913 51.8905 37.7372 52.3223 38.1944 52.7794C38.6515 53.2366 39.9972 53.516 39.261 53.9221C38.5244 54.3286 37.4582 54.0998 36.4675 54.5316C35.4773 54.9634 35.3249 54.76 35.0708 55.5729C34.8167 56.3854 34.7914 56.6395 35.6293 56.6395C36.4672 56.6395 36.8483 56.0554 37.0767 56.7919C37.3051 57.5285 37.2544 59.1789 36.899 59.3313C36.5435 59.4836 36.3912 59.2553 34.8167 59.433C33.2423 59.6107 33.3183 59.9918 32.0486 59.3566C30.7789 58.7218 30.4742 57.9345 30.0171 58.7218C29.5599 59.509 29.89 59.9096 28.8998 59.7095C27.9095 59.509 28.6203 59.0776 27.3 58.7475C25.9796 58.4174 25.7256 58.5191 25.7256 57.9349C25.7256 57.3507 25.9033 56.5889 24.862 56.5129C23.8207 56.4369 21.9925 56.8683 20.4941 57.3001C18.9957 57.7319 19.3004 57.1984 17.5736 57.8079C15.8468 58.4174 14.7801 58.6204 14.6024 59.56C14.4247 60.4996 13.8406 61.0327 13.4598 61.5409C13.079 62.0487 12.8756 64.2837 12.7743 65.6547C12.6726 67.0261 13.0284 66.3913 12.6472 67.4069C12.2661 68.4228 13.3328 70.0226 13.7645 70.454C14.1963 70.8858 15.5931 72.2568 16.4816 72.3585C17.3705 72.4603 17.2942 72.0285 18.6656 72.2315C20.037 72.4345 20.0116 71.6473 21.4083 72.0031C22.8051 72.3585 23.3129 72.6126 24.1254 73.0444C24.938 73.4762 25.0143 73.8316 25.0143 74.8729C25.0143 75.9142 25.065 75.127 25.8016 76.5997C26.5381 78.0725 27.8331 79.4439 27.0712 80.7135C26.3094 81.9832 25.9793 82.2116 26.4617 83.4053C26.9442 84.599 28.2902 87.0113 28.4426 88.2303C28.595 89.4493 28.2142 89.5253 28.3666 90.2619C28.519 90.9984 29.8904 91.811 31.1347 91.3032C32.3791 90.7954 32.7598 90.77 33.7758 89.8304C34.7914 88.8908 35.8074 89.6021 36.5693 87.6465C37.3311 85.6913 37.0771 85.4626 37.4071 84.6753C37.7372 83.8881 39.7181 82.7455 39.7941 81.3234C39.8701 79.9014 39.3623 78.8347 39.54 77.4637C39.7178 76.0923 39.8448 74.899 41.1651 73.807C42.4855 72.7151 42.7903 73.7817 43.7045 71.7248C44.6188 69.6679 45.7107 69.1601 44.6948 69.1854C43.6788 69.2108 41.6983 70.0233 40.8604 69.5662C40.0225 69.1091 38.6511 67.0268 38.3717 66.0619C38.0923 65.097 38.194 65.5794 37.7115 64.208C37.2291 62.8367 36.7719 62.1258 36.5689 61.5923C36.3658 61.0592 36.2388 60.1196 36.8483 60.8815C37.4578 61.6434 38.042 62.786 38.8545 64.5381C39.6671 66.2903 40.1495 67.6363 40.8608 67.9158C41.572 68.1952 41.8004 68.5253 42.867 68.0935C43.9336 67.6617 44.3144 67.611 45.3303 67.0522C46.3459 66.4933 46.9555 66.392 47.692 65.6554C48.4285 64.9189 50.1043 64.6141 48.2508 63.9033C46.397 63.1925 45.7621 63.5985 45.229 62.786C44.6959 61.9734 43.8323 61.1609 44.6195 61.2879C45.4067 61.415 45.102 61.6434 45.9909 61.8211C46.8798 61.9988 47.5147 61.5986 47.9971 62.2429C48.4796 62.8877 49.2921 63.3448 50.054 62.989C50.8159 62.6336 51.1207 62.4306 51.9332 62.8873C52.7458 63.3445 52.2126 64.6395 53.4316 64.9949C54.6506 65.3503 54.8537 64.03 55.1078 65.7061C55.3619 67.3823 55.8443 68.931 56.2757 69.2614C56.7075 69.5915 56.0474 71.1153 57.4184 70.7088C58.7898 70.3024 59.1959 70.3534 59.1959 68.9314C59.1959 67.5093 59.1452 67.1539 59.8814 66.6457C60.6179 66.1379 61.6335 65.6301 62.0907 65.0966C62.5478 64.5635 62.2684 64.233 63.1826 64.3347C64.0969 64.4364 66.3568 66.9758 66.2551 67.5089C66.1534 68.0421 66.0521 68.2455 66.4835 68.5756C66.9153 68.9057 66.89 69.0074 67.2201 70.2007C67.5501 71.3943 67.4741 71.2163 68.5151 72.3339C69.5564 73.4512 71.0291 74.2385 70.9021 73.4259C70.775 72.6134 70.2672 72.7147 69.8101 71.4197C69.353 70.1247 68.8198 68.9563 69.4293 69.2868C70.0388 69.6169 69.8611 70.0993 70.496 70.201C71.1308 70.3027 71.2325 69.5662 71.715 69.3374C72.1974 69.1091 73.061 67.2552 72.3751 66.4427C71.6896 65.6301 70.9784 65.0713 71.6896 64.8176C72.4009 64.5635 72.0704 64.7416 72.9086 64.8936C73.7465 65.0459 73.4928 64.6395 74.5084 64.3604C75.524 64.081 76.9971 63.6239 77.7843 62.6083C78.5715 61.5927 79.4348 61.2879 79.2064 59.9419C78.978 58.5962 78.6733 58.012 78.1908 57.6562C77.7083 57.3008 77.683 57.0467 78.1144 56.8944C78.5462 56.742 79.6635 56.7166 79.0287 56.3866C78.3938 56.0565 78.6986 56.2342 77.962 56.0565C77.2255 55.8788 76.4383 56.2342 77.0984 55.6247C77.7586 55.0152 78.2664 54.5074 78.2664 54.5074C78.2664 54.5074 78.0887 54.6344 78.5205 55.0915C78.9523 55.5487 79.2317 55.3456 79.4348 55.2439C79.6378 55.1422 80.2473 54.7108 80.3237 55.1932C80.4001 55.6757 79.5365 56.0311 80.0443 56.2088C80.5521 56.3865 81.0092 55.9294 80.8062 56.8437C80.6031 57.7579 81.0092 58.5958 81.441 58.1387C81.8728 57.6816 82.5076 56.3359 82.3806 55.777C82.2535 55.2186 81.8218 55.4976 82.4059 54.482C82.9901 53.4664 82.9901 52.7552 83.7773 52.8823C84.5645 53.0093 85.3264 52.2474 85.6312 51.9427C85.9359 51.6379 87.2309 50.9267 87.434 50.0635C87.637 49.1999 87.5357 49.0732 87.8147 48.0826C88.0942 47.0923 88.7037 47.0923 87.9418 46.6352C87.1799 46.1781 86.5957 46.2798 86.4691 45.7716C86.342 45.2638 88.5006 42.8004 89.4402 42.4197C90.3798 42.0389 91.04 42.2166 91.6748 42.4957C92.3097 42.7751 92.5127 43.0542 93.0969 42.6987C93.6811 42.3433 94.0618 42.1399 94.3919 42.1146C94.722 42.0892 95.6362 41.4034 96.017 41.7081C96.3978 42.0129 96.4488 42.3429 96.9059 42.1399C97.3631 41.9369 97.9726 40.8702 98.1756 41.251C98.3787 41.6317 98.328 42.0889 97.7691 42.8254C97.2103 43.562 96.7279 43.689 96.017 44.2728C95.3058 44.857 95.0267 45.4665 95.0267 45.9996C95.0267 46.5327 94.8237 48.3106 95.1028 48.3359C95.3822 48.3613 95.4582 48.2853 96.1947 47.3457C96.9313 46.4061 97.312 46.3554 97.7945 45.9996C98.277 45.6442 98.4547 45.2124 98.531 44.3745C98.6074 43.5366 98.0739 43.3332 98.8611 42.9018C99.6483 42.47 100.588 42.0129 101.375 42.1399C102.162 42.2669 101.985 42.2416 102.569 41.6574C103.153 41.0733 103.559 40.6925 104.169 40.7432C104.778 40.7938 105.768 40.9209 105.921 40.6161C106.073 40.3114 105.946 40.0577 105.971 39.6259C105.997 39.1941 105.946 39.0164 106.53 38.864C107.114 38.7116 107.089 38.5086 107.368 38.4069C107.648 38.3052 107.825 38.6099 108.282 38.7876C108.74 38.9653 109.857 38.9907 110.111 38.6606C110.365 38.3298 110.771 38.0503 110.771 38.0503Z" fill="#040000"/>
<path id="Vector_3" d="M88.4782 51.8593C88.8102 51.9816 89.4432 52.4941 89.8243 52.4688C90.2051 52.4435 90.4085 52.9513 90.1037 53.0019C89.799 53.0526 88.7834 53.5351 88.7834 53.5351C88.7834 53.5351 88.4786 53.1543 88.3009 53.5351C88.1232 53.9158 88.0215 54.1952 88.0725 54.424C88.1232 54.6524 88.479 55.3129 88.2756 55.643C88.0725 55.9731 87.7931 56.1508 87.7931 56.5573C87.7931 56.9633 88.0472 57.3951 87.6914 57.5728C87.336 57.7506 86.9802 57.8016 86.6758 57.9029C86.371 58.0046 86.1427 58.03 86.0156 58.3094C85.8886 58.5888 85.5838 58.9949 84.949 58.9696C84.3141 58.9442 84.3141 58.4364 83.73 58.9189C83.1458 59.4014 83.1205 59.6808 82.8157 59.5537C82.511 59.4267 82.7393 59.249 82.8157 58.7665C82.8917 58.2841 81.7744 58.4111 82.7904 57.8523C83.806 57.2934 83.806 57.2174 84.4919 57.1157C85.1774 57.014 85.5585 57.3441 85.8375 56.7603C86.117 56.1761 85.8375 55.9477 86.3964 55.9224C86.9552 55.8971 87.3106 56.1512 87.412 55.516C87.5137 54.8811 87.4373 54.348 87.412 53.9415C87.3866 53.5351 87.2343 53.1543 87.6914 53.0019C88.1485 52.8495 88.1992 53.129 88.2502 52.7735C88.3005 52.4177 87.9958 51.6816 88.4782 51.8593Z" fill="#040000"/>
<path id="Vector_4" d="M78.2673 65.6211C78.7497 65.6975 78.9781 66.5607 78.8261 66.9161C78.6737 67.2715 78.5214 67.678 78.9532 67.754C79.385 67.8304 79.6897 67.881 79.6897 68.1858C79.6897 68.4905 79.8674 67.8557 80.1975 68.6683C80.5276 69.4808 80.2228 69.6078 80.604 70.2174C80.9847 70.8269 81.4418 71.1316 80.9087 71.4364C80.3756 71.7411 80.7817 72.0712 80.2232 71.8935C79.6647 71.7158 79.8931 71.8171 79.6137 71.284C79.3343 70.7509 79.1566 71.1823 78.9029 71.1569C78.6488 71.1316 78.5728 71.1316 78.7758 70.7762C78.9789 70.4208 79.0806 70.4461 78.8522 70.0396C78.6238 69.6332 78.9792 69.1507 78.6491 69.0747C78.3191 68.9987 78.2173 69.5572 77.6335 69.9126C77.0494 70.268 76.1861 70.3697 76.2115 70.2427C76.2368 70.1156 76.5669 69.9379 77.1004 69.2778C77.6335 68.6176 77.964 69.0237 77.8623 68.0081C77.7606 66.9925 77.4052 67.2715 77.7352 66.5607C78.0642 65.8498 78.2673 65.6211 78.2673 65.6211Z" fill="#040000"/>
<path id="Vector_5" d="M76.6486 71.3904C77.033 71.7749 77.5375 71.6699 77.3851 72.0506C77.2327 72.4314 76.7804 72.4824 77.0319 72.8632C77.2834 73.2443 77.5122 73.8028 77.8422 73.7521C78.1723 73.7014 78.147 73.4474 78.9595 73.4474C79.7721 73.4474 80.2799 73.2696 80.3309 73.5997C80.3816 73.9298 79.9755 73.9551 79.442 74.4376C78.9089 74.9201 78.3754 75.4025 78.8072 75.7073C79.239 76.0121 79.4167 76.5709 79.2643 76.7739C79.1119 76.977 78.9596 77.1804 79.315 77.4341C79.6704 77.6882 81.3719 77.6118 80.9654 78.2213C80.559 78.8308 79.5687 79.1609 78.5274 79.1863C77.4861 79.2116 78.3232 78.9068 76.216 78.7038C74.1088 78.5007 73.7534 79.0339 72.2807 78.323C70.808 77.6118 69.8427 78.2213 69.0301 76.9263C68.2176 75.6313 68.5476 76.2661 67.5317 74.9201C66.5161 73.5744 66.9985 73.5744 66.135 73.0409C65.2714 72.5078 64.5352 71.7459 65.1194 71.7459C65.7035 71.7459 65.4241 71.0604 67.2269 72.5584C69.0297 74.0565 68.5473 73.9805 69.868 74.8694C71.1883 75.7583 71.6201 75.8597 72.1026 75.7583C72.5851 75.6566 73.2963 75.7583 72.8392 75.1742C72.382 74.59 72.1279 73.8538 72.5091 73.7268C72.8902 73.5997 72.8645 74.2346 73.4993 73.5491C74.1342 72.8635 74.1342 72.6855 74.693 72.4571C75.2518 72.2287 74.9471 72.4571 75.4802 72.127C76.0137 71.7969 76.2168 70.9587 76.6486 71.3904Z" fill="#040000"/>
<path id="Vector_6" d="M83.6303 74.3296C83.9064 74.6847 84.3668 75.1422 84.5699 75.5233C84.7729 75.9044 85.154 75.2009 85.8902 75.2222C86.6268 75.2439 87.7187 75.65 88.1759 75.8534C88.633 76.0568 89.4202 76.1835 89.9027 76.8436C90.3851 77.5038 90.7406 77.1231 90.7663 77.7832C90.7916 78.4434 90.8933 78.3674 91.3247 78.7482C91.7565 79.1289 91.8325 79.8401 91.0706 79.5354C90.3088 79.2306 90.0804 78.1897 89.2678 78.291C88.4553 78.3927 88.7854 78.6211 88.1505 78.7482C87.5157 78.8752 87.2363 78.6465 86.4744 78.5958C85.7125 78.5451 85.154 78.7988 85.5095 78.1133C85.8649 77.4278 86.119 77.4025 84.8746 76.8943C83.6303 76.3865 83.1478 76.6402 83.1478 76.1071C83.1478 75.574 83.3509 75.5229 82.8684 75.0658C82.3859 74.6087 82.2335 74.2786 82.5383 74.0498C82.8431 73.8214 83.4526 74.1009 83.6303 74.3296Z" fill="#040000"/>
<path id="Vector_7" d="M85.0973 81.6594C85.9351 82.0912 86.2652 82.9544 86.6717 82.802C87.0781 82.6496 86.9258 82.3956 87.2302 81.4817C87.5349 80.5674 87.5602 79.6278 87.9414 80.0089C88.3221 80.3897 87.9667 81.1332 88.5762 81.3711C89.1857 81.6087 89.3128 81.7868 89.4398 82.4976C89.5668 83.2088 89.6939 82.9801 90.3287 83.7166C90.9636 84.4532 91.5338 84.3261 91.6421 85.164C91.7508 86.0019 92.8174 86.8655 92.8681 87.7287C92.9188 88.5923 93.0711 89.2015 92.4363 90.2934C91.8015 91.3854 91.5474 91.9439 91.3443 92.4014C91.1413 92.8585 90.5318 93.0869 89.8716 93.0869C89.2114 93.0869 88.8303 92.8075 88.4242 92.9092C88.0177 93.0109 87.7387 93.5187 87.2562 93.1632C86.7738 92.8078 86.4943 92.3507 86.342 92.0713C86.1896 91.7919 86.1136 90.8523 85.4024 90.954C84.6915 91.0557 84.7929 91.4111 84.3611 90.954C83.9293 90.4968 84.234 90.1161 82.9643 89.9127C81.6947 89.7096 81.3646 89.6079 80.8311 89.735C80.2979 89.862 79.7391 90.0397 79.1549 90.4968C78.5708 90.954 77.6565 90.7256 77.1487 90.954C76.6409 91.1824 75.879 91.6905 75.3202 91.3858C74.7614 91.081 74.9648 90.9286 74.9901 90.2178C75.0154 89.5066 74.9648 89.9894 74.6093 88.7704C74.2539 87.5514 74.4063 87.7291 74.0762 87.1453C73.7461 86.5611 73.492 86.8405 73.9492 86.0027C74.4063 85.1648 74.2539 84.9871 74.5076 84.7076C74.7617 84.4282 74.9901 84.784 75.8537 84.1998C76.7173 83.6157 76.971 83.8697 77.7582 83.565C78.5454 83.2602 78.7231 82.0923 79.2056 81.7365C79.6881 81.3811 79.8151 81.1016 80.1705 81.1016C80.526 81.1016 80.9324 81.3047 81.5673 81.5588C82.2021 81.8128 82.0751 81.8382 82.6086 81.254C83.1417 80.6698 82.6086 80.1114 83.5735 80.2127C84.5384 80.3144 84.8938 80.162 85.0209 80.7205C85.1479 81.2786 85.0973 81.6594 85.0973 81.6594Z" fill="#040000"/>
<path id="Vector_8" d="M102.722 93.6353C103.229 92.9751 103.483 92.8987 103.306 92.1369C103.128 91.375 103.179 90.7776 103.839 91.4572C104.499 92.1369 105.236 92.518 105.743 92.5433C106.251 92.5686 107.47 92.9498 106.226 93.8894C104.981 94.829 105.21 94.1688 104.22 95.5655C103.229 96.9622 103.991 96.9876 102.798 97.6731C101.604 98.3586 100.283 98.6633 100.538 98.0542C100.792 97.4447 100.665 97.4447 101.757 96.6321C102.849 95.8196 103.559 95.2101 103.559 94.5246C103.559 93.8387 102.722 93.6353 102.722 93.6353Z" fill="#040000"/>
<path id="Vector_9" d="M42.0811 86.7885C41.624 86.1283 41.624 85.9249 41.5733 84.8586C41.5226 83.792 41.1668 83.2842 41.5733 82.6746C41.9798 82.0651 43.046 81.0495 43.4525 80.3383C43.859 79.6275 43.9603 78.1037 44.2144 79.4747C44.4685 80.8461 45.281 81.6587 44.062 83.4872C42.843 85.3154 42.0811 86.7885 42.0811 86.7885Z" fill="#040000"/>
<path id="Vector_10" d="M17.6581 48.9876C17.5564 48.7845 18.0136 48.124 18.0136 48.124C18.0136 48.124 18.5724 47.8192 18.42 46.7019C18.2677 45.5846 18.1659 46.2448 17.7599 45.1782C17.3534 44.1115 16.7443 44.3146 17.3534 43.6037C17.9629 42.8925 18.6737 41.8262 18.8261 42.6895C18.9785 43.5527 18.6231 44.1115 18.9785 44.518C19.3339 44.9244 20.0451 45.0082 20.4512 45.6771C20.8577 46.3461 22.4828 46.6002 21.2638 47.4634C20.0448 48.327 19.4863 47.7682 19.0292 48.3777C18.572 48.9876 17.6581 48.9876 17.6581 48.9876Z" fill="#040000"/>
<path id="Vector_11" d="M16.0248 48.1721C16.8374 47.7149 17.1344 47.8167 17.0874 47.0037C17.0404 46.1912 17.5993 45.48 16.7357 45.4293C15.8725 45.3786 15.6184 45.8864 15.5167 46.2418C15.415 46.5973 15.415 46.699 15.6691 47.0544C15.9231 47.4098 15.9738 47.918 15.8721 48.1717C15.7711 48.4262 16.0248 48.1721 16.0248 48.1721Z" fill="#040000"/>
<path id="Vector_12" d="M13.0827 40.2563C13.7429 39.7992 14.8095 40.2056 14.8602 39.2403C14.9108 38.2754 15.1649 38.0213 13.6922 37.92C12.2195 37.8183 12.2195 37.8183 11.3052 37.92C10.391 38.0217 9.52774 37.1074 10.2386 38.4788C10.9494 39.8502 11.0511 40.155 11.61 40.2563C12.1688 40.3576 13.0827 40.2563 13.0827 40.2563Z" fill="#040000"/>
<path id="Vector_13" d="M115.324 36.6138C114.531 35.7076 113.241 35.6489 114.257 35.0901C115.273 34.5316 115.882 34.1758 116.847 33.9728C117.812 33.7697 118.828 34.1758 120.403 34.5823C121.977 34.9887 124.517 34.6329 125.685 34.9887C126.853 35.3441 127.412 36.0554 127.767 36.0043C128.123 35.9537 129.139 34.887 130.154 34.887C131.17 34.887 131.678 34.7346 133.76 34.9887C135.842 35.2428 137.874 35.3441 137.925 35.8523C137.975 36.3601 137.975 36.6142 138.737 36.6142C139.499 36.6142 140.159 36.1571 140.616 36.8683C141.073 37.5795 141.784 38.0873 141.683 37.5285C141.581 36.97 141.073 36.5129 141.48 36.3094C141.886 36.1064 143.054 36.0047 143.359 36.1064C143.664 36.2081 144.629 36.3605 144.934 36.3094C145.238 36.2588 145.035 35.7506 146.051 36.0554C147.066 36.3601 147.219 37.122 147.422 37.1727C147.625 37.2233 148.082 36.3917 148.133 35.8428C148.184 35.2935 148.641 35.2935 147.727 34.5826C146.813 33.8714 147.638 33.0082 148.292 33.313C148.946 33.6177 148.54 34.0242 149.2 34.6843C149.86 35.3445 149.962 35.9034 150.419 35.6999C150.876 35.4969 150.622 34.6333 151.231 35.2935C151.841 35.9537 151.993 35.621 152.552 35.5079C153.11 35.3948 152.653 35.0394 153.313 35.3948C153.974 35.7502 155.091 36.1567 154.278 36.8169C153.466 37.4771 152.247 37.3757 151.384 37.8835C150.52 38.3913 150.774 38.2389 150.52 38.8484C150.266 39.4579 150.368 39.5086 149.352 39.7627C148.336 40.0168 148.032 39.8134 148.082 40.677C148.133 41.5405 148.032 41.6419 147.676 42.099C147.32 42.5561 147.524 42.9626 147.93 43.1657C148.336 43.3687 148.793 43.0133 148.793 43.6228C148.793 44.2323 149.555 44.6894 150.571 44.6894C151.586 44.6894 152.043 44.9435 152.653 45.705C153.262 46.4669 152.399 46.5176 153.415 47.4825C154.43 48.4474 155.396 48.9046 155.548 48.0413C155.7 47.1781 155.548 46.9747 155.7 45.9591C155.853 44.9435 156.818 44.8418 156.31 43.9275C155.802 43.0133 155.04 42.6072 155.751 42.099C156.462 41.5912 155.599 41.122 156.818 40.8741C158.037 40.6263 158.849 40.4229 159.357 41.3371C159.865 42.2514 159.306 42.8609 159.814 43.267C160.322 43.6734 161.896 43.0639 162.201 42.7085C162.506 42.3531 163.369 42.4038 163.674 43.7241C163.979 45.0445 164.182 45.4003 164.639 45.5526C165.096 45.705 165.096 46.0098 165.655 46.5176C166.213 47.0254 167.28 47.8379 165.655 47.9903C164.03 48.1427 162.709 47.9396 162.1 48.4981C161.49 49.0566 161.439 48.6505 161.845 49.4124C162.252 50.1742 161.947 49.6664 162.252 50.6314C162.557 51.5963 164.08 51.5963 162.963 52.2565C161.845 52.9166 162.049 53.069 161.388 52.866C160.728 52.6629 160.576 51.2045 159.814 52.3909C159.052 53.5772 159.154 54.0343 158.494 54.3897C157.833 54.7452 157.782 54.0343 157.173 55.1516C156.564 56.2689 157.529 56.3706 156.158 57.6403C154.786 58.91 154.126 58.3005 154.024 59.3671C153.923 60.4338 154.583 61.7034 154.227 61.9575C153.872 62.2116 153.923 62.1606 153.517 61.4497C153.11 60.7385 153.313 60.3324 151.891 60.2307C150.469 60.129 150.571 59.7736 150.012 60.3831C149.453 60.9926 150.215 61.1956 148.641 60.9926C147.066 60.7896 146.863 58.9104 146.559 61.0943C146.254 63.2782 146.203 63.532 146.711 64.1415C147.219 64.751 148.59 66.2237 149.2 65.5635C149.809 64.9034 149.047 64.0908 150.216 64.3445C151.384 64.5986 151.688 64.2938 151.485 64.954C151.282 65.6142 149.708 65.7159 150.978 66.3254C152.247 66.9349 153.314 66.2237 153.415 67.189C153.517 68.1539 153.263 68.408 153.313 68.9665C153.364 69.525 153.618 69.9314 154.786 69.9314C155.954 69.9314 155.904 69.4743 156.208 70.0838C156.513 70.6933 157.478 70.3885 157.884 69.5249C158.291 68.6614 158.596 67.6964 159.205 68.7124C159.814 69.728 159.916 69.9314 160.525 69.5249C161.135 69.1185 161.135 69.1185 161.135 69.1185C161.135 69.1185 161.795 68.509 162.354 69.0168C162.912 69.5246 163.826 68.9661 164.03 69.677C164.233 70.3878 163.928 70.4895 164.792 70.7436C165.655 70.9977 166.671 70.5912 167.179 71.3021C167.686 72.0133 166.315 71.5561 167.788 72.4194C169.261 73.283 169.718 73.3843 169.617 73.9431C169.515 74.502 169.921 74.6033 171.242 74.9081C172.562 75.2128 172.359 75.0604 173.426 75.873C174.492 76.6855 175.356 76.3301 175.711 76.7366C176.067 77.143 176.676 77.2444 176.168 78.3617C175.661 79.479 175.153 79.2253 174.746 80.0885C174.34 80.9521 173.985 81.1551 174.086 82.6789C174.188 84.2027 174.239 84.0503 173.934 84.8122C173.629 85.5741 172.512 85.6754 171.598 86.2342C170.683 86.7931 170.633 86.3359 170.023 87.8593C169.414 89.3831 169.769 88.5705 169.261 89.8909C168.753 91.2113 169.464 90.5511 167.992 91.313C166.519 92.0748 165.96 91.4147 165.808 91.8718C165.655 92.3289 166.671 91.9735 165.605 92.9384C164.538 93.9034 164.081 94.1574 163.421 94.5635C162.76 94.9696 162.354 95.4271 162.506 96.2903C162.659 97.1536 163.421 97.1029 162.557 97.9155C161.693 98.728 161.338 97.9155 161.084 99.2358C160.83 100.556 160.577 99.947 160.83 101.318C161.084 102.689 162.405 102.689 161.186 103.451C159.967 104.213 158.646 104.569 157.884 102.74C157.123 100.912 157.123 100.201 157.123 98.9821C157.123 97.7631 156.97 98.6773 157.58 96.5951C158.189 94.5129 157.173 95.2237 157.681 92.9384C158.189 90.6528 158.088 88.2151 158.596 86.539C159.103 84.8628 160.221 85.32 159.103 83.7966C157.986 82.2728 157.783 82.5269 156.818 81.5109C155.853 80.4953 156.463 80.6984 155.904 79.4794C155.345 78.2603 154.99 78.3621 154.532 77.4478C154.075 76.5335 153.821 76.8383 154.278 75.3149C154.736 73.7911 153.72 73.8422 154.736 73.385C155.751 72.9279 155.599 71.8106 155.447 71.4041C155.294 70.9977 156.209 70.8453 154.787 70.6423C153.365 70.4392 152.958 70.8963 152.45 70.0328C151.942 69.1692 152.349 69.0172 151.282 68.509C150.216 68.0012 149.048 68.0012 148.641 67.5947C148.235 67.1883 148.235 67.1883 148.235 67.1883C148.235 67.1883 148.997 66.8835 147.27 66.6805C145.543 66.4774 144.273 66.6805 143.41 65.4615C142.546 64.2424 142.75 64.9537 142.546 63.8363C142.343 62.719 142.089 62.719 141.276 62.0078C140.464 61.297 140.464 60.8905 139.702 60.5858C138.94 60.281 138.788 60.3827 138.788 60.5351C138.788 60.6875 138.737 61.297 139.448 61.8555C140.159 62.4143 140.21 62.9221 140.21 63.1758C140.21 63.4299 139.245 63.7346 139.245 63.7346C139.245 63.7346 139.245 63.4299 138.94 62.719C138.635 62.0078 138.534 61.6524 137.924 60.7892C137.315 59.926 137.162 59.8243 137.162 59.8243C137.162 59.8243 136.451 58.707 135.232 57.2342C134.013 55.7615 133.658 56.6754 133.658 54.9996C133.658 53.3235 133.963 53.3235 133.658 52.1555C133.353 50.9875 132.642 50.4287 133.252 50.2256C133.861 50.0226 134.216 49.7178 133.099 48.7529C131.982 47.788 131.575 48.2958 131.169 46.9754C130.763 45.6551 131.626 45.7564 129.95 45.1469C128.274 44.5374 128.071 44.0296 127.309 43.6742C126.547 43.3188 126.09 43.1157 126.09 43.1157C126.09 43.1157 126.243 42.9633 124.414 42.811C122.586 42.6586 122.789 41.7954 121.418 42.3538C120.046 42.9127 119.843 43.014 119.843 43.014C119.843 43.014 120.605 42.0997 119.285 42.2015C117.964 42.3032 118.269 42.6079 118.218 43.2174C118.167 43.8269 118.37 44.5378 117.456 44.8936C116.542 45.249 115.222 46.2139 115.729 45.1983C116.237 44.1824 117.507 43.4715 117.05 43.2174C116.593 42.9633 115.628 43.7759 115.526 42.9633C115.424 42.1508 115.628 41.7443 114.561 41.6937C113.494 41.643 112.631 41.1859 113.444 40.8301C114.256 40.4746 115.018 40.627 115.272 39.7634C115.526 38.8998 117.406 38.6968 115.323 38.7478C113.241 38.7985 112.326 38.7985 112.581 38.3924C112.835 37.986 112.733 37.2244 114.206 37.4275C115.679 37.6294 115.679 37.0199 115.324 36.6138Z" fill="#040000"/>
</g>
</g>
<path id="Vector_14" opacity="0.2" d="M188.838 6.11856V121.875C188.838 125.171 186.129 127.881 182.833 127.881H30.9863L60.8753 97.992L61.8527 97.0142L62.97 95.8973L63.7241 95.1431L79.2831 79.5838L80.0931 78.7739V78.7459L80.6236 78.2429L80.6794 78.1871L83.0539 75.7851L83.8081 75.0588L88.0541 70.8128L90.4007 68.4662L115.513 43.3542L123.585 35.2819L158.223 0.616113L158.698 0.140625H182.833C186.129 0.140625 188.838 2.82208 188.838 6.11856Z" fill="#182D41"/>
<g id="Group_4">
<g id="Group_5">
<path id="Vector_15" d="M172.313 49.8435V70.3426C172.313 71.1676 171.638 71.8424 170.813 71.8424H145.564C144.739 71.8424 144.064 71.1676 144.064 70.3426V49.8435C144.064 49.0185 144.739 48.3438 145.564 48.3438H170.813C171.638 48.3434 172.313 49.0185 172.313 49.8435Z" fill="#F7D072"/>
</g>
<path id="Vector_16" opacity="0.2" d="M166.766 53.306L171.158 48.9141H169.733L165.952 52.7242L165.37 53.306L164.934 53.7132L161.938 56.709H155.423L154.842 56.1271L152.428 53.7132L151.468 52.7242L147.658 48.9141H146.232L150.013 52.7242L150.595 53.306H144.575V54.2947H151.613L153.474 56.1852L153.969 56.709V57.872H144.574V58.89H153.969V62.4673H144.574V63.456H153.969V64.6484H154.027L152.194 66.4521L151.613 67.034H144.574V68.0521H150.595L146.814 71.8331H148.239L152.02 68.0521L155.423 64.6495H161.938L169.151 71.8335H170.547L166.766 68.0525H172.321V67.0344H165.777L163.392 64.6495V63.4571H172.321V62.4685H163.392V58.8912H172.321V57.8731H163.392V56.7101L165.777 54.2958H172.321V53.3072H166.766V53.306ZM162.404 63.6311H154.958V57.698H162.404V63.6311Z" fill="white"/>
<g id="Group_6">
<g id="Group_7">
<path id="Vector_17" d="M154.933 56.1367L155.922 57.1254H160.459L160.866 56.7186L161.448 56.1367H154.933ZM154.933 56.1367L155.922 57.1254H160.459L160.866 56.7186L161.448 56.1367H154.933ZM154.933 56.1367L155.922 57.1254H160.459L160.866 56.7186L161.448 56.1367H154.933ZM154.933 56.1367L155.922 57.1254H160.459L160.866 56.7186L161.448 56.1367H154.933ZM161.041 63.6407L160.459 63.0592H155.922L155.369 63.6407H155.34L154.933 64.0769H161.448L161.041 63.6407ZM154.933 56.1367L155.922 57.1254H160.459L160.866 56.7186L161.448 56.1367H154.933ZM153.479 56.1367V64.0769H162.902V56.1367H153.479ZM161.913 63.0592H154.467V57.1258H161.913V63.0592ZM154.933 56.1367L155.922 57.1254H160.459L160.866 56.7186L161.448 56.1367H154.933ZM154.933 56.1367L155.922 57.1254H160.459L160.866 56.7186L161.448 56.1367H154.933ZM154.933 56.1367L155.922 57.1254H160.459L160.866 56.7186L161.448 56.1367H154.933ZM154.933 56.1367L155.922 57.1254H160.459L160.866 56.7186L161.448 56.1367H154.933ZM154.933 56.1367L155.922 57.1254H160.459L160.866 56.7186L161.448 56.1367H154.933ZM154.933 56.1367L155.922 57.1254H160.459L160.866 56.7186L161.448 56.1367H154.933Z" fill="#D5AD4F"/>
</g>
<g id="Group_8">
<g id="Group_9">
<path id="Vector_18" d="M151.52 52.7305L152.52 53.7306H144.064V52.7305H151.52Z" fill="#D5AD4F"/>
<path id="Vector_19" d="M172.317 52.7305V53.7306H163.861L164.861 52.7305H172.317Z" fill="#D5AD4F"/>
</g>
<g id="Group_10">
<path id="Vector_20" d="M154.47 57.3203H144.064V58.3204H154.47V57.3203Z" fill="#D5AD4F"/>
<path id="Vector_21" d="M172.308 57.3203H161.902V58.3204H172.308V57.3203Z" fill="#D5AD4F"/>
</g>
<g id="Group_11">
<path id="Vector_22" d="M154.47 61.8906H144.064V62.8907H154.47V61.8906Z" fill="#D5AD4F"/>
<path id="Vector_23" d="M172.308 61.8906H161.902V62.8907H172.308V61.8906Z" fill="#D5AD4F"/>
</g>
<g id="Group_12">
<path id="Vector_24" d="M152.522 66.4805L151.521 67.4806H144.064V66.4805H152.522Z" fill="#D5AD4F"/>
<path id="Vector_25" d="M172.318 66.4805V67.4806H164.861L163.861 66.4805H172.318Z" fill="#D5AD4F"/>
</g>
</g>
<g id="Group_13">
<path id="Vector_26" d="M155.931 63.0703L147.15 71.8512H145.736L154.517 63.0703H155.931Z" fill="#D5AD4F"/>
<path id="Vector_27" d="M170.647 48.3438L161.867 57.1246H160.453L169.234 48.3438H170.647Z" fill="#D5AD4F"/>
</g>
<g id="Group_14">
<path id="Vector_28" d="M155.921 57.1246H154.507L145.727 48.3438H147.14L155.921 57.1246Z" fill="#D5AD4F"/>
<path id="Vector_29" d="M170.638 71.8512H169.224L161.443 64.0704L161.027 63.6541L160.443 63.0703H161.857L162.401 63.614L162.857 64.0704L163.401 64.6141L165.263 66.4763L165.847 67.0601L166.263 67.4764L166.847 68.0602L170.638 71.8512Z" fill="#D5AD4F"/>
</g>
</g>
</g>
</g>
<defs>
<linearGradient id="paint0_linear_1180_7049" x1="0.847656" y1="0.140625" x2="119.611" y2="174.922" gradientUnits="userSpaceOnUse">
<stop stop-color="#2868A3"/>
<stop offset="0.390625" stop-color="#3F91BD"/>
<stop offset="1" stop-color="#61CEE6"/>
</linearGradient>
</defs>
</svg>
