<svg width="36" height="30" viewBox="0 0 36 30" fill="none" xmlns="http://www.w3.org/2000/svg">
<g id="Group">
<g id="Group_2">
<path id="Vector" d="M35.082 26.1457H1.06609C0.561383 26.1457 0.148438 25.7327 0.148438 25.228V1.89776C0.148438 1.0796 0.817883 0.410156 1.63604 0.410156H35.082C35.5867 0.410156 35.9997 0.823102 35.9997 1.3278V25.228C35.9997 25.7327 35.5867 26.1457 35.082 26.1457Z" fill="url(#paint0_linear_1180_7449)"/>
<path id="Vector_2" d="M33.838 24.2868H2.45623C2.0044 24.2868 1.63477 23.9172 1.63477 23.4654V3.23009C1.63477 2.49764 2.23404 1.89844 2.96641 1.89844H33.838C34.2899 1.89844 34.6595 2.26807 34.6595 2.7199V23.4654C34.6595 23.9171 34.2899 24.2868 33.838 24.2868Z" fill="#5C7F8A"/>
<path id="Vector_3" d="M33.0248 29.716H0.892547C0.401625 29.716 0 29.3143 0 28.8234V4.87302C0 4.38209 0.401625 3.98047 0.892547 3.98047H33.0248C33.5157 3.98047 33.9173 4.38209 33.9173 4.87302V28.8234C33.9173 29.3143 33.5157 29.716 33.0248 29.716Z" fill="url(#paint1_linear_1180_7449)"/>
<g id="Group_3">
<path id="Vector_4" d="M27.9346 18.2638C29.1487 18.2638 30.133 17.2796 30.133 16.0655C30.133 14.8514 29.1487 13.8672 27.9346 13.8672C26.7206 13.8672 25.7363 14.8514 25.7363 16.0655C25.7363 17.2796 26.7206 18.2638 27.9346 18.2638Z" fill="url(#paint2_linear_1180_7449)"/>
</g>
</g>
<path id="Vector_5" opacity="0.08" d="M1.63638 0.410156C0.818227 0.410156 0.148781 1.0796 0.148781 1.89783V4.38267C0.0552656 4.52358 0 4.69212 0 4.87303V28.8234C0 29.3144 0.401695 29.7161 0.892547 29.7161H3.34702L32.653 0.410156H1.63638Z" fill="white"/>
</g>
<defs>
<linearGradient id="paint0_linear_1180_7449" x1="18.074" y1="0.410156" x2="18.074" y2="26.1457" gradientUnits="userSpaceOnUse">
<stop stop-color="#311607"/>
<stop offset="1" stop-color="#8C5130"/>
</linearGradient>
<linearGradient id="paint1_linear_1180_7449" x1="16.9587" y1="3.98047" x2="16.9587" y2="29.716" gradientUnits="userSpaceOnUse">
<stop stop-color="#311607"/>
<stop offset="1" stop-color="#8C5130"/>
</linearGradient>
<linearGradient id="paint2_linear_1180_7449" x1="25.7363" y1="13.7528" x2="30.3532" y2="18.1438" gradientUnits="userSpaceOnUse">
<stop stop-color="#F79B0F"/>
<stop offset="0.84375" stop-color="#FFDA7A"/>
</linearGradient>
</defs>
</svg>
