<svg width="25" height="25" viewBox="0 0 25 25" fill="none" xmlns="http://www.w3.org/2000/svg">
<g id="cart-lines-1-svgrepo-com 1">
<path id="Vector" d="M19.2078 23.1289C18.4298 23.1289 17.8114 22.5089 17.8114 21.7289C17.8114 20.9489 18.4298 20.3289 19.2078 20.3289C19.9858 20.3289 20.6042 20.9489 20.6042 21.7289C20.6042 22.5089 19.9658 23.1289 19.2078 23.1289ZM8.03691 23.1289C7.25894 23.1289 6.64055 22.5089 6.64055 21.7289C6.64055 20.9489 7.25894 20.3289 8.03691 20.3289C8.81489 20.3289 9.43327 20.9489 9.43327 21.7289C9.43327 22.5089 8.79494 23.1289 8.03691 23.1289ZM7.81748 19.1289C6.76024 19.1289 5.84263 18.2889 5.72294 17.2289L4.36648 7.66891L3.5885 3.20891C3.52866 2.72891 3.10975 2.32891 2.65095 2.32891H1.6336C1.29448 2.32891 1.03516 2.06891 1.03516 1.72891C1.03516 1.38891 1.29448 1.12891 1.6336 1.12891H2.65095C3.70819 1.12891 4.64575 1.96891 4.78538 3.02891L5.56336 7.48891L6.91982 17.0689C6.95972 17.5289 7.37863 17.9289 7.81748 17.9289H20.7837C21.1228 17.9289 21.3821 18.1889 21.3821 18.5289C21.3821 18.8689 21.1228 19.1289 20.7837 19.1289H7.81748ZM8.81489 15.9289C8.49572 15.9289 8.23639 15.6889 8.21645 15.3689C8.1965 15.2089 8.25634 15.0489 8.35608 14.9289C8.45582 14.8089 8.61541 14.7289 8.75504 14.7289L19.5868 13.9289C20.0656 13.9289 20.4845 13.5489 20.5443 13.0889L21.8011 5.88891C21.8409 5.54891 21.7412 5.18891 21.5417 4.96891C21.4021 4.80891 21.2226 4.72891 21.0031 4.72891H7.21904C6.87993 4.72891 6.6206 4.46891 6.6206 4.12891C6.6206 3.78891 6.87993 3.52891 7.21904 3.52891H21.043C21.6016 3.52891 22.1003 3.76891 22.4793 4.16891C22.8982 4.64891 23.0977 5.34891 23.0179 6.04891L21.7612 13.2489C21.6415 14.2889 20.7039 15.1089 19.6666 15.1089L8.89468 15.9089C8.85478 15.9289 8.83483 15.9289 8.81489 15.9289Z" fill="white"/>
</g>
</svg>
